<svg id="Capa_1" enable-background="new 0 0 497 497" height="512" viewBox="0 0 497 497" width="512" xmlns="http://www.w3.org/2000/svg"><g><path d="m178.647 58.676s-114.2-34.306-114.2 44.174 44.543 106.054 99.691 28.988z" fill="#ffb25a"/><path d="m382.8 58.676s114.2-34.306 114.2 44.174-44.543 106.054-99.691 28.988z" fill="#ffbe73"/><path d="m67.025 212.294c-9.71-13.714-30.119-13.714-39.829 0-12.856 18.158-27.196 48.978-27.196 96.121 0 85.449 77.452 107.253 77.452 107.253l16.77-107.253c0-47.143-14.34-77.963-27.197-96.121z" fill="#ffca8a"/><path d="m77.452 415.667 16.77-107.253c0-19.181-2.374-35.658-6.056-49.681-39.992 31.646-58.417 77.824-66.76 117.252 22.923 30.353 56.046 39.682 56.046 39.682z" fill="#ffbe73"/><path d="m85.91 468.998c-26.844-12.536-42.418-41.192-38.078-70.499 21.358-144.24 129.081-143.107 129.081-143.107h157.487v173.871h2.65c17.65 0 31.958 14.308 31.958 31.958 0 7.781-6.308 14.09-14.089 14.09h-240.574c-9.826 0-19.532-2.155-28.435-6.313z" fill="#ffca8a"/><path d="m116.056 275.582c14.907 42.147 56.131 78.109 122.8 107.015 13.291 5.763 27.377 8.685 41.868 8.685s28.577-2.922 41.868-8.685c4.034-1.749 7.961-3.528 11.809-5.329v-121.876h-157.488s-29.609-.298-60.857 20.19z" fill="#ffbe73"/><path d="m408.285 186.645h-255.123s-80.349 96.711 95.638 173.015c20.362 8.828 43.484 8.828 63.846 0 175.988-76.304 95.639-173.015 95.639-173.015z" fill="#ffb25a"/><path d="m415.412 140.875c0 76.729-60.302 148.803-134.688 148.803s-134.688-72.073-134.688-148.803 60.301-119.187 134.688-119.187 134.688 42.457 134.688 119.187z" fill="#ffca8a"/><g fill="#423e4f"><path d="m280.738 186.954c10.94 0 19.809-5.822 19.809-13.003 0-11.302-39.619-11.302-39.619 0 .001 7.181 8.87 13.003 19.81 13.003z"/><path d="m208.051 147.179c-4.142 0-7.5 3.358-7.5 7.5v13.93c0 4.142 3.358 7.5 7.5 7.5s7.5-3.358 7.5-7.5v-13.93c0-4.143-3.358-7.5-7.5-7.5z"/><path d="m353.031 147.179c-4.142 0-7.5 3.358-7.5 7.5v13.93c0 4.142 3.358 7.5 7.5 7.5s7.5-3.358 7.5-7.5v-13.93c0-4.143-3.358-7.5-7.5-7.5z"/><path d="m314.312 193.767c-4.142 0-7.5 3.358-7.5 7.5 0 5.117-4.163 9.28-9.28 9.28s-9.28-4.163-9.28-9.28c0-4.142-3.358-7.5-7.5-7.5s-7.5 3.358-7.5 7.5c0 5.117-4.163 9.28-9.28 9.28s-9.28-4.163-9.28-9.28c0-4.142-3.358-7.5-7.5-7.5s-7.5 3.358-7.5 7.5c0 13.388 10.892 24.28 24.28 24.28 6.505 0 12.416-2.577 16.78-6.757 4.363 4.18 10.275 6.757 16.78 6.757 13.388 0 24.28-10.892 24.28-24.28 0-4.142-3.358-7.5-7.5-7.5z"/></g><g><path d="m175.146 475.311v-4.453c0-13.486-10.972-24.458-24.458-24.458h-2.65c-2.222 0-4.329-.985-5.754-2.689s-2.021-3.953-1.627-6.139c.234-1.379 5.456-34.734-31.613-46.403-3.951-1.244-6.146-5.455-4.902-9.406s5.453-6.146 9.406-4.902c25.903 8.154 35.96 24.952 39.836 37.609 2.004 6.545 2.569 12.658 2.606 17.285 19.259 2.598 34.156 19.144 34.156 39.103v4.453z" fill="#ffbe73"/></g><g><path d="m217.129 475.312v-71.66c0-4.142 3.358-7.5 7.5-7.5s7.5 3.358 7.5 7.5v71.66z" fill="#ffbe73"/></g><g><path d="m306.623 475.311v-4.453c0-13.486-10.972-24.458-24.458-24.458h-2.65c-4.142 0-7.5-3.358-7.5-7.5v-35.248c0-4.142 3.358-7.5 7.5-7.5s7.5 3.358 7.5 7.5v28.045c19.478 2.397 34.608 19.046 34.608 39.162v4.453h-15z" fill="#ffbe73"/></g><path d="m182.551 143.317c0-45.763 19.734-86.916 51.155-115.417-51.199 14.368-87.67 53.306-87.67 112.975 0 76.729 60.302 148.802 134.688 148.802 1.316 0 2.626-.028 3.933-.073-59.59-21.872-102.106-79.114-102.106-146.287z" fill="#ffbe73"/></g></svg>