<svg id="Capa_1" enable-background="new 0 0 502 502" height="512" viewBox="0 0 502 502" width="512" xmlns="http://www.w3.org/2000/svg" xmlns:xlink="http://www.w3.org/1999/xlink"><linearGradient id="lg1"><stop offset="0" stop-color="#f9b897"/><stop offset="1" stop-color="#f9cdb7"/></linearGradient><linearGradient id="SVGID_1_" gradientUnits="userSpaceOnUse" x1="75.022" x2="194.975" xlink:href="#lg1" y1="367.302" y2="367.302"/><linearGradient id="SVGID_2_" gradientUnits="userSpaceOnUse" x1="341.739" x2="461.692" xlink:href="#lg1" y1="367.302" y2="367.302"/><linearGradient id="lg2"><stop offset="0" stop-color="#f3385d"/><stop offset="1" stop-color="#fd869c"/></linearGradient><linearGradient id="SVGID_3_" gradientUnits="userSpaceOnUse" x1="268.357" x2="268.357" xlink:href="#lg2" y1="441.577" y2="317.84"/><linearGradient id="lg3"><stop offset="0" stop-color="#f9cdb7"/><stop offset="1" stop-color="#f9b897"/></linearGradient><linearGradient id="SVGID_4_" gradientUnits="userSpaceOnUse" x1="268.357" x2="268.357" xlink:href="#lg3" y1="377.481" y2="295.573"/><linearGradient id="SVGID_5_" gradientUnits="userSpaceOnUse" x1="252.924" x2="366.366" xlink:href="#lg1" y1="461.964" y2="461.964"/><linearGradient id="SVGID_6_" gradientUnits="userSpaceOnUse" x1="170.348" x2="283.79" xlink:href="#lg3" y1="461.964" y2="461.964"/><linearGradient id="lg4"><stop offset="0" stop-color="#4f4c5f"/><stop offset=".9783" stop-color="#6a647f"/></linearGradient><linearGradient id="SVGID_7_" gradientUnits="userSpaceOnUse" x1="333.467" x2="414.02" xlink:href="#lg4" y1="461.964" y2="461.964"/><linearGradient id="SVGID_8_" gradientUnits="userSpaceOnUse" x1="105.899" x2="105.899" xlink:href="#lg4" y1="135.721" y2="17.288"/><linearGradient id="SVGID_9_" gradientUnits="userSpaceOnUse" x1="268.357" x2="268.357" y1="183.308" y2="89.678"><stop offset=".0217" stop-color="#6a647f"/><stop offset="1" stop-color="#4f4c5f"/></linearGradient><linearGradient id="SVGID_10_" gradientUnits="userSpaceOnUse" x1="268.357" x2="268.357" xlink:href="#lg4" y1="89.678" y2="0"/><linearGradient id="SVGID_11_" gradientUnits="userSpaceOnUse" x1="76.581" x2="153.691" xlink:href="#lg1" y1="183.306" y2="183.306"/><linearGradient id="SVGID_12_" gradientUnits="userSpaceOnUse" x1="383.023" x2="460.133" xlink:href="#lg3" y1="183.306" y2="183.306"/><linearGradient id="SVGID_13_" gradientUnits="userSpaceOnUse" x1="268.357" x2="268.357" xlink:href="#lg1" y1="336.527" y2="89.678"/><linearGradient id="SVGID_14_" gradientUnits="userSpaceOnUse" x1="268.357" x2="268.357" xlink:href="#lg2" y1="112.712" y2="-15.058"/><linearGradient id="SVGID_15_" gradientUnits="userSpaceOnUse" x1="122.694" x2="203.247" xlink:href="#lg4" y1="461.964" y2="461.964"/><g><path d="m194.975 317.84s-39.601 23.747-89.683 29.866c-17.318 2.116-30.271 16.941-30.271 34.387 0 19.883 16.681 35.65 36.537 34.622 31.157-1.613 72.576-7.904 83.416-29.376v-69.499z" fill="url(#SVGID_1_)"/><path d="m341.739 317.84s39.601 23.747 89.683 29.866c17.318 2.116 30.271 16.941 30.271 34.387 0 19.883-16.681 35.65-36.537 34.622-31.157-1.613-72.576-7.904-83.416-29.376v-69.499z" fill="url(#SVGID_2_)"/><path d="m194.975 317.84s-20.051 12.02-49.657 21.161c-10.081 19.99-19.492 46.277-21.368 76.841 28.874-2.601 61.573-9.781 71.025-28.502z" fill="#ffa87c"/><path d="m391.396 339.001c-29.606-9.14-49.657-21.161-49.657-21.161v69.5c9.452 18.722 42.151 25.901 71.025 28.502-1.876-30.564-11.288-56.851-21.368-76.841z" fill="#ffa87c"/><path d="m383.023 426.84c0-64.139-41.284-108.999-41.284-108.999h-146.764s-41.284 44.86-41.284 108.999l114.666 14.738z" fill="url(#SVGID_3_)"/><circle cx="268.357" cy="336.527" fill="url(#SVGID_4_)" r="40.954"/><path d="m252.924 461.969c0 22.111 17.92 40.031 40.031 40.031h40.512l32.899-40.036-32.899-40.036h-40.512c-22.096 0-40.031 17.921-40.031 40.041z" fill="url(#SVGID_5_)"/><path d="m310.489 440.453c-2.116-6.537-5.206-12.776-9.219-18.525h-8.314c-22.096 0-40.031 17.92-40.031 40.041 0 8.021 2.361 15.487 6.424 21.747l18.489-11.437c3.483-2.154 7.497-3.296 11.593-3.296 14.831 0 25.625-14.419 21.058-28.53z" fill="#ffa87c"/><path d="m283.79 461.969c0 22.111-17.92 40.031-40.031 40.031h-40.512l-32.899-40.036 32.899-40.036h40.512c22.096 0 40.031 17.921 40.031 40.041z" fill="url(#SVGID_6_)"/><path d="m333.467 421.928v80.072h40.512c22.094 0 40.041-17.909 40.041-40.031 0-22.111-17.93-40.041-40.041-40.041z" fill="url(#SVGID_7_)"/><path d="m171.427 71.75c-1.347-29.284-25.116-53.053-54.4-54.4-32.797-1.509-59.862 24.635-59.862 57.1 0 11.863-5.945 21.089-12.188 27.506-7.595 7.808-5.682 20.658 3.972 25.701 13.228 6.91 34.335 11.996 65.378 3.954 32.465.001 58.609-27.064 57.1-59.861z" fill="url(#SVGID_8_)"/><path d="m451.664 183.308h-366.615c0-25.009 5.034-48.855 14.139-70.595l169.168-23.034 169.168 23.034c9.107 21.739 14.14 45.585 14.14 70.595z" fill="url(#SVGID_9_)"/><path d="m409.648 66.644-141.291 23.034-141.291-23.034c33.653-40.682 84.504-66.644 141.291-66.644s107.638 25.962 141.291 66.644z" fill="url(#SVGID_10_)"/><circle cx="115.136" cy="183.306" fill="url(#SVGID_11_)" r="38.555"/><circle cx="421.578" cy="183.306" fill="url(#SVGID_12_)" r="38.555"/><g><path d="m132.342 112.712c-10.988 21.128-17.206 45.134-17.206 70.594 0 84.622 68.599 153.221 153.221 153.221s153.221-68.599 153.221-153.221c0-25.461-6.217-49.467-17.206-70.594l-136.015-23.034z" fill="url(#SVGID_13_)"/></g><g><path d="m328.394 53.267c-8.602-4.013-17.851-7.149-27.492-9.322-5.403-1.218-8.795-6.585-7.577-11.987 1.217-5.402 6.582-8.793 11.986-7.578 11.04 2.488 21.659 6.092 31.561 10.711 5.019 2.341 7.19 8.308 4.848 13.327-2.344 5.026-8.312 7.187-13.326 4.849z" fill="#918ca1"/></g><g><path d="m241.768 32.012c-.522-5.514 3.523-10.407 9.036-10.93 4.616-.438 9.283-.701 13.872-.783.061-.001.123-.001.183-.001 5.455 0 9.924 4.372 10.022 9.848.1 5.537-4.309 10.107-9.846 10.206-4.08.073-8.231.307-12.338.697-5.511.52-10.406-3.519-10.929-9.037z" fill="#918ca1"/></g><path d="m437.525 112.712h-338.337c7.019-16.756 16.456-32.259 27.877-46.068h282.583c11.422 13.809 20.858 29.312 27.877 46.068z" fill="url(#SVGID_14_)"/><g><ellipse cx="170.348" cy="214.716" fill="#fb99ac" rx="16.657" ry="13.386"/><ellipse cx="366.366" cy="214.716" fill="#fb99ac" rx="16.657" ry="13.386"/><circle cx="198.904" cy="181.687" fill="#fff" r="33.03"/><circle cx="337.81" cy="181.687" fill="#fff" r="33.03"/><g fill="#383842"><g><circle cx="198.904" cy="181.687" r="19.686"/><circle cx="337.81" cy="181.687" r="19.686"/></g><path d="m268.356 215.187c-5.712 0-11.425-2.16-16.086-6.48-2.025-1.878-2.145-5.041-.268-7.066 1.878-2.025 5.041-2.143 7.066-.268 5.468 5.069 13.105 5.071 18.575 0 2.026-1.875 5.188-1.758 7.066.268 1.877 2.025 1.758 5.188-.268 7.066-4.659 4.319-10.372 6.48-16.085 6.48z"/></g></g><path d="m203.247 421.928v80.072h-40.512c-22.094 0-40.041-17.909-40.041-40.031 0-22.111 17.93-40.041 40.041-40.041z" fill="url(#SVGID_15_)"/></g></svg>