<svg id="Capa_1" enable-background="new 0 0 512 512" height="512" viewBox="0 0 512 512" width="512" xmlns="http://www.w3.org/2000/svg"><g><g><path d="m501.333 501.333c-14.223 14.223-37.283 14.223-51.506 0l-120.304-120.304 51.506-51.506 120.303 120.304c14.224 14.223 14.224 37.283.001 51.506z" fill="#636978"/></g><g><path d="m475.58 475.58-120.304-120.304-25.753 25.753 120.304 120.304c14.223 14.223 37.283 14.223 51.506 0 4.692-4.692 7.826-10.349 9.423-16.33-12.149 3.241-25.646.107-35.176-9.423z" fill="#555a66"/></g><g><path d="m353.069 298.62-54.449 54.449c-8.127 8.127-8.127 21.305 0 29.432l29.432 29.432c8.127 8.127 21.305 8.127 29.432 0l54.449-54.449c8.127-8.127 8.127-21.305 0-29.432l-29.432-29.432c-8.128-8.128-21.305-8.128-29.432 0z" fill="#fff48f"/></g><g><path d="m357.484 382.501-29.432-29.432c-8.127-8.127-8.127-21.305 0-29.432l-29.432 29.432c-8.127 8.127-8.127 21.305 0 29.432l29.432 29.432c8.127 8.127 21.305 8.127 29.432 0l29.432-29.432c-8.128 8.127-21.305 8.127-29.432 0z" fill="#ffee6e"/></g><g><circle cx="208.116" cy="208.116" fill="#636978" r="208.116"/></g><g><path d="m90.388 325.844c-76.308-76.307-80.966-197.126-13.986-278.874-5.321 4.36-10.479 9.019-15.446 13.986-81.274 81.274-81.274 213.046 0 294.32s213.046 81.274 294.32 0c4.967-4.967 9.626-10.125 13.986-15.446-81.748 66.98-202.567 62.322-278.874-13.986z" fill="#555a66"/></g><g><circle cx="208.116" cy="208.116" fill="#b2d3ff" r="166.493"/></g><g><path d="m119.82 296.412c-60.035-60.035-64.633-154.511-13.802-219.826-5.422 4.22-10.646 8.818-15.63 13.802-65.019 65.019-65.019 170.437 0 235.456s170.437 65.019 235.456 0c4.984-4.984 9.582-10.208 13.802-15.63-65.316 50.831-159.791 46.233-219.826-13.802z" fill="#9bc5ff"/></g><g><path d="m208.116 125.874c-69.245 0-125.38 82.242-125.38 82.242s56.134 82.242 125.38 82.242 125.38-82.242 125.38-82.242-56.135-82.242-125.38-82.242z" fill="#f2f6fc"/></g><g><path d="m219.576 126.627c-3.775-.484-7.595-.753-11.46-.753-69.245 0-125.38 82.242-125.38 82.242s56.134 82.242 125.38 82.242c3.864 0 7.685-.269 11.46-.753-93.986-11.861-93.986-151.117 0-162.978z" fill="#e9edf5"/></g><g><circle cx="208.116" cy="208.116" fill="#636978" r="59.032"/></g><g><path d="m175.802 208.116c0-28.008 19.505-51.46 45.673-57.514-4.293-.993-8.765-1.518-13.359-1.518-32.602 0-59.032 26.43-59.032 59.032s26.429 59.032 59.032 59.032c4.595 0 9.066-.525 13.359-1.518-26.167-6.054-45.673-29.506-45.673-57.514z" fill="#555a66"/></g></g></svg>