<svg id="Capa_1" enable-background="new 0 0 512 512" height="512" viewBox="0 0 512 512" width="512" xmlns="http://www.w3.org/2000/svg"><g><g><circle cx="388.195" cy="102.875" fill="#fc90b4" r="102.875"/></g><g><path d="m388.195 0c-56.816 0-102.875 46.059-102.875 102.875s46.059 102.875 102.875 102.875c-11.363 0-20.575-9.212-20.575-20.575s9.212-20.575 20.575-20.575v-123.45c-11.363 0-20.575-9.212-20.575-20.575s9.212-20.575 20.575-20.575z" fill="#fc80aa"/></g><g><circle cx="388.195" cy="102.875" fill="#fc80aa" r="61.725"/></g><g><path d="m388.195 102.875c0-22.796 12.432-42.731 30.863-53.421-9.086-5.27-19.624-8.304-30.863-8.304-34.035 0-61.725 27.69-61.725 61.725s27.69 61.725 61.725 61.725c11.239 0 21.776-3.034 30.863-8.304-18.431-10.689-30.863-30.624-30.863-53.421z" fill="#f76898"/></g><g><circle cx="123.805" cy="102.875" fill="#fc90b4" r="102.875"/></g><g><path d="m123.805 0c-56.816 0-102.875 46.059-102.875 102.875s46.059 102.875 102.875 102.875c-11.363 0-20.575-9.212-20.575-20.575s9.212-20.575 20.575-20.575v-123.45c-11.363 0-20.575-9.212-20.575-20.575s9.212-20.575 20.575-20.575z" fill="#fc80aa"/></g><g><circle cx="123.805" cy="102.875" fill="#fc80aa" r="61.725"/></g><g><path d="m123.805 102.875c0-22.796 12.432-42.731 30.863-53.421-9.086-5.27-19.624-8.304-30.863-8.304-34.035 0-61.725 27.69-61.725 61.725s27.69 61.725 61.725 61.725c11.239 0 21.776-3.034 30.863-8.304-18.431-10.689-30.863-30.624-30.863-53.421z" fill="#f76898"/></g><g><path d="m256 61.22c-118.463 0-214.495 96.033-214.495 214.495v112.835h428.99v-112.835c0-118.462-96.033-214.495-214.495-214.495z" fill="#fda0c1"/></g><g><path d="m374.444 270.105c-109.174 0-199.296-81.563-212.758-187.077-71.174 34.903-120.181 108.067-120.181 192.687v112.835h428.99v-112.835c0-9.289-.592-18.44-1.737-27.417-28.466 13.958-60.471 21.807-94.314 21.807z" fill="#fc90b4"/></g><g><path d="m256 61.22c-61.646 0-111.62 49.974-111.62 111.62v215.71h223.24v-215.71c0-61.646-49.974-111.62-111.62-111.62z" fill="#fc90b4"/></g><g><path d="m166.087 106.697c-13.641 18.512-21.707 41.384-21.707 66.143v215.71h223.24v-118.564c-97.829-3.059-179.132-71.619-201.533-163.289z" fill="#fc80aa"/></g><g><path d="m265.226 156.735 15.872 32.161c1.499 3.037 4.396 5.141 7.747 5.628l35.491 5.157c8.439 1.226 11.808 11.597 5.702 17.549l-25.682 25.033c-2.425 2.364-3.531 5.769-2.959 9.107l6.063 35.348c1.442 8.405-7.38 14.814-14.928 10.846l-31.744-16.689c-2.997-1.576-6.578-1.576-9.575 0l-31.744 16.689c-7.548 3.968-16.37-2.441-14.928-10.846l6.063-35.348c.572-3.338-.534-6.743-2.959-9.107l-25.682-25.033c-6.106-5.952-2.737-16.323 5.702-17.549l35.491-5.157c3.351-.487 6.248-2.592 7.747-5.628l15.872-32.161c3.773-7.646 14.677-7.646 18.451 0z" fill="#f7f0eb"/></g><g><path d="m324.336 199.681-35.491-5.157c-3.351-.487-6.248-2.592-7.747-5.628l-15.872-32.161c-3.774-7.647-14.678-7.647-18.452 0l-15.872 32.161c-1.499 3.037-4.396 5.141-7.747 5.628l-10.801 1.57c23.991 27.656 54.947 49.099 90.133 61.628l-1.089-6.351c-.572-3.338.534-6.743 2.959-9.107l25.682-25.033c6.106-5.953 2.736-16.323-5.703-17.55z" fill="#fff"/></g><g><path d="m511.645 388.55c0-22.727-18.406-41.15-41.11-41.15h-429.07c-22.705 0-41.11 18.423-41.11 41.15 0 10.552 3.968 20.176 10.491 27.459 6.907 7.712 6.907 19.67 0 27.382-6.523 7.283-10.491 16.907-10.491 27.459 0 22.727 18.406 41.15 41.11 41.15h429.069c22.705 0 41.11-18.424 41.11-41.15 0-10.552-3.968-20.176-10.491-27.459-6.907-7.712-6.907-19.67 0-27.382 6.525-7.284 10.492-16.908 10.492-27.459z" fill="#fdb3cd"/></g><g><path d="m154.668 470.85c0-10.552 3.968-20.176 10.491-27.459 6.907-7.712 6.907-19.67 0-27.382-6.523-7.283-10.491-16.907-10.491-27.459 0-22.727 18.406-41.15 41.11-41.15h-154.313c-22.705 0-41.11 18.423-41.11 41.15 0 10.552 3.968 20.176 10.491 27.459 6.907 7.712 6.907 19.67 0 27.382-6.523 7.283-10.491 16.907-10.491 27.459 0 22.727 18.406 41.15 41.11 41.15h154.313c-22.704 0-41.11-18.424-41.11-41.15z" fill="#fda0c1"/></g><g><g><g><ellipse cx="174.065" cy="438.206" fill="#fff" rx="30.232" ry="24.075"/></g><g><ellipse cx="337.935" cy="438.206" fill="#fff" rx="30.232" ry="24.075"/></g><g><path d="m280.375 419.708c0-15.064-10.913-16.479-24.375-16.479s-24.375 1.415-24.375 16.479 10.913 27.275 24.375 27.275 24.375-12.211 24.375-27.275z" fill="#6e6e6e"/></g></g><g><path d="m179.119 416.963c-4.143 0-7.5-3.358-7.5-7.5v-12.345c0-4.142 3.357-7.5 7.5-7.5s7.5 3.358 7.5 7.5v12.345c0 4.142-3.357 7.5-7.5 7.5z" fill="#6e6e6e"/></g><g><path d="m332.881 416.963c-4.143 0-7.5-3.358-7.5-7.5v-12.345c0-4.142 3.357-7.5 7.5-7.5s7.5 3.358 7.5 7.5v12.345c0 4.142-3.358 7.5-7.5 7.5z" fill="#6e6e6e"/></g></g></g></svg>