<svg viewBox="-47 0 512 512.00001" xmlns="http://www.w3.org/2000/svg"><path d="m293.847656 509.441406c-4.203125 0-7.613281-3.410156-7.613281-7.613281 0-15.195313 7.101563-23.21875 12.808594-29.667969 5.214843-5.894531 8.980469-10.152344 8.980469-19.578125s-3.765626-13.683593-8.980469-19.578125c-5.707031-6.445312-12.808594-14.46875-12.808594-29.664062 0-15.195313 7.101563-23.21875 12.808594-29.664063 5.214843-5.894531 8.980469-10.152343 8.980469-19.578125 0-4.203125 3.410156-7.609375 7.613281-7.609375s7.613281 3.40625 7.613281 7.609375c0 15.195313-7.101562 23.21875-12.808594 29.664063-5.214844 5.894531-8.984375 10.152343-8.984375 19.578125 0 9.425781 3.769531 13.683594 8.984375 19.578125 5.707032 6.445312 12.808594 14.46875 12.808594 29.664062 0 15.195313-7.101562 23.21875-12.808594 29.667969-5.214844 5.890625-8.984375 10.148438-8.984375 19.578125 0 4.203125-3.40625 7.613281-7.609375 7.613281zm0 0" fill="#eaeaea"/><path d="m328.859375 310.324219h-67.847656l-31.800781 39.554687c-5.589844 6.957032-.640626 17.292969 8.289062 17.292969h14.816406c5.535156 0 10.8125 2.347656 14.519532 6.460937l20.203124 22.410157c4.222657 4.6875 11.570313 4.6875 15.792969 0l20.207031-22.410157c3.707032-4.113281 8.984376-6.460937 14.519532-6.460937h14.816406c8.925781 0 13.878906-10.335937 8.285156-17.292969zm0 0" fill="#ffde55"/><path d="m323.707031 335.332031 1.355469-25.007812h-64.050781l-31.800781 39.554687c-5.589844 6.957032-.640626 17.292969 8.289062 17.292969h14.816406c5.535156 0 10.8125 2.347656 14.519532 6.460937l8.664062 9.609376c4.390625-9.269532 10.746094-18.40625 19.4375-21.320313 19.589844-6.570313 28.769531-26.589844 28.769531-26.589844zm0 0" fill="#ffcd00"/><path d="m417.511719 169.261719c0 67.699219-33.574219 169.21875-122.574219 169.21875s-122.578125-101.519531-122.578125-169.21875c0-67.695313 54.878906-122.574219 122.578125-122.574219 67.695312 0 122.574219 54.878906 122.574219 122.574219zm0 0" fill="#ffeb99"/><path d="m285.28125 268.625c36.058594-74.371094 13.621094-176.136719.4375-221.59375-63.390625 4.710938-113.359375 57.636719-113.359375 122.230469 0 60.664062 26.972656 148.476562 96.617187 166.070312-.277343-19.199219 4.070313-41.480469 16.304688-66.707031zm0 0" fill="#ffde55"/><path d="m143.277344 512c-4.207032 0-7.613282-3.40625-7.613282-7.613281 0-9.425781-3.765624-13.683594-8.980468-19.578125-5.707032-6.449219-12.808594-14.472656-12.808594-29.667969s7.101562-23.21875 12.804688-29.667969c5.21875-5.890625 8.984374-10.152344 8.984374-19.578125s-3.765624-13.683593-8.980468-19.578125c-5.707032-6.445312-12.808594-14.46875-12.808594-29.664062 0-15.195313 7.101562-23.21875 12.808594-29.664063 5.214844-5.894531 8.980468-10.148437 8.980468-19.578125 0-4.203125 3.40625-7.609375 7.613282-7.609375 4.203125 0 7.609375 3.40625 7.609375 7.609375 0 15.195313-7.097657 23.21875-12.804688 29.667969-5.214843 5.890625-8.984375 10.148437-8.984375 19.574219 0 9.425781 3.769532 13.683594 8.984375 19.578125 5.707031 6.445312 12.804688 14.46875 12.804688 29.664062 0 15.195313-7.097657 23.21875-12.804688 29.667969-5.214843 5.894531-8.984375 10.152344-8.984375 19.578125 0 9.429687 3.769532 13.6875 8.984375 19.582031 5.707031 6.445313 12.804688 14.46875 12.804688 29.664063 0 4.207031-3.40625 7.613281-7.609375 7.613281zm0 0" fill="#eaeaea"/><path d="m156.5 263.636719h-67.847656l-31.800782 39.554687c-5.59375 6.957032-.640624 17.292969 8.285157 17.292969h14.816406c5.539063 0 10.8125 2.347656 14.519531 6.460937l20.207032 22.414063c4.222656 4.683594 11.570312 4.683594 15.792968 0l20.203125-22.414063c3.707031-4.113281 8.984375-6.460937 14.519531-6.460937h14.816407c8.929687 0 13.878906-10.335937 8.289062-17.292969zm0 0" fill="#92dd7a"/><path d="m170.003906 280.429688-13.503906-16.792969h-67.847656l-31.800782 39.554687c-5.59375 6.957032-.640624 17.292969 8.285157 17.292969h14.820312c5.535157 0 10.8125 2.347656 14.515625 6.460937l8.636719 9.578126c3.375-10.15625 9.871094-20.097657 22.289063-23.636719 28.757812-8.203125 44.605468-32.457031 44.605468-32.457031zm0 0" fill="#7ec66a"/><path d="m245.152344 122.574219c0 67.699219-33.578125 169.222656-122.578125 169.222656s-122.574219-101.523437-122.574219-169.222656c0-67.695313 54.878906-122.574219 122.574219-122.574219 67.699219 0 122.578125 54.878906 122.578125 122.574219zm0 0" fill="#b1ef97"/><path d="m122.574219 291.796875c8.660156 0 16.785156-.972656 24.414062-2.769531-17.042969-12.144532-36.128906-32.574219-55.28125-66.480469-41.671875-73.769531-20.273437-168.324219-4.132812-217.46875-50.640625 15.066406-87.574219 61.964844-87.574219 117.496094 0 67.699219 33.574219 169.222656 122.574219 169.222656zm0 0" fill="#92dd7a"/><g fill="#57565c"><path d="m204.429688 136.675781c-4.203126 0-7.609376-3.410156-7.609376-7.613281v-12.636719c0-4.203125 3.40625-7.609375 7.609376-7.609375 4.207031 0 7.613281 3.40625 7.613281 7.609375v12.636719c0 4.203125-3.40625 7.613281-7.613281 7.613281zm0 0"/><path d="m40.71875 136.675781c-4.203125 0-7.609375-3.410156-7.609375-7.613281v-12.636719c0-4.203125 3.40625-7.609375 7.609375-7.609375 4.207031 0 7.613281 3.40625 7.613281 7.609375v12.636719c0 4.203125-3.40625 7.613281-7.613281 7.613281zm0 0"/><path d="m122.574219 144.644531c-9.851563 0-19.703125-3.1875-27.921875-9.566406-3.320313-2.574219-3.925782-7.355469-1.347656-10.679687 2.574218-3.320313 7.355468-3.925782 10.675781-1.347657 10.949219 8.492188 26.238281 8.492188 37.1875 0 3.320312-2.578125 8.101562-1.972656 10.679687 1.347657 2.574219 3.324218 1.972656 8.105468-1.351562 10.679687-8.21875 6.378906-18.070313 9.566406-27.921875 9.566406zm0 0"/></g></svg>