<svg id="Capa_1" enable-background="new 0 0 497 497" height="512" viewBox="0 0 497 497" width="512" xmlns="http://www.w3.org/2000/svg"><g><g><path d="m248.498 120.22c-24.853 0-45 20.147-45 45h90c0-24.853-20.147-45-45-45z" fill="#4c5699"/><path d="m220.297 310.22-51.797-144.764c25.641-10.089 52.502-15.215 79.836-15.235h.162c27.392 0 54.309 5.126 80.002 15.235l-51.801 144.764c-9.072-3.571-18.561-5.38-28.201-5.38h-.109c-9.566.007-19.036 1.818-28.092 5.38z" fill="#676fb2"/></g><g><g><path d="m139.25 145.455h-27.807c-13.706 0-26.344 7.402-33.047 19.357l-53.396 95.218 53.395 95.218c6.704 11.955 19.341 19.357 33.047 19.357h27.807c53.712-10.488 94.25-57.794 94.25-114.575s-40.537-104.088-94.249-114.575z" fill="#30cd9c"/><path d="m45 260.03c0-56.781 40.538-104.088 94.25-114.575-7.281-1.422-14.802-2.175-22.5-2.175-64.479 0-116.75 52.271-116.75 116.75s52.271 116.75 116.75 116.75c7.698 0 15.219-.753 22.5-2.175-53.712-10.488-94.25-57.794-94.25-114.575z" fill="#0caf7b"/></g><g><g><path d="m146.75 194.877h-20l-41.75 65.153 41.75 65.153h20c24.618-11.381 41.75-36.296 41.75-65.153s-17.132-53.771-41.75-65.153z" fill="#b9f0ff"/></g><path d="m105 260.03c0-28.856 17.132-53.771 41.75-65.153-9.135-4.223-19.293-6.597-30-6.597-39.563 0-71.75 32.187-71.75 71.75s32.187 71.75 71.75 71.75c10.707 0 20.865-2.374 30-6.597-24.618-11.382-41.75-36.297-41.75-65.153z" fill="#7ce3ff"/></g></g><g><g><path d="m402.75 145.455h-27.807c-13.706 0-26.344 7.402-33.047 19.357l-53.396 95.218 53.395 95.218c6.704 11.955 19.341 19.357 33.047 19.357h27.807c53.713-10.488 94.251-57.794 94.251-114.575s-40.538-104.088-94.25-114.575z" fill="#30cd9c"/><path d="m308.5 260.03c0-56.781 40.538-104.088 94.25-114.575-7.281-1.422-14.802-2.175-22.5-2.175-64.479 0-116.75 52.271-116.75 116.75s52.271 116.75 116.75 116.75c7.698 0 15.219-.753 22.5-2.175-53.712-10.488-94.25-57.794-94.25-114.575z" fill="#0caf7b"/></g><g><g><path d="m410.25 194.877h-20l-41.75 65.153 41.75 65.153h20c24.618-11.382 41.75-36.297 41.75-65.153s-17.132-53.771-41.75-65.153z" fill="#b9f0ff"/></g><path d="m368.5 260.03c0-28.856 17.132-53.771 41.75-65.153-9.135-4.223-19.293-6.597-30-6.597-39.563 0-71.75 32.187-71.75 71.75s32.187 71.75 71.75 71.75c10.707 0 20.865-2.374 30-6.597-24.618-11.382-41.75-36.297-41.75-65.153z" fill="#7ce3ff"/></g></g><g><g><g><ellipse cx="128.943" cy="279.283" fill="#ff8e9e" rx="29.355" ry="23.377"/></g><g><ellipse cx="368.057" cy="279.283" fill="#ff8e9e" rx="29.355" ry="23.377"/></g></g></g><g fill="#313d40"><path d="m146.051 237.28c-4.143 0-7.5 3.357-7.5 7.5v12c0 4.143 3.357 7.5 7.5 7.5s7.5-3.357 7.5-7.5v-12c0-4.142-3.358-7.5-7.5-7.5z"/><path d="m350.948 237.28c-4.143 0-7.5 3.357-7.5 7.5v12c0 4.143 3.357 7.5 7.5 7.5s7.5-3.357 7.5-7.5v-12c0-4.142-3.357-7.5-7.5-7.5z"/></g></g></svg>