<svg height="511pt" viewBox="0 -63 511.99984 511" width="511pt" xmlns="http://www.w3.org/2000/svg"><path d="m500.921875 94.441406c-15.429687-16.03125-41.480469-15.730468-57.210937 0l-86.023438 86.023438-228.546875-100.1875c-14.359375-24.152344-34.636719-47.585938-63.277344-66.410156-19.621093-12.890626-45.980469-7.4375-58.875 12.183593-12.894531 19.621094-7.4375 45.972657 12.179688 58.875 20.28125 13.324219 35.640625 32.3125 45.835937 56.578125-39.699218 61.476563-32.640625 144.375 21.199219 198.214844 61.984375 61.984375 162.472656 61.984375 224.457031 0l189.71875-189.71875c15.3125-15.3125 15.492188-40.023438.542969-55.558594zm0 0" fill="#fcc1ad"/><path d="m500.921875 94.441406c-3.726563-3.871094-8.074219-6.78125-12.746094-8.761718 6.214844 14.476562 3.417969 31.898437-8.402343 43.71875l-189.714844 189.71875c-58.519532 58.519531-151.359375 61.777343-213.710938 9.796874 3.089844 3.714844 6.375 7.324219 9.855469 10.804688 61.984375 61.984375 162.476563 61.984375 224.457031 0l189.71875-189.714844c15.3125-15.316406 15.492188-40.027344.542969-55.5625zm0 0" fill="#f2b19b"/><path d="m301.574219 124.351562c15.496093-15.496093 15.496093-40.621093 0-56.117187-15.496094-15.496094-40.617188-15.496094-56.113281 0l-60.921876 4.8125-4.8125 60.921875c-15.496093 15.496094-15.496093 40.617188 0 56.113281 15.496094 15.496094 40.617188 15.496094 56.113282 0l60.925781-4.808593zm0 0" fill="#fcd4c8"/><g fill="#fcdfd6"><path d="m123.613281 133.96875c-15.496093-15.496094-15.496093-40.617188 0-56.113281l65.734375-65.734375c15.496094-15.496094 40.617188-15.496094 56.113282 0 15.496093 15.496094 15.496093 40.617187 0 56.113281l-65.734376 65.734375c-15.492187 15.496094-40.617187 15.496094-56.113281 0zm0 0"/><path d="m357.6875 180.464844c15.496094-15.496094 15.496094-40.617188 0-56.113282-15.496094-15.496093-40.617188-15.496093-56.113281 0l-65.734375 65.730469c-15.496094 15.496094-15.496094 40.621094 0 56.117188 15.496094 15.496093 40.621094 15.496093 56.117187 0zm0 0"/></g></svg>