<svg id="Capa_1" enable-background="new 0 0 502 502" height="512" viewBox="0 0 502 502" width="512" xmlns="http://www.w3.org/2000/svg" xmlns:xlink="http://www.w3.org/1999/xlink"><linearGradient id="lg1"><stop offset="0" stop-color="#f4d952"/><stop offset="1" stop-color="#f9edaf"/></linearGradient><linearGradient id="SVGID_1_" gradientUnits="userSpaceOnUse" x1="316.025" x2="316.025" xlink:href="#lg1" y1="331.985" y2="411.858"/><linearGradient id="lg2"><stop offset="0" stop-color="#4e5660"/><stop offset="1" stop-color="#64768d"/></linearGradient><linearGradient id="SVGID_2_" gradientUnits="userSpaceOnUse" x1="293.67" x2="391.247" xlink:href="#lg2" y1="445.796" y2="445.796"/><linearGradient id="lg3"><stop offset="0" stop-color="#9fd8e6"/><stop offset="1" stop-color="#c4e8f0"/></linearGradient><linearGradient id="SVGID_3_" gradientUnits="userSpaceOnUse" x1="320.541" x2="359.841" xlink:href="#lg3" y1="445.796" y2="445.796"/><linearGradient id="SVGID_4_" gradientUnits="userSpaceOnUse" x1="372.547" x2="477.923" xlink:href="#lg2" y1="128.528" y2="128.528"/><linearGradient id="SVGID_5_" gradientUnits="userSpaceOnUse" x1="148.63" x2="148.63" xlink:href="#lg1" y1="331.985" y2="411.858"/><linearGradient id="lg4"><stop offset="0" stop-color="#6ac65e"/><stop offset="1" stop-color="#afd986"/></linearGradient><linearGradient id="SVGID_6_" gradientUnits="userSpaceOnUse" x1="63.414" x2="268.581" xlink:href="#lg4" y1="101.835" y2="101.835"/><linearGradient id="SVGID_7_" gradientUnits="userSpaceOnUse" x1="260.728" x2="260.728" xlink:href="#lg2" y1="185.315" y2="42.514"/><linearGradient id="SVGID_8_" gradientUnits="userSpaceOnUse" x1="134.174" x2="422.125" xlink:href="#lg4" y1="279.102" y2="279.102"/><linearGradient id="SVGID_9_" gradientUnits="userSpaceOnUse" x1="88.657" x2="471.729" y1="197.04" y2="197.04"><stop offset="0" stop-color="#f9edaf"/><stop offset="1" stop-color="#fffcdd"/></linearGradient><linearGradient id="SVGID_10_" gradientUnits="userSpaceOnUse" x1="81.001" x2="178.579" xlink:href="#lg2" y1="445.796" y2="445.796"/><linearGradient id="SVGID_11_" gradientUnits="userSpaceOnUse" x1="107.872" x2="147.173" xlink:href="#lg3" y1="445.796" y2="445.796"/><g><path d="m338.664 471.308c-10.418 0-20.199-6.432-23.969-16.789l-45.274-124.387c-4.818-13.236 2.007-27.872 15.244-32.689 13.238-4.818 27.872 2.007 32.69 15.244l45.274 124.387c4.818 13.236-2.007 27.872-15.244 32.69-2.88 1.046-5.825 1.544-8.721 1.544z" fill="url(#SVGID_1_)"/><circle cx="338.662" cy="445.796" fill="url(#SVGID_2_)" r="56.204"/><circle cx="338.662" cy="445.796" fill="url(#SVGID_3_)" r="22.637"/><path d="m398.056 228.707c-2.897 0-5.841-.497-8.721-1.545-13.237-4.818-20.061-19.453-15.244-32.689l54.353-149.334c4.817-13.237 19.453-20.063 32.69-15.244 13.237 4.818 20.061 19.453 15.244 32.689l-54.353 149.334c-3.77 10.357-13.552 16.789-23.969 16.789z" fill="url(#SVGID_4_)"/><path d="m125.991 471.308c-2.897 0-5.841-.497-8.721-1.545-13.237-4.818-20.061-19.453-15.244-32.69l45.274-124.387c4.817-13.237 19.453-20.063 32.689-15.244 13.237 4.818 20.061 19.453 15.244 32.689l-45.273 124.388c-3.769 10.356-13.551 16.789-23.969 16.789z" fill="url(#SVGID_5_)"/><path d="m276.189 19.486h-89.358c-41.848 0-79.967 24.06-97.971 61.838l-49.02 102.86h236.349z" fill="url(#SVGID_6_)"/><path d="m293.487 184.184h-65.517v-159.165c-.001-13.818 11.201-25.019 25.018-25.019h15.479c13.818 0 25.019 11.201 25.019 25.019v159.165z" fill="url(#SVGID_7_)"/><path d="m44.15 175.142 32.401-5.457h62.64c8.303 0 15.035-6.731 15.035-15.035 0-8.303-6.731-15.035-15.035-15.035h-78.11z" fill="#04b048"/><path d="m424.815 203.195h-384.974l30.91 79.844c16.793 43.377 58.522 71.97 105.036 71.97h113.082c46.514 0 88.244-28.593 105.036-71.97z" fill="url(#SVGID_8_)"/><path d="m59.688 254.464h266.047c8.303 0 15.035-6.731 15.035-15.035 0-8.303-6.731-15.035-15.035-15.035h-167.72l-113.064-7.999z" fill="#04b048"/><path d="m413.223 224.395h-361.791c-15.108 0-27.355-12.247-27.355-27.355 0-15.108 12.247-27.355 27.355-27.355h361.791c15.108 0 27.355 12.247 27.355 27.355 0 15.107-12.247 27.355-27.355 27.355z" fill="url(#SVGID_9_)"/><circle cx="125.994" cy="445.796" fill="url(#SVGID_10_)" r="56.204"/><circle cx="125.994" cy="445.796" fill="url(#SVGID_11_)" r="22.637"/><g><ellipse cx="144.442" cy="309.726" fill="#eaadcd" rx="14.936" ry="12.003"/><ellipse cx="320.213" cy="309.726" fill="#eaadcd" rx="14.936" ry="12.003"/><circle cx="170.049" cy="280.109" fill="#fff" r="29.618"/><circle cx="294.606" cy="280.109" fill="#fff" r="29.618"/><path d="m160.266 290.539c-1.222 0-2.46-.299-3.606-.929-3.63-1.996-4.955-6.556-2.959-10.186 3.279-5.963 9.544-9.668 16.349-9.668h.001c6.806 0 13.07 3.705 16.348 9.668 1.996 3.63.671 8.19-2.959 10.186-3.63 1.995-8.19.67-10.186-2.959-.94-1.71-2.554-1.895-3.204-1.895s-2.265.185-3.205 1.895c-1.366 2.483-3.932 3.888-6.579 3.888z" fill="#3b3b44"/><path d="m304.39 290.539c-2.647 0-5.213-1.404-6.579-3.888-.94-1.71-2.554-1.895-3.204-1.895s-2.264.185-3.204 1.895c-1.996 3.629-6.555 4.955-10.185 2.959s-4.955-6.556-2.959-10.186c3.278-5.963 9.543-9.668 16.348-9.668 6.806 0 13.07 3.704 16.349 9.668 1.996 3.629.671 8.19-2.959 10.186-1.147.63-2.386.929-3.607.929z" fill="#3b3b44"/><g><path d="m243.998 319.913h-23.342c-6.508 0-11.784-5.276-11.784-11.784 0-6.508 5.276-11.784 11.784-11.784h23.342c6.508 0 11.784 5.276 11.784 11.784.001 6.508-5.275 11.784-11.784 11.784z" fill="#3b3b44"/></g></g></g></svg>