<svg height="512pt" viewBox="-14 0 512 512" width="512pt" xmlns="http://www.w3.org/2000/svg"><path d="m315.804688 194.207031c34.296874-20.5625 55.582031-49.203125 55.582031-80.886719 0-62.585937-83.019531-113.320312-185.433594-113.320312-102.410156 0-185.429687 50.734375-185.429687 113.320312 0 31.683594 21.285156 60.324219 55.582031 80.886719-34.296875 33.652344-55.582031 80.515625-55.582031 132.359375 0 102.414063 83.019531 185.433594 185.429687 185.433594 102.414063 0 185.433594-83.019531 185.433594-185.433594 0-51.84375-21.285157-98.707031-55.582031-132.359375zm0 0" fill="#676f72"/><path d="m72.113281 326.566406c0-47.144531 10.066407-91.9375 28.148438-132.359375h.007812c-.003906-.003906-.003906-.003906-.003906-.003906 0-.003906 0-.007813.003906-.011719h-.015625c-17.285156-20.308594-40.4375-48.800781-43.894531-80.871094 0-35.5 12.28125-68.679687 33.585937-96.96875-53.605468 19.867188-89.421874 55.859376-89.421874 96.96875 0 31.679688 21.289062 60.308594 55.585937 80.871094-34.3125 33.648438-56.109375 80.523438-56.109375 132.375 0 80.539063 51.351562 149.078125 123.09375 174.679688-32.269531-50.425782-50.980469-110.367188-50.980469-174.679688zm0 0" fill="#4c5659"/><path d="m185.953125 164.828125c-37.757813 0-73.800781-8.789063-98.886719-24.121094-16.996094-10.382812-24.734375-21.476562-24.734375-27.386719 0-5.910156 7.742188-17.003906 24.734375-27.386718 25.085938-15.332032 61.128906-24.121094 98.886719-24.121094 37.761719 0 73.804687 8.789062 98.890625 24.121094 16.992188 10.382812 24.734375 21.476562 24.734375 27.386718 0 5.910157-7.742187 17.003907-24.734375 27.386719-25.085938 15.332031-61.128906 24.121094-98.890625 24.121094zm0 0" fill="#7ce3ff"/><path d="m168.554688 108.859375c1.460937 1.460937 3.398437 2.265625 5.460937 2.265625 2.070313 0 4.007813-.804688 5.46875-2.265625l39.953125-39.949219c1.210938-1.214844 1.964844-2.761718 2.1875-4.429687-5.765625-.875-11.648438-1.542969-17.621094-1.992188l-35.449218 35.449219c-3.007813 3.011719-3.007813 7.914062 0 10.921875zm0 0" fill="#b9f0ff"/><path d="m205.621094 123.242188c0-2.074219-.804688-4.007813-2.265625-5.472657-1.464844-1.453125-3.402344-2.253906-5.472657-2.253906-2.058593 0-3.996093.800781-5.460937 2.253906l-39.949219 39.960938c-1.214844 1.214843-1.964844 2.757812-2.1875 4.425781 5.761719.878906 11.648438 1.546875 17.617188 1.996094l35.453125-35.453125c1.460937-1.460938 2.265625-3.398438 2.265625-5.457031zm0 0" fill="#b9f0ff"/><path d="m268.371094 394.558594c-23.859375 0-43.269532-19.410156-43.269532-43.265625 0-23.859375 19.410157-43.269531 43.269532-43.269531 23.855468 0 43.265625 19.410156 43.265625 43.269531 0 23.855469-19.410157 43.265625-43.265625 43.265625zm0 0" fill="#64b3fb"/><path d="m185.953125 312.144531c-23.855469 0-43.265625-19.410156-43.265625-43.265625 0-23.859375 19.410156-43.269531 43.265625-43.269531 23.859375 0 43.269531 19.410156 43.269531 43.269531 0 23.855469-19.410156 43.265625-43.269531 43.265625zm0 0" fill="#ea5b70"/><path d="m185.953125 476.972656c-23.855469 0-43.265625-19.410156-43.265625-43.265625 0-23.859375 19.410156-43.269531 43.265625-43.269531 23.859375 0 43.269531 19.410156 43.269531 43.269531 0 23.855469-19.410156 43.265625-43.269531 43.265625zm0 0" fill="#ce857a"/><path d="m103.539062 394.558594c-23.855468 0-43.265624-19.410156-43.265624-43.265625 0-23.859375 19.410156-43.269531 43.265624-43.269531 23.859376 0 43.269532 19.410156 43.269532 43.269531 0 23.855469-19.410156 43.265625-43.269532 43.265625zm0 0" fill="#b28ae4"/><g fill="#313d40"><path d="m251.886719 343.566406c4.265625 0 7.726562 3.457032 7.726562 7.726563v10.300781c0 4.269531-3.460937 7.726562-7.726562 7.726562s-7.726563-3.457031-7.726563-7.726562v-10.300781c0-4.269531 3.460938-7.726563 7.726563-7.726563zm0 0"/><path d="m120.023438 343.566406c4.265624 0 7.726562 3.457032 7.726562 7.726563v10.300781c0 4.269531-3.460938 7.726562-7.726562 7.726562-4.265626 0-7.726563-3.457031-7.726563-7.726562v-10.300781c0-4.269531 3.460937-7.726563 7.726563-7.726563zm0 0"/><path d="m165.625 352.5625c3.847656-1.839844 8.460938-.210938 10.300781 3.636719 1.714844 3.589843 5.449219 5.910156 9.511719 5.910156s7.796875-2.320313 9.515625-5.910156c1.839844-3.847657 6.453125-5.476563 10.300781-3.636719 3.851563 1.839844 5.480469 6.453125 3.636719 10.304688-4.265625 8.925781-13.472656 14.695312-23.453125 14.695312-9.976562 0-19.183594-5.769531-23.453125-14.695312-1.839844-3.851563-.210937-8.464844 3.640625-10.304688zm0 0"/></g><path d="m436.859375 161.371094c17.066406 0 30.902344 13.835937 30.902344 30.902344v216.953124c0 16.957032-13.726563 30.90625-30.902344 30.90625s-30.90625-13.945312-30.90625-30.90625v-216.953124c-.003906-17.066407 13.835937-30.90625 30.90625-30.902344zm0 0" fill="#676f72"/><path d="m390.5 235.722656v-43.445312c-.003906-24.558594 18.941406-44.230469 42.328125-46.191406 15.855469-1.328126 30.367187 5.28125 39.707031 16.640624l-66.585937 88.449219c-8.53125 0-15.449219-6.917969-15.449219-15.453125zm0 0" fill="#ce857a"/><path d="m483.214844 235.722656c0 8.535156-6.917969 15.453125-15.453125 15.453125h-61.8125s7.859375-50.003906 66.585937-88.449219c6.648438 8.089844 10.679688 18.582032 10.679688 30.347657zm0 0" fill="#d6948c"/></svg>