<svg id="Capa_1" enable-background="new 0 0 497 497" height="512" viewBox="0 0 497 497" width="512" xmlns="http://www.w3.org/2000/svg"><g><path d="m409.496 343.487-160.996-39.099-160.995 39.099c-21.594 0-39.099 17.505-39.099 39.099 0 21.594 17.505 39.099 39.099 39.099l160.995 37.657 160.996-37.658c21.594 0 39.099-17.505 39.099-39.099-.001-21.593-17.506-39.098-39.099-39.098z" fill="#e7886e"/><path d="m110.187 337.978-22.682 5.509c-21.594 0-39.099 17.505-39.099 39.099 0 21.594 17.505 39.099 39.099 39.099l93.376 21.841c-30.538-28.992-54.864-64.989-70.694-105.548z" fill="#e27858"/><path d="m409.496 265.289h-321.991c-21.594 0-39.099 17.505-39.099 39.099 0 21.594 17.505 39.099 39.099 39.099h321.991c21.594 0 39.099-17.505 39.099-39.099-.001-21.594-17.506-39.099-39.099-39.099z" fill="#ff6f7f"/><path d="m440.596 421.685h-384.192c-13.868 0-23.951 13.172-20.33 26.559 7.782 28.773 33.888 48.756 63.695 48.756h297.463c29.807 0 55.913-19.983 63.695-48.756 3.62-13.388-6.463-26.559-20.331-26.559z" fill="#ffca8a"/><path d="m148.464 248.993 61.012 95.875c8.491 13.342 23.21 21.422 39.024 21.422 15.815 0 30.534-8.08 39.024-21.422l61.012-95.875z" fill="#f9ed80"/><path d="m91.906 265.289h-4.401c-21.594 0-39.099 17.505-39.099 39.099 0 21.594 17.505 39.099 39.099 39.099h24.893c-10.136-24.507-17.153-50.751-20.492-78.198z" fill="#fc5c70"/><path d="m407.336 192.354h-317.672c-28.15 0-50.97 22.82-50.97 50.97 0 17.88 10.173 34.202 26.226 42.077 16.542 8.115 35.909 8.115 52.452 0 16.542-8.115 35.909-8.115 52.452 0 16.542 8.115 35.909 8.115 52.452 0 16.542-8.115 35.909-8.115 52.452 0 16.542 8.115 35.909 8.115 52.452 0 16.542-8.115 35.909-8.115 52.452 0 16.542 8.115 35.909 8.115 52.452 0 16.052-7.875 26.226-24.197 26.226-42.077-.003-28.15-22.823-50.97-50.974-50.97z" fill="#60d9a7"/><path d="m89.67 228.257c0-12.157.725-24.137 2.112-35.903h-2.119c-28.15 0-50.97 22.82-50.97 50.97 0 17.88 10.173 34.202 26.226 42.077 9.837 4.826 20.672 6.758 31.319 5.844-4.288-20.285-6.568-41.357-6.568-62.988z" fill="#00cd8c"/><path d="m461.031 151.993c-6.298-50.052-40.268-151.993-212.531-151.993s-206.233 101.941-212.531 151.993c-1.917 15.238.511 30.701 6.968 44.636 13.426 28.973 42.452 47.514 74.385 47.514h262.355c31.932 0 60.959-18.541 74.385-47.514 6.458-13.935 8.886-29.397 6.969-44.636z" fill="#ffca8a"/><path d="m89.67 228.257c0-90.007 39.148-170.457 100.619-223.797-122.093 20.161-148.808 103.724-154.32 147.533-1.917 15.239.511 30.701 6.968 44.636 9.425 20.34 26.545 35.527 46.956 42.778-.133-3.701-.223-7.415-.223-11.15z" fill="#ffbe73"/><g><g><g><ellipse cx="139.784" cy="133.05" fill="#ff8997" rx="40.114" ry="31.945"/></g><g><ellipse cx="357.216" cy="133.05" fill="#ff8997" rx="40.114" ry="31.945"/></g></g></g><g><path d="m163.162 109.799c-4.143 0-7.5-3.358-7.5-7.5v-16.398c0-4.142 3.357-7.5 7.5-7.5s7.5 3.358 7.5 7.5v16.398c0 4.142-3.357 7.5-7.5 7.5z" fill="#423e4f"/></g><g><path d="m333.838 109.799c-4.143 0-7.5-3.358-7.5-7.5v-16.398c0-4.142 3.357-7.5 7.5-7.5s7.5 3.358 7.5 7.5v16.398c0 4.142-3.358 7.5-7.5 7.5z" fill="#423e4f"/></g><g><path d="m248.5 119.561c-10.79 0-21.052-4.674-28.153-12.822-2.722-3.123-2.396-7.86.727-10.582 3.121-2.721 7.859-2.396 10.582.727 4.252 4.879 10.392 7.678 16.845 7.678s12.593-2.798 16.845-7.678c2.722-3.123 7.457-3.448 10.582-.727 3.122 2.722 3.448 7.459.727 10.582-7.103 8.148-17.365 12.822-28.155 12.822z" fill="#423e4f"/></g><path d="m160.199 421.685h-103.795c-13.868 0-23.951 13.171-20.33 26.559 7.782 28.773 33.888 48.756 63.695 48.756h161.777c-39.065-16.911-73.637-42.844-101.347-75.315z" fill="#ffbe73"/></g></svg>