<?xml version="1.0" encoding="iso-8859-1"?>
<!-- Generator: Adobe Illustrator 19.0.0, SVG Export Plug-In . SVG Version: 6.00 Build 0)  -->
<svg version="1.1" id="Capa_1" xmlns="http://www.w3.org/2000/svg" xmlns:xlink="http://www.w3.org/1999/xlink" x="0px" y="0px"
	 viewBox="0 0 512 512" style="enable-background:new 0 0 512 512;" xml:space="preserve">
<path style="fill:#E5E5E5;" d="M459.008,94.038c-13.669-43.057-53.952-74.26-101.535-74.26c-55.623,0-101.263,42.641-106.077,97.013
	c-23.94,4.444-42.081,25.4-42.081,50.628c0,28.46,23.072,51.532,51.532,51.532h188.31c34.707,0,62.843-28.136,62.843-62.843
	C512,124.752,489.034,98.766,459.008,94.038z"/>
<path style="opacity:0.1;enable-background:new    ;" d="M459.008,94.038c-13.669-43.057-53.952-74.26-101.535-74.26
	c-3.597,0-7.149,0.186-10.654,0.534c42.922,4.211,78.366,33.883,91.015,73.726c30.027,4.728,52.992,30.714,52.992,62.069
	c0,34.707-28.136,62.843-62.843,62.843h21.173c34.707,0,62.843-28.136,62.843-62.843C512,124.752,489.034,98.766,459.008,94.038z"/>
<path style="fill:#E5E5E5;" d="M317.888,145.353C300.486,90.537,249.2,50.811,188.622,50.811
	c-70.815,0-128.92,54.287-135.048,123.509C23.095,179.977,0,206.657,0,238.775c0,36.233,29.373,65.607,65.606,65.607h239.741
	c44.187,0,80.007-35.821,80.007-80.007C385.354,184.455,356.116,151.372,317.888,145.353z"/>
<path style="opacity:0.1;enable-background:new    ;" d="M317.888,145.353C300.486,90.537,249.2,50.811,188.622,50.811
	c-4.579,0-9.102,0.237-13.564,0.68c54.645,5.361,99.77,43.137,115.874,93.862c38.228,6.019,67.466,39.102,67.466,79.021
	c0,44.186-35.82,80.007-80.007,80.007h26.956c44.187,0,80.007-35.821,80.007-80.007
	C385.354,184.455,356.116,151.372,317.888,145.353z"/>
<g>
	<path style="fill:#445258;" d="M106.158,198.042c-4.142,0-7.5-3.358-7.5-7.5v-13.529c0-4.142,3.358-7.5,7.5-7.5s7.5,3.358,7.5,7.5
		v13.529C113.658,194.684,110.3,198.042,106.158,198.042z"/>
	<path style="fill:#445258;" d="M185.479,223.715L185.479,223.715c-12.612,0-22.836-10.224-22.836-22.836v-16.728
		c0-3.365,2.728-6.093,6.093-6.093h33.486c3.365,0,6.093,2.728,6.093,6.093v16.728C208.315,213.491,198.091,223.715,185.479,223.715
		z"/>
	<path style="fill:#445258;" d="M264.801,198.042c-4.143,0-7.5-3.358-7.5-7.5v-13.529c0-4.142,3.357-7.5,7.5-7.5s7.5,3.358,7.5,7.5
		v13.529C272.301,194.684,268.943,198.042,264.801,198.042z"/>
</g>
<path style="fill:#69BFE2;" d="M109.936,340.921c2.404-2.884,6.822-2.884,9.226,0c7.967,9.559,23.461,30.409,23.461,47.996
	c0,15.505-12.569,28.074-28.074,28.074s-28.074-12.569-28.074-28.074C86.475,371.33,101.969,350.48,109.936,340.921z"/>
<path style="opacity:0.1;enable-background:new    ;" d="M119.162,340.921c-1.481-1.777-3.725-2.455-5.793-2.043
	c8.227,10.747,19.212,27.868,19.212,42.677c0,15.505-12.569,28.074-28.074,28.074c-3.961,0-7.728-0.824-11.145-2.304
	c5.147,5.919,12.727,9.666,21.186,9.666c15.505,0,28.074-12.569,28.074-28.074C142.623,371.33,127.129,350.48,119.162,340.921z"/>
<g>
	<path style="fill:#69BFE2;" d="M215.383,416.152c2.404-2.884,6.822-2.884,9.226,0c7.967,9.559,23.461,30.409,23.461,47.996
		c0,15.505-12.569,28.074-28.074,28.074s-28.074-12.569-28.074-28.074C191.922,446.561,207.416,425.711,215.383,416.152z"/>
	<path style="fill:#69BFE2;" d="M298.664,338.664c2.404-2.884,6.822-2.884,9.226,0c7.967,9.559,23.461,30.409,23.461,47.996
		c0,15.505-12.569,28.074-28.074,28.074s-28.074-12.569-28.074-28.074C275.203,369.073,290.697,348.222,298.664,338.664z"/>
	<path style="fill:#69BFE2;" d="M400.239,390.424c2.404-2.884,6.822-2.884,9.226,0c7.967,9.559,23.461,30.409,23.461,47.996
		c0,15.505-12.569,28.074-28.074,28.074s-28.074-12.569-28.074-28.074C376.778,420.833,392.272,399.983,400.239,390.424z"/>
</g>
<path style="opacity:0.1;enable-background:new    ;" d="M224.608,416.152c-1.481-1.777-3.725-2.455-5.793-2.043
	c8.227,10.747,19.212,27.868,19.212,42.677c0,15.505-12.569,28.074-28.074,28.074c-3.961,0-7.728-0.824-11.145-2.304
	c5.147,5.919,12.727,9.666,21.186,9.666c15.505,0,28.074-12.569,28.074-28.074C248.069,446.561,232.575,425.711,224.608,416.152z"/>
<path style="opacity:0.1;enable-background:new    ;" d="M307.89,338.664c-1.481-1.777-3.725-2.455-5.793-2.043
	c8.227,10.747,19.212,27.868,19.212,42.677c0,15.505-12.569,28.074-28.074,28.074c-3.961,0-7.728-0.824-11.145-2.304
	c5.147,5.919,12.727,9.666,21.186,9.666c15.505,0,28.074-12.569,28.074-28.074C331.351,369.073,315.857,348.222,307.89,338.664z"/>
<path style="opacity:0.1;enable-background:new    ;" d="M409.464,390.424c-1.481-1.777-3.725-2.455-5.793-2.043
	c8.227,10.747,19.212,27.868,19.212,42.677c0,15.505-12.569,28.074-28.074,28.074c-3.961,0-7.728-0.824-11.145-2.304
	c5.147,5.919,12.727,9.666,21.186,9.666c15.505,0,28.074-12.569,28.074-28.074C432.925,420.833,417.431,399.983,409.464,390.424z"/>
<g>
</g>
<g>
</g>
<g>
</g>
<g>
</g>
<g>
</g>
<g>
</g>
<g>
</g>
<g>
</g>
<g>
</g>
<g>
</g>
<g>
</g>
<g>
</g>
<g>
</g>
<g>
</g>
<g>
</g>
</svg>
