<svg id="Capa_1" enable-background="new 0 0 497 497" height="512" viewBox="0 0 497 497" width="512" xmlns="http://www.w3.org/2000/svg"><g><g fill="#ffc8e5"><path d="m358.659 27.308-30.906 6.059c.025.132 2.502 13.351.965 30.152-1.932 21.125-9.013 37.938-21.045 49.97-6.15 6.15-6.15 16.12 0 22.27s16.12 6.15 22.27 0c41.393-41.394 29.253-105.733 28.716-108.451z"/><path d="m361.242 167.057c-6.15 6.15-6.15 16.12 0 22.27s16.12 6.15 22.27 0c12.032-12.032 28.845-19.113 49.97-21.045 16.801-1.537 30.02.94 30.152.965l6.059-30.906c-2.719-.537-67.058-12.677-108.451 28.716z"/><path d="m169.859.994c-62.229.007-112.678 50.456-112.685 112.685.007 14.512 2.747 28.386 7.75 41.125-12.367 5.152-23.955 12.746-34.013 22.804-41.214 41.214-41.214 108.038 0 149.252 21.26 21.26 49.335 31.549 77.194 30.873l116.672-85.51 57.603-164.735c-3.229-59.349-52.371-106.487-112.521-106.494z"/></g><path d="m213.715 65.101c-11.165-10.11-25.603-16.071-40.642-16.784-19.59-.928-38.111 6.666-51.384 21.067-10.823 11.744-16.992 27.177-17.259 43.151-.074 4.335.275 8.604 1.017 12.79.75 4.179 1.908 8.262 3.459 12.234 9.383 23.932-2.086 50.975-25.818 60.856l-.007.007c-7.015 2.917-13.325 7.149-18.766 12.59-22.529 22.53-22.723 59.067-.579 81.849 11.328 11.654 26.575 17.563 41.845 17.571l117.193-36.205 11.118-147.038c.928-4.387 1.403-8.9 1.41-13.51 0-18.588-7.698-35.996-21.587-48.578z" fill="#ffb3dd"/><path d="m389.512 214.62-164.735 57.603-85.51 116.672c-.676 27.859 9.613 55.934 30.873 77.194 41.214 41.214 108.038 41.214 149.252 0 10.058-10.058 17.652-21.646 22.804-34.013 12.738 5.003 26.612 7.742 41.125 7.75 62.229-.007 112.677-50.456 112.685-112.685-.007-60.15-47.145-109.292-106.494-112.521z" fill="#ffc8e5"/><path d="m418.996 220.225c-9.344-3.118-19.231-5.047-29.484-5.605l-164.735 57.604-85.51 116.672c-.269 11.104 1.209 22.239 4.423 32.966 7.175 1.676 14.627 2.555 22.25 2.555 27.769 0 55.4-11.705 75.81-32.114 15.212-15.213 29.614-38.289 39.456-62.278 3.997.379 8.021.569 12.063.569h.007c33.881 0 65.739-13.197 89.699-37.156 20.536-20.538 32.537-46.422 36.021-73.213z" fill="#ffb3dd"/><path d="m448.683 323.927c-.713-15.039-6.674-29.478-16.784-40.642-12.582-13.889-29.99-21.587-48.578-21.587-4.61.007-9.123.482-13.51 1.41l-147.038 11.118-36.205 117.193c.007 15.27 5.916 30.517 17.571 41.845 22.782 22.143 59.319 21.951 81.849-.579 5.441-5.441 9.672-11.751 12.59-18.766l.007-.007c9.88-23.732 36.923-35.201 60.856-25.818 3.971 1.551 8.054 2.71 12.233 3.459 4.187.742 8.455 1.091 12.79 1.017 15.975-.267 31.408-6.436 43.151-17.259 14.402-13.273 21.996-31.794 21.068-51.384z" fill="#ffb3dd"/><path d="m404.294 265.131c-6.67-2.249-13.729-3.433-20.972-3.433-4.61.008-9.123.483-13.51 1.411l-147.038 11.118-36.205 117.192c.005 10.041 2.578 20.064 7.642 28.977 17.623-5.046 34.138-14.694 47.539-28.095 15.212-15.213 29.614-38.289 39.456-62.278 3.997.379 8.021.569 12.063.569h.007c33.881 0 65.739-13.197 89.699-37.156 8.604-8.604 15.708-18.149 21.319-28.305z" fill="#ff9dd3"/><path d="m254.551 242.448c-26.13-26.13-99.67 5.046-128.64 34.015-28.969 28.97-31.271 73.637-5.141 99.767s70.797 23.828 99.766-5.142c28.97-28.969 60.145-102.51 34.015-128.64z" fill="#bc9bdd"/><circle cx="293.269" cy="203.731" fill="#f9f097" r="96.862"/><circle cx="169.861" cy="113.679" fill="#f9f097" r="24.965"/><ellipse cx="97.84" cy="241.703" fill="#f9f097" rx="16.681" ry="16.681" transform="matrix(.707 -.707 .707 .707 -142.253 139.976)"/><circle cx="343.21" cy="30.359" fill="#bc9bdd" r="30.359"/><path d="m341.743 41.826c-11.456-11.456-11.84-29.788-1.157-41.708-6.873.593-13.583 3.514-18.843 8.773-11.856 11.856-11.856 31.078 0 42.934s31.078 11.856 42.934 0c.4-.4.784-.81 1.157-1.227-8.619.745-17.495-2.176-24.091-8.772z" fill="#b08bd7"/><ellipse cx="383.321" cy="327.139" fill="#f9f097" rx="24.965" ry="24.965" transform="matrix(.383 -.924 .924 .383 -65.607 556.091)"/><ellipse cx="255.297" cy="399.16" fill="#f9f097" rx="16.681" ry="16.681" transform="matrix(.973 -.23 .23 .973 -84.879 69.333)"/><circle cx="466.641" cy="153.79" fill="#bc9bdd" r="30.359"/><path d="m465.174 165.257c-11.456-11.456-11.84-29.788-1.157-41.708-6.873.593-13.583 3.514-18.843 8.773-11.856 11.856-11.856 31.079 0 42.935s31.078 11.856 42.934 0c.4-.4.784-.81 1.157-1.227-8.619.744-17.495-2.177-24.091-8.773z" fill="#b08bd7"/><g><g><path d="m246.465 166.946c-2.929-2.929-2.929-7.678 0-10.607l8.031-8.031c2.93-2.929 7.678-2.929 10.607 0s2.929 7.678 0 10.607l-8.031 8.031c-2.929 2.929-7.678 2.929-10.607 0z" fill="#423e4f"/></g><g><path d="m330.054 250.535c-2.929-2.929-2.929-7.678 0-10.607l8.031-8.031c2.93-2.929 7.678-2.929 10.607 0s2.929 7.678 0 10.607l-8.031 8.031c-2.929 2.929-7.678 2.929-10.607 0z" fill="#423e4f"/></g><g><path d="m283.478 213.521c-5.756-5.756-8.736-13.723-8.178-21.856.285-4.132 3.849-7.254 7.997-6.968 4.132.284 7.252 3.864 6.968 7.997-.262 3.806 1.131 7.532 3.82 10.221s6.415 4.08 10.222 3.82c4.133-.282 7.713 2.836 7.996 6.969.284 4.132-2.836 7.712-6.969 7.996-8.122.557-16.091-2.415-21.856-8.179z" fill="#423e4f"/></g></g><path d="m147.989 336.566c0-41.752 21.002-78.595 53.013-100.556-28.204 7.059-58.743 24.106-75.09 40.454-28.97 28.969-31.272 73.636-5.142 99.766 11.354 11.354 26.208 17.332 41.753 18.095-9.27-17.19-14.534-36.859-14.534-57.759z" fill="#b08bd7"/><path d="m224.268 216.452c0-45.501 23.243-85.569 58.5-108.994-21.182 2.297-41.753 11.543-57.991 27.781-37.827 37.827-37.827 99.157 0 136.984 10.498 10.498 22.81 18.071 35.925 22.742-20.919-21.865-36.434-49.05-36.434-78.513z" fill="#f9d888"/></g></svg>