<?xml version="1.0" encoding="iso-8859-1"?>
<!-- Generator: Adobe Illustrator 19.0.0, SVG Export Plug-In . SVG Version: 6.00 Build 0)  -->
<svg version="1.1" id="Capa_1" xmlns="http://www.w3.org/2000/svg" xmlns:xlink="http://www.w3.org/1999/xlink" x="0px" y="0px"
	 viewBox="0 0 512 512" style="enable-background:new 0 0 512 512;" xml:space="preserve">
<path style="fill:#FFCD38;" d="M122.677,316.517c0,0-151.527,32.726-117.772,190.589l-0.01-0.01
	c157.863,33.756,190.589-117.772,190.589-117.772l6.228-77.88L122.677,316.517z"/>
<path style="fill:#DA5B65;" d="M136.755,330.596c0,0-80.092,39.08-68.282,112.944c73.863,11.81,112.944-68.283,112.944-68.283
	l-0.058-44.603L136.755,330.596z"/>
<g>
	<path style="fill:#EFEDEE;" d="M256.045,46.431c0-20.881-16.927-37.809-37.809-37.809c-9.719,0-18.579,3.671-25.277,9.697
		c-9.345-9.84-22.543-15.986-37.185-15.986c-28.134,0-50.966,22.655-51.274,50.716c-6.079-4.172-13.436-6.618-21.366-6.618
		c-20.881,0-37.809,16.927-37.809,37.809c0,20.881,16.928,37.809,37.809,37.809h172.872V48.008
		C256.026,47.484,256.045,46.96,256.045,46.431z"/>
	<path style="fill:#EFEDEE;" d="M470.173,336.091c-3.203,0-6.314,0.388-9.297,1.103c0.715-2.983,1.103-6.095,1.103-9.297
		c0-21.976-17.815-39.79-39.791-39.79c-10.491,0-20.028,4.067-27.136,10.702l-131.423,51.827v65.036h206.544
		c21.976,0,39.79-17.815,39.79-39.79C509.963,353.905,492.149,336.091,470.173,336.091z"/>
</g>
<path style="fill:#DA5B65;" d="M510.163,29.951c-1.522-14.855-13.258-26.592-28.114-28.114
	c-36.166-3.685-107.368-4.949-179.849,27.652l69.724,110.588l110.588,69.724C515.112,137.318,513.848,66.116,510.163,29.951z"/>
<path style="fill:#C0344A;" d="M510.163,29.951c-1.522-14.855-13.258-26.592-28.114-28.114c-0.824-0.084-1.686-0.165-2.546-0.246
	c3.478,36.885,3.96,106.473-27.897,177.302l-91.633-57.773l11.951,18.954l110.588,69.723
	C515.112,137.318,513.848,66.115,510.163,29.951z"/>
<g>
	<path style="fill:#DA5B65;" d="M144.778,213.605l-82.426,3.982c-1.149,0.068-2.154,0.792-2.583,1.861l-29.754,74.159
		c-1.204,3.001,2.573,5.495,4.86,3.209l38.129-38.129c0.76-0.76,1.873-1.051,2.908-0.759l53.79,15.161L144.778,213.605z"/>
	<path style="fill:#DA5B65;" d="M298.395,367.223l-3.982,82.426c-0.068,1.149-0.792,2.154-1.861,2.583l-74.159,29.754
		c-3.001,1.204-5.495-2.573-3.209-4.86l38.129-38.129c0.76-0.76,1.051-1.873,0.759-2.908l-15.161-53.79L298.395,367.223z"/>
</g>
<path style="fill:#D4D2D3;" d="M482.511,209.8L302.201,29.489c-74.59,33.545-150.519,102.96-190.962,242.532
	c-4.58,15.806-0.198,32.86,11.438,44.496l72.806,72.806c11.637,11.637,28.689,16.018,44.496,11.438
	C379.551,360.318,448.967,284.39,482.511,209.8z"/>
<path style="fill:#BAB8B9;" d="M451.606,178.894c-33.545,74.589-102.96,150.519-242.532,190.962
	c-15.806,4.58-32.86,0.198-44.496-11.438l30.905,30.905c11.637,11.637,28.689,16.018,44.496,11.438
	C379.551,360.318,448.967,284.389,482.511,209.8L451.606,178.894z"/>
<circle style="fill:#DA5B65;" cx="284.897" cy="227.104" r="88.822"/>
<circle style="fill:#51D7F7;" cx="284.897" cy="227.104" r="60.4"/>
<g>
	<path style="fill:#3A484A;" d="M262.411,209.515c-1.977,0-3.955-0.754-5.463-2.262c-3.018-3.017-3.018-7.909-0.001-10.927
		l4.325-4.326c3.018-3.017,7.911-3.017,10.926-0.001c3.018,3.017,3.018,7.909,0.001,10.927l-4.325,4.326
		C266.366,208.761,264.388,209.515,262.411,209.515z"/>
	<path style="fill:#3A484A;" d="M310.21,257.316c-1.978,0-3.955-0.754-5.464-2.263c-3.017-3.017-3.017-7.91,0.001-10.927
		l4.326-4.326c3.017-3.017,7.91-3.016,10.926,0.001c3.017,3.017,3.017,7.91-0.001,10.927l-4.326,4.326
		C314.165,256.562,312.187,257.316,310.21,257.316z"/>
	<path style="fill:#3A484A;" d="M292.713,240.682c-5.569,0-10.994-2.265-15.061-6.333c-4.402-4.401-6.694-10.392-6.288-16.437
		c0.286-4.258,4.013-7.475,8.227-7.191c4.258,0.286,7.477,3.97,7.191,8.227c-0.107,1.595,0.547,3.224,1.795,4.473
		c1.249,1.249,2.891,1.903,4.474,1.796c4.241-0.285,7.941,2.934,8.227,7.192c0.285,4.258-2.934,7.941-7.191,8.227
		C293.629,240.667,293.169,240.682,292.713,240.682z"/>
</g>
<g>
</g>
<g>
</g>
<g>
</g>
<g>
</g>
<g>
</g>
<g>
</g>
<g>
</g>
<g>
</g>
<g>
</g>
<g>
</g>
<g>
</g>
<g>
</g>
<g>
</g>
<g>
</g>
<g>
</g>
</svg>
