<svg height="511pt" viewBox="0 -10 511.99935 511" width="511pt" xmlns="http://www.w3.org/2000/svg"><path d="m291.667969 118.929688c-10.175781 0-18.425781-8.25-18.425781-18.429688v-47.914062c0-8.402344-6.835938-15.234376-15.230469-15.234376h-76.941407c-8.398437 0-15.230468 6.832032-15.230468 15.234376v47.914062c0 10.179688-8.25 18.429688-18.429688 18.429688-10.175781 0-18.425781-8.25-18.425781-18.429688v-47.914062c0-28.722657 23.367187-52.085938 52.085937-52.085938h76.9375c28.71875 0 52.085938 23.363281 52.085938 52.085938v47.914062c0 10.175781-8.25 18.429688-18.425781 18.429688zm0 0" fill="#ffe967"/><path d="m439.082031 118.800781v304.957031h-384.570312c-30.105469 0-54.511719-24.40625-54.511719-54.511718v-250.445313zm0 0" fill="#cc8476"/><path d="m439.082031 118.800781h-439.082031v99.109375c31.558594 45.667969 84.265625 75.648438 143.855469 75.648438h151.371093c59.589844 0 112.296876-29.984375 143.855469-75.648438zm0 0" fill="#cd654e"/><path d="m165.839844 100.5v-47.914062c0-.660157.054687-1.304688.136718-1.941407h-36.941406c-.023437.644531-.050781 1.289063-.050781 1.941407v47.914062c0 10.179688 8.25 18.429688 18.429687 18.429688 10.175782 0 18.425782-8.253907 18.425782-18.429688zm0 0" fill="#ffb44f"/><path d="m310.09375 100.5v-47.914062c0-.652344-.023438-1.296876-.046875-1.941407h-36.945313c.082032.636719.140626 1.28125.140626 1.941407v47.914062c0 10.179688 8.25 18.429688 18.425781 18.429688s18.425781-8.253907 18.425781-18.429688zm0 0" fill="#ffb44f"/><path d="m439.082031 118.800781c0 79.445313-64.410156 143.855469-143.855469 143.855469h-151.371093c-79.445313 0-143.855469-64.410156-143.855469-143.855469 0-20.574219 16.679688-37.253906 37.253906-37.253906h364.574219c20.574219 0 37.253906 16.679687 37.253906 37.253906zm0 0" fill="#cc8476"/><path d="m131.96875 178.257812c-4.269531 0-7.726562-3.460937-7.726562-7.726562v-15.847656c0-4.269532 3.457031-7.726563 7.726562-7.726563 4.265625 0 7.726562 3.457031 7.726562 7.726563v15.847656c0 4.265625-3.460937 7.726562-7.726562 7.726562zm0 0" fill="#2d3c50"/><path d="m307.113281 178.257812c-4.265625 0-7.726562-3.460937-7.726562-7.726562v-15.847656c0-4.269532 3.460937-7.726563 7.726562-7.726563s7.726563 3.457031 7.726563 7.726563v15.847656c0 4.265625-3.457032 7.726562-7.726563 7.726562zm0 0" fill="#2d3c50"/><path d="m219.539062 186.71875c-10.652343 0-20.648437-4.449219-27.429687-12.203125-2.808594-3.214844-2.480469-8.09375.730469-10.902344 3.210937-2.808593 8.09375-2.484375 10.902344.730469 3.847656 4.398438 9.605468 6.921875 15.796874 6.921875 6.195313 0 11.953126-2.523437 15.796876-6.921875 2.8125-3.214844 7.691406-3.539062 10.902343-.734375 3.214844 2.808594 3.542969 7.691406.734375 10.902344-6.78125 7.757812-16.777344 12.207031-27.433594 12.207031zm0 0" fill="#2d3c50"/><g fill="#ffe967"><path d="m122.421875 231.066406h-13.996094c-7.984375 0-14.460937 6.476563-14.460937 14.460938v34.253906c0 7.988281 6.476562 14.460938 14.460937 14.460938h13.996094c7.984375 0 14.460937-6.472657 14.460937-14.460938v-34.253906c0-7.984375-6.472656-14.460938-14.460937-14.460938zm0 0"/><path d="m316.660156 231.066406h13.992188c7.988281 0 14.460937 6.476563 14.460937 14.460938v34.253906c0 7.988281-6.472656 14.460938-14.460937 14.460938h-13.992188c-7.988281 0-14.460937-6.472657-14.460937-14.460938v-34.253906c0-7.984375 6.472656-14.460938 14.460937-14.460938zm0 0"/><path d="m507.953125 392.378906c7.921875-7.71875 3.550781-21.171875-7.394531-22.765625l-41.816406-6.074219c-4.347657-.632812-8.105469-3.363281-10.050782-7.300781l-18.699218-37.894531c-4.898438-9.917969-19.042969-9.917969-23.9375 0l-18.703126 37.894531c-1.941406 3.9375-5.703124 6.667969-10.046874 7.300781l-41.820313 6.074219c-10.945313 1.59375-15.316406 15.046875-7.394531 22.765625l30.257812 29.496094c3.144532 3.066406 4.582032 7.484375 3.839844 11.8125l-7.144531 41.648438c-1.867188 10.902343 9.574219 19.21875 19.367187 14.070312l37.402344-19.664062c3.886719-2.042969 8.53125-2.042969 12.421875 0l37.402344 19.664062c9.789062 5.148438 21.234375-3.167969 19.363281-14.070312l-7.140625-41.648438c-.746094-4.328125.691406-8.746094 3.835937-11.8125zm0 0"/></g></svg>