<svg id="Capa_1" enable-background="new 0 0 512 512" height="512" viewBox="0 0 512 512" width="512" xmlns="http://www.w3.org/2000/svg"><g><g><path d="m152.982 130.795v-38.079c0-17.069-13.837-30.905-30.905-30.905-17.069 0-30.905 13.837-30.905 30.905v38.079c0 45.516 36.898 82.414 82.414 82.414h82.414v-61.811h-82.414c-11.38.001-20.604-9.224-20.604-20.603z" fill="#60d9a7"/></g><g><path d="m256 151.399h-82.414c-4.422 0-8.509-1.406-11.866-3.778 9.869 12.336 9.093 30.382-2.339 41.814-10.512 10.512-26.616 12.01-38.732 4.51 14.321 12.017 32.779 19.264 52.937 19.264h82.414z" fill="#00c680"/></g><g><path d="m359.018 103.018v58.72c0 11.379-9.225 20.604-20.604 20.604h-82.217v82.414h82.217c56.895 0 103.018-46.123 103.018-103.018v-58.72c0-22.758-18.449-41.207-41.207-41.207-22.758 0-41.207 18.449-41.207 41.207z" fill="#60d9a7"/></g><g><path d="m352.619 234.947c-15.412-15.412-16.236-39.876-2.493-56.268-3.327 2.304-7.359 3.662-11.712 3.662h-82.217v82.414h82.217c25.381 0 48.613-9.184 66.568-24.403-16.185 10.625-38.134 8.825-52.363-5.405z" fill="#00c680"/></g><g><path d="m224.064 174.805h-50.479c-24.267 0-44.009-19.743-44.009-44.01v-68.063c-2.402-.599-4.913-.921-7.5-.921-2.587 0-5.098.323-7.5.921v68.063c0 32.538 26.472 59.01 59.009 59.01h50.479c4.142 0 7.5-3.357 7.5-7.5s-3.357-7.5-7.5-7.5z" fill="#00a45b"/></g><g><path d="m400.225 61.811c-2.563 0-5.067.246-7.5.694v99.234c0 29.947-24.364 54.312-54.311 54.312h-50.479c-4.142 0-7.5 3.357-7.5 7.5s3.358 7.5 7.5 7.5h50.479c38.218 0 69.311-31.093 69.311-69.312v-99.235c-2.433-.447-4.937-.693-7.5-.693z" fill="#00a45b"/></g><g><path d="m256 0c-34.137 0-61.811 27.674-61.811 61.811v264.757h123.622v-264.757c0-34.137-27.674-61.811-61.811-61.811z" fill="#60d9a7"/></g><g><path d="m235.581 342.912c-4.142 0-7.5-3.357-7.5-7.5v-273.601c0-47.719 23.513-60.256 24.514-60.766 2.123-1.084 4.634-1.092 6.766-.024 1.018.51 24.928 13.034 24.928 60.79v103.152c0 4.143-3.358 7.5-7.5 7.5s-7.5-3.357-7.5-7.5v-103.152c0-26.968-8.309-39.484-13.187-44.504-4.829 5.129-13.021 17.772-13.021 44.504v273.602c0 4.142-3.358 7.499-7.5 7.499z" fill="#00a45b"/></g><g><path d="m276.788 342.912c-4.142 0-7.5-3.357-7.5-7.5v-139.544c0-4.143 3.358-7.5 7.5-7.5s7.5 3.357 7.5 7.5v139.544c0 4.143-3.358 7.5-7.5 7.5z" fill="#00a45b"/></g><g><path d="m379.602 476.428 20.69-149.861h-288.583l20.69 149.861c2.815 20.387 20.24 35.572 40.82 35.572h165.563c20.58 0 38.005-15.185 40.82-35.572z" fill="#d87c41"/></g><g><path d="m235.417 476.428-20.69-149.861h-103.018l20.69 149.861c2.815 20.387 20.24 35.572 40.82 35.572h103.018c-20.581 0-38.006-15.185-40.82-35.572z" fill="#c66d33"/></g><g><path d="m420.829 347.171h-329.658c-11.379 0-20.604-9.225-20.604-20.604 0-11.379 9.225-20.604 20.604-20.604h329.658c11.379 0 20.604 9.225 20.604 20.604 0 11.379-9.225 20.604-20.604 20.604z" fill="#e3996d"/></g><g><path d="m173.586 326.567c0-11.379 9.225-20.604 20.604-20.604h-103.019c-11.379 0-20.604 9.225-20.604 20.604s9.225 20.604 20.604 20.604h103.018c-11.379 0-20.603-9.224-20.603-20.604z" fill="#d87c41"/></g><g><g><path d="m191.667 408.24c-4.142 0-7.5-3.357-7.5-7.5v-12.362c0-4.143 3.358-7.5 7.5-7.5s7.5 3.357 7.5 7.5v12.362c0 4.143-3.358 7.5-7.5 7.5z" fill="#303746"/></g><g><path d="m320.333 408.24c-4.142 0-7.5-3.357-7.5-7.5v-12.362c0-4.143 3.358-7.5 7.5-7.5s7.5 3.357 7.5 7.5v12.362c0 4.143-3.357 7.5-7.5 7.5z" fill="#303746"/></g><g><path d="m256 415.6c-8.668 0-16.911-3.754-22.615-10.3-2.721-3.123-2.396-7.86.727-10.582s7.86-2.395 10.582.727c2.855 3.276 6.976 5.155 11.307 5.155s8.452-1.879 11.308-5.155c2.721-3.123 7.458-3.447 10.582-.727 3.123 2.722 3.448 7.459.726 10.582-5.706 6.546-13.95 10.3-22.617 10.3z" fill="#303746"/></g></g></g></svg>