<svg id="Capa_1" enable-background="new 0 0 512 512" height="512" viewBox="0 0 512 512" width="512" xmlns="http://www.w3.org/2000/svg"><g><g><path d="m349.636 85.69v197.959c0 37.453 30.362 67.814 67.814 67.814 44.331 0 80.268 35.937 80.268 80.268 0 44.331-35.937 80.268-80.268 80.268h-208.223c-84.003 0-152.1-68.098-152.1-152.1v-274.209z" fill="#dceefe"/></g><g><path d="m149.285 359.9v-274.21h-92.158v274.21c0 84.003 68.098 152.1 152.1 152.1h92.158c-84.002 0-152.1-68.098-152.1-152.1z" fill="#c4e2fe"/></g><g><path d="m41.094 75.799v95.582c0 29.876 24.219 54.096 54.096 54.096 29.876 0 54.096-24.219 54.096-54.096 0 29.876 24.22 54.096 54.096 54.096 29.876 0 54.096-24.219 54.096-54.096 0 29.876 24.22 54.096 54.096 54.096 29.876 0 54.096-24.219 54.096-54.096v-95.582z" fill="#b0d8fd"/></g><g><g><path d="m203.381 171.381v-95.582h-162.287v95.582c0 29.876 24.219 54.096 54.096 54.096 29.876 0 54.096-24.219 54.096-54.096 0 29.876 24.22 54.096 54.096 54.096 9.857 0 19.089-2.649 27.048-7.255-16.165-9.355-27.049-26.822-27.049-46.841z" fill="#9ccefd"/></g></g><g><path d="m392.481 28.563c0-15.775-12.788-28.563-28.564-28.563h-321.072c-15.775 0-28.563 12.788-28.563 28.563 0 7.324 2.757 14.005 7.289 19.06 4.799 5.353 4.799 13.654 0 19.007-4.532 5.056-7.289 11.736-7.289 19.06 0 15.775 12.788 28.563 28.563 28.563h321.072c15.775 0 28.563-12.788 28.563-28.563 0-7.324-2.757-14.004-7.289-19.06-4.799-5.353-4.799-13.654 0-19.007 4.533-5.055 7.29-11.735 7.29-19.06z" fill="#dceefe"/></g><g><path d="m164.388 66.63c4.799-5.353 4.799-13.654 0-19.007-4.532-5.056-7.289-11.736-7.289-19.06 0-15.775 12.788-28.563 28.563-28.563h-142.132c-15.488 0-28.679 12.043-29.23 27.522-.277 7.778 2.558 14.893 7.357 20.198 4.804 5.311 4.804 13.504 0 18.815-4.799 5.305-7.634 12.42-7.357 20.198.55 15.478 13.741 27.522 29.229 27.522h142.133c-15.775 0-28.563-12.788-28.563-28.563 0-7.326 2.757-14.006 7.289-19.062z" fill="#c4e2fe"/></g><g><path d="m84.547 332.479h-27.42v27.42c0 84.003 68.098 152.1 152.1 152.1h27.42v-27.42c0-84.002-68.097-152.1-152.1-152.1z" fill="#c4e2fe"/></g><g><path d="m149.285 359.9v-12.983c-19.644-9.254-41.584-14.437-64.738-14.437h-27.42v27.42c0 84.003 68.098 152.1 152.1 152.1h27.42v-14.437c-51.625-24.32-87.362-76.814-87.362-137.663z" fill="#b0d8fd"/></g><g><g><g><ellipse cx="121.424" cy="62.858" fill="#fda0c1" rx="30.241" ry="24.082"/></g><g><ellipse cx="285.339" cy="62.858" fill="#fda0c1" rx="30.241" ry="24.082"/></g></g><g><path d="m139.048 47.176c-4.143 0-7.5-3.357-7.5-7.5v-12.363c0-4.143 3.357-7.5 7.5-7.5s7.5 3.357 7.5 7.5v12.362c0 4.143-3.358 7.501-7.5 7.501z" fill="#6e6e6e"/></g><g><path d="m267.715 47.176c-4.143 0-7.5-3.357-7.5-7.5v-12.363c0-4.143 3.357-7.5 7.5-7.5s7.5 3.357 7.5 7.5v12.362c0 4.143-3.358 7.501-7.5 7.501z" fill="#6e6e6e"/></g><g><path d="m203.381 54.534c-8.669 0-16.911-3.754-22.615-10.299-2.722-3.123-2.396-7.86.727-10.582 3.122-2.721 7.859-2.396 10.582.727 2.854 3.275 6.976 5.154 11.307 5.154 4.332 0 8.453-1.879 11.308-5.154 2.722-3.122 7.458-3.447 10.582-.727 3.122 2.722 3.448 7.459.727 10.582-5.706 6.545-13.949 10.299-22.618 10.299z" fill="#6e6e6e"/></g></g></g></svg>