<svg id="Capa_1" enable-background="new 0 0 512 512" height="512" viewBox="0 0 512 512" width="512" xmlns="http://www.w3.org/2000/svg"><g><path d="m312.802 92.34h41.356v86.365h-41.356z" fill="#daa985"/><path d="m312.802 92.34h41.356v30.906h-41.356z" fill="#d2896f"/><path d="m407.079 92.34c11.31 0 19.452-11.173 15.642-21.822-11.385-31.821-47.03-55.041-89.241-55.041-41.982 0-77.469 22.968-89.054 54.523-3.977 10.835 3.923 22.339 15.464 22.339h147.189z" fill="#ceeafb"/><path d="m366.602 92.34c0-40.107-15.972-62.855-33.122-76.863-17.15 14.007-33.122 36.756-33.122 76.863z" fill="#a3defe"/><path d="m174.101 179.376h-42.839v-96.236c0-7.777-3.028-15.088-8.527-20.586l-28.897-28.897c-4.487-4.487-4.487-11.762 0-16.25l14.042-14.042c4.487-4.487 11.762-4.487 16.25 0l28.896 28.897c13.494 13.494 21.075 31.795 21.075 50.879z" fill="#b0ade2"/><path d="m122.735 62.554c5.499 5.498 8.527 12.81 8.527 20.586h42.839c0-19.083-7.581-37.385-21.075-50.879z" fill="#a78cd6"/><path d="m432.613 269.088 28.769-65.731c-3.419-10.683-9.796-24.551-18.687-36.517-7.364-9.911-19.107-15.608-31.454-15.608h-310.482c-12.348 0-24.09 5.697-31.454 15.608-8.891 11.965-15.268 25.834-18.687 36.517l28.769 65.731z" fill="#fbf1cf"/><path d="m160.953 151.231h-60.194c-12.348 0-24.09 5.697-31.454 15.608-8.891 11.965-15.268 25.834-18.687 36.517l28.768 65.732h97.909c-26.618-37.501-27.479-86.468-16.342-117.857z" fill="#fae0bd"/><path d="m269.318 204.863 28.83 17.345c9.38 5.644 21.299 4.762 29.747-2.199l14.702-12.114c8.224-6.777 19.765-7.808 29.061-2.597l26.419 14.809c8.574 4.806 19.132 4.331 27.239-1.226l23.077-15.818c7.429-5.092 17.644-2.1 21.181 6.182 8.055 18.86 13.593 41.468 13.593 73.643 0 101.886-60.737 184.481-227.167 184.481s-227.167-82.594-227.167-184.481c0-32.175 5.539-54.783 13.593-73.643 3.537-8.283 13.752-11.274 21.181-6.182l23.077 15.818c8.107 5.557 18.665 6.032 27.239 1.226l26.419-14.809c9.296-5.211 20.837-4.179 29.061 2.597l14.702 12.114c8.448 6.961 20.367 7.842 29.747 2.199l28.83-17.345c8.194-4.93 18.442-4.93 26.636 0z" fill="#bce098"/><path d="m463.548 371.688c-1.829-.632-3.686-1.187-5.573-1.65-6.73-27.429-31.607-48.611-62.128-48.611-30.192 0-55.245 20.788-62.085 48.601-11.23 2.747-21.533 8.518-29.918 16.902-21.352 21.352-24.409 54.16-9.203 78.814 90.052-7.866 143.08-43.829 168.907-94.056z" fill="#99da90"/><path d="m159.414 202.826c-6.31-1.623-13.146-.85-19.072 2.472l-26.419 14.809c-8.574 4.806-19.132 4.331-27.239-1.226l-23.077-15.818c-7.429-5.092-17.644-2.1-21.181 6.182-8.055 18.86-13.593 41.468-13.593 73.643 0 95.449 53.308 173.965 196.88 183.506-80.766-35.231-88.608-185.358-66.299-263.568z" fill="#99da90"/><g><path d="m419.23 408.783c12.914-12.914 12.914-33.852 0-46.766s-33.852-12.914-46.766 0-12.914 33.852 0 46.766l23.383 23.383z" fill="#e26e7e"/><path d="m419.23 455.549c12.914 12.914 33.852 12.914 46.766 0s12.914-33.852 0-46.766-33.852-12.914-46.766 0l-23.383 23.383z" fill="#e68a97"/><path d="m372.464 455.549c-12.914 12.914-12.914 33.852 0 46.766s33.852 12.914 46.766 0 12.914-33.852 0-46.766l-23.383-23.383z" fill="#e26e7e"/><path d="m372.464 408.783c-12.914-12.914-33.852-12.914-46.766 0s-12.914 33.852 0 46.766 33.852 12.914 46.766 0l23.383-23.383z" fill="#e68a97"/><ellipse cx="395.847" cy="432.166" fill="#f5ea72" rx="23.383" ry="23.383" transform="matrix(.707 -.707 .707 .707 -189.647 406.485)"/></g><g><g fill="#fff"><ellipse cx="173.557" cy="311.317" rx="24.225" ry="30.42" transform="matrix(.002 -1 1 .002 -138.14 484.191)"/><ellipse cx="338.443" cy="311.678" rx="24.225" ry="30.42" transform="matrix(.002 -1 1 .002 26.024 649.437)"/></g><g fill="#565e75"><path d="m320.768 295.783c-.005 0-.009 0-.015 0-4.142-.008-7.493-3.372-7.485-7.514l.023-12.362c.008-4.137 3.364-7.486 7.5-7.486h.015c4.142.008 7.493 3.372 7.485 7.514l-.023 12.362c-.008 4.137-3.365 7.486-7.5 7.486z"/><path d="m260.078 324.148c-1.494 0-3.016-.204-4.536-.624l-11.709-3.239c-3.992-1.104-6.333-5.236-5.229-9.228 1.105-3.992 5.24-6.333 9.228-5.229l11.71 3.239c.347.097 1.072.297 1.615-.677.541-.974-.014-1.484-.279-1.729-3.09-2.841-4.857-6.88-4.848-11.079.008-4.199 1.792-8.231 4.895-11.061.269-.245.824-.752.288-1.729-.536-.976-1.264-.779-1.611-.684l-11.724 3.189c-3.996 1.089-8.118-1.272-9.206-5.269-1.087-3.997 1.272-8.118 5.269-9.206l11.723-3.189c7.457-2.027 14.971 1.161 18.694 7.934 3.723 6.775 2.388 14.826-3.324 20.035 5.689 5.253 6.989 13.311 3.236 20.068-2.986 5.381-8.365 8.478-14.192 8.478z"/><path d="m205.826 294.651c-.006 0-.011 0-.017 0-4.142-.009-7.493-3.374-7.483-7.517.008-3.853-3.119-6.994-6.972-7.002-.005 0-.01 0-.016 0-3.846 0-6.979 3.124-6.987 6.972-.009 4.136-3.366 7.483-7.499 7.483-.006 0-.011 0-.017 0-4.142-.009-7.493-3.375-7.483-7.517.027-12.106 9.886-21.939 21.986-21.939h.049c12.124.027 21.965 9.912 21.939 22.035-.01 4.138-3.366 7.485-7.5 7.485z"/></g></g></g></svg>