<?xml version="1.0" encoding="iso-8859-1"?>
<!-- Generator: Adobe Illustrator 19.0.0, SVG Export Plug-In . SVG Version: 6.00 Build 0)  -->
<svg version="1.1" id="Capa_1" xmlns="http://www.w3.org/2000/svg" xmlns:xlink="http://www.w3.org/1999/xlink" x="0px" y="0px"
	 viewBox="0 0 512 512" style="enable-background:new 0 0 512 512;" xml:space="preserve">
<polygon style="fill:#EFEDEE;" points="166.017,221.317 139.395,228.644 39.136,431.244 50.052,453.672 85.842,431.244 
	177.104,246.819 "/>
<path style="fill:#3A484A;" d="M450.654,244.956c-4.091,10.809-16.176,16.249-26.985,12.148
	c-10.809-4.091-16.249-16.176-12.158-26.985c14.157-37.343,17.505-71.694,9.699-99.327c-6.477-22.894-20.676-39.886-39.991-47.817
	c-26.336-10.829-60.362-4.541-93.384,17.233c-29.444,19.42-72.489,60.478-110.366,145.815c-0.115,0.272-0.241,0.534-0.367,0.795
	l-37.71-18.174C214.395,60.009,325.535,14.839,397.135,44.261c31.452,12.933,54.304,39.614,64.349,75.147
	C471.758,155.736,468.012,199.148,450.654,244.956z"/>
<path style="fill:#506366;" d="M442.785,227.512c-1.175-0.33-2.337-0.636-3.484-0.918c-9.651-2.382-19.783-4.083-30.299-5.094
	c-20.235-1.945-38.829,11.777-42.83,31.708c-0.807,4.02-1.303,8.44-1.356,13.278l96.261,32.087
	c3.794-6.295,6.651-12.841,8.802-19.129C477.386,257.498,465.117,233.778,442.785,227.512z"/>
<path style="fill:#85E7FF;" d="M500.403,413.372c3.539-61.82-5.115-140.633-68.621-156.303
	c-107.422-26.507-272.387,48.829-272.387,178.223l20.573,20.404H429.69L500.403,413.372z"/>
<path style="fill:#4DB8CC;" d="M401.134,252.327c-105.483-7.575-241.739,65.368-241.739,182.965l20.573,20.404h30.905L190.3,435.292
	C190.3,328.921,301.782,259.086,401.134,252.327z"/>
<path style="fill:#3A484A;" d="M159.395,435.292c-14.777,0-28.311,8.269-35.054,21.418l0,0c-4.543,8.86,1.89,19.388,11.846,19.388
	h308.849v-40.806H159.395z"/>
<circle style="fill:#506366;" cx="445.038" cy="409.136" r="66.962"/>
<circle style="fill:#D2D2D2;" cx="445.038" cy="409.136" r="31.39"/>
<g>
	<path style="fill:#3A484A;" d="M226.054,379.203c-4.267,0-7.726-3.459-7.726-7.726v-11.231c0-4.267,3.459-7.726,7.726-7.726
		c4.267,0,7.726,3.459,7.726,7.726v11.231C233.78,375.744,230.322,379.203,226.054,379.203z"/>
	<path style="fill:#3A484A;" d="M350.169,379.203c-4.268,0-7.726-3.459-7.726-7.726v-11.231c0-4.267,3.458-7.726,7.726-7.726
		c4.268,0,7.726,3.459,7.726,7.726v11.231C357.895,375.744,354.437,379.203,350.169,379.203z"/>
	<path style="fill:#3A484A;" d="M288.112,385.198c-8.199,0-15.902-3.433-21.134-9.418c-2.808-3.213-2.481-8.094,0.732-10.902
		c3.213-2.807,8.094-2.481,10.902,0.732c2.296,2.628,5.759,4.135,9.499,4.135s7.202-1.507,9.5-4.135
		c2.807-3.213,7.69-3.541,10.901-0.732c3.213,2.808,3.542,7.689,0.732,10.902C304.014,381.765,296.311,385.198,288.112,385.198z"/>
	<path style="fill:#3A484A;" d="M85.842,431.244H27.51c-15.193,0-27.51,12.317-27.51,27.51l0,0c0,9.58,7.766,17.346,17.346,17.346
		h57.046c12.103,0,25.713-9.811,25.713-21.914v-8.679C100.105,437.629,93.719,431.244,85.842,431.244z"/>
</g>
<g>
</g>
<g>
</g>
<g>
</g>
<g>
</g>
<g>
</g>
<g>
</g>
<g>
</g>
<g>
</g>
<g>
</g>
<g>
</g>
<g>
</g>
<g>
</g>
<g>
</g>
<g>
</g>
<g>
</g>
</svg>
