<svg xmlns="http://www.w3.org/2000/svg" height="511pt" version="1.1" viewBox="0 -10 511.99826 511" width="511pt">
<g id="surface1">
<path d="M 118.660156 343.121094 C 102.265625 346.394531 82.46875 336.652344 68.457031 329.304688 C 42.535156 315.707031 20.671875 295.550781 5.226562 271.011719 C -4.769531 255.125 0.00390625 234.144531 15.886719 224.148438 C 31.773438 214.152344 52.753906 218.925781 62.75 234.808594 C 84.265625 269 118.101562 276.351562 118.4375 276.414062 C 136.867188 279.960938 148.933594 297.777344 145.386719 316.207031 C 142.695312 330.179688 131.804688 340.496094 118.660156 343.121094 Z M 118.660156 343.121094 " style=" stroke:none;fill-rule:nonzero;fill:rgb(93.72549%,92.941176%,93.333333%);fill-opacity:1;" />
<path d="M 393.339844 343.121094 C 409.730469 346.394531 429.527344 336.652344 443.539062 329.304688 C 469.460938 315.707031 491.328125 295.550781 506.773438 271.011719 C 516.769531 255.125 511.996094 234.144531 496.109375 224.148438 C 480.226562 214.152344 459.246094 218.925781 449.25 234.808594 C 427.730469 269 393.898438 276.351562 393.5625 276.414062 C 375.132812 279.960938 363.066406 297.777344 366.613281 316.207031 C 369.300781 330.179688 380.195312 340.496094 393.339844 343.121094 Z M 393.339844 343.121094 " style=" stroke:none;fill-rule:nonzero;fill:rgb(93.72549%,92.941176%,93.333333%);fill-opacity:1;" />
<path d="M 465.558594 315.449219 L 465.558594 221.292969 C 459.046875 223.851562 453.261719 228.433594 449.25 234.808594 C 427.730469 269 393.898438 276.347656 393.5625 276.414062 C 375.132812 279.960938 363.066406 297.777344 366.613281 316.207031 C 369.300781 330.179688 380.195312 340.496094 393.335938 343.121094 C 409.730469 346.394531 429.527344 336.652344 443.539062 329.304688 C 451.265625 325.253906 458.617188 320.605469 465.558594 315.449219 Z M 465.558594 315.449219 " style=" stroke:none;fill-rule:nonzero;fill:rgb(83.137255%,83.137255%,83.137255%);fill-opacity:1;" />
<path d="M 118.433594 276.414062 C 118.097656 276.347656 84.265625 269 62.75 234.808594 C 58.734375 228.433594 52.953125 223.851562 46.441406 221.292969 L 46.441406 315.449219 C 53.382812 320.605469 60.734375 325.25 68.457031 329.300781 C 82.46875 336.648438 102.265625 346.394531 118.660156 343.117188 C 131.804688 340.492188 142.699219 330.175781 145.386719 316.203125 C 148.929688 297.777344 136.863281 279.960938 118.433594 276.414062 Z M 118.433594 276.414062 " style=" stroke:none;fill-rule:nonzero;fill:rgb(83.137255%,83.137255%,83.137255%);fill-opacity:1;" />
<path d="M 256 0.5 C 157.332031 0.5 77.34375 80.484375 77.34375 179.152344 L 77.34375 447.738281 C 77.34375 462.648438 85.101562 476.484375 97.828125 484.261719 C 112.195312 493.046875 129.617188 494.394531 144.339844 485.394531 C 158.050781 477.011719 175.296875 477.011719 189.003906 485.394531 C 202.714844 493.777344 219.960938 493.777344 233.667969 485.394531 C 247.375 477.011719 264.621094 477.011719 278.332031 485.394531 C 292.039062 493.777344 309.285156 493.777344 322.996094 485.394531 C 336.703125 477.011719 353.949219 477.011719 367.65625 485.394531 C 382.257812 494.320312 399.914062 492.980469 414.175781 484.261719 C 426.894531 476.484375 434.652344 462.648438 434.652344 447.738281 L 434.652344 179.152344 C 434.652344 80.484375 354.667969 0.5 256 0.5 Z M 256 0.5 " style=" stroke:none;fill-rule:nonzero;fill:rgb(93.72549%,92.941176%,93.333333%);fill-opacity:1;" />
<path d="M 128.734375 484.265625 C 116.007812 476.484375 108.25 462.648438 108.25 447.738281 L 108.25 179.152344 C 108.25 85.691406 180.019531 9.007812 271.453125 1.171875 C 266.359375 0.734375 261.207031 0.5 256 0.5 C 157.332031 0.5 77.34375 80.484375 77.34375 179.152344 L 77.34375 447.734375 C 77.34375 462.648438 85.101562 476.484375 97.828125 484.261719 C 110.117188 491.777344 124.636719 493.84375 137.792969 488.65625 C 134.679688 487.511719 131.644531 486.042969 128.734375 484.265625 Z M 128.734375 484.265625 " style=" stroke:none;fill-rule:nonzero;fill:rgb(83.137255%,83.137255%,83.137255%);fill-opacity:1;" />
<path d="M 334.058594 226.691406 C 329.792969 226.691406 326.332031 223.234375 326.332031 218.964844 L 326.332031 201.863281 C 326.332031 197.597656 329.792969 194.136719 334.058594 194.136719 C 338.324219 194.136719 341.785156 197.597656 341.785156 201.863281 L 341.785156 218.964844 C 341.785156 223.234375 338.324219 226.691406 334.058594 226.691406 Z M 334.058594 226.691406 " style=" stroke:none;fill-rule:nonzero;fill:rgb(22.745098%,28.235294%,29.019608%);fill-opacity:1;" />
<path d="M 344.394531 247.078125 L 323.722656 247.078125 C 319.457031 247.078125 315.996094 243.617188 315.996094 239.351562 C 315.996094 235.085938 319.457031 231.625 323.722656 231.625 L 344.394531 231.625 C 348.664062 231.625 352.121094 235.085938 352.121094 239.351562 C 352.121094 243.617188 348.664062 247.078125 344.394531 247.078125 Z M 344.394531 247.078125 " style=" stroke:none;fill-rule:nonzero;fill:rgb(97.647059%,50.196078%,51.764706%);fill-opacity:1;" />
<path d="M 177.9375 226.691406 C 173.671875 226.691406 170.210938 223.234375 170.210938 218.964844 L 170.210938 201.863281 C 170.210938 197.597656 173.671875 194.136719 177.9375 194.136719 C 182.207031 194.136719 185.664062 197.597656 185.664062 201.863281 L 185.664062 218.964844 C 185.664062 223.234375 182.207031 226.691406 177.9375 226.691406 Z M 177.9375 226.691406 " style=" stroke:none;fill-rule:nonzero;fill:rgb(22.745098%,28.235294%,29.019608%);fill-opacity:1;" />
<path d="M 188.277344 247.078125 L 167.605469 247.078125 C 163.335938 247.078125 159.878906 243.617188 159.878906 239.351562 C 159.878906 235.085938 163.335938 231.625 167.605469 231.625 L 188.277344 231.625 C 192.542969 231.625 196.003906 235.085938 196.003906 239.351562 C 196.003906 243.617188 192.542969 247.078125 188.277344 247.078125 Z M 188.277344 247.078125 " style=" stroke:none;fill-rule:nonzero;fill:rgb(97.647059%,50.196078%,51.764706%);fill-opacity:1;" />
<path d="M 256 246.222656 C 248.328125 246.222656 241.121094 243.007812 236.21875 237.402344 C 233.410156 234.191406 233.738281 229.308594 236.953125 226.5 C 240.164062 223.691406 245.046875 224.019531 247.855469 227.234375 C 249.820312 229.480469 252.789062 230.769531 256 230.769531 C 259.210938 230.769531 262.179688 229.480469 264.144531 227.234375 C 266.953125 224.019531 271.832031 223.691406 275.046875 226.5 C 278.257812 229.308594 278.585938 234.191406 275.777344 237.402344 C 270.878906 243.007812 263.671875 246.222656 256 246.222656 Z M 256 246.222656 " style=" stroke:none;fill-rule:nonzero;fill:rgb(22.745098%,28.235294%,29.019608%);fill-opacity:1;" />
</g>
</svg>