<svg id="Capa_1" enable-background="new 0 0 512 512" height="512" viewBox="0 0 512 512" width="512" xmlns="http://www.w3.org/2000/svg"><g><path d="m137.024 209.702h-85.297v-161.243c0-13.779 11.17-24.948 24.949-24.948h35.4c13.779 0 24.948 11.17 24.948 24.948z" fill="#8daee1"/><path d="m137.024 56.64-85.297 85.297v67.765h85.297z" fill="#6a95d6"/><path d="m414.11 488.489h-316.22c-25.495 0-46.163-20.668-46.163-46.163v-228.821l204.273-158.005 204.273 158.005v228.821c0 25.495-20.668 46.163-46.163 46.163z" fill="#fbf1cf"/><path d="m199.175 99.454-147.448 114.051v228.821c0 25.495 20.668 46.163 46.163 46.163h158.94c-84.1-87.312-67.011-327.174-57.655-389.035z" fill="#f5e2a2"/><path d="m324.482 51.877 172.529 172.529c9.597 9.597 14.989 22.614 14.989 36.187v29.141c0 24.808-29.994 37.232-47.536 19.69l-184.162-184.163c-13.421-13.421-35.182-13.421-48.603 0l-184.163 184.163c-17.542 17.541-47.536 5.118-47.536-19.69v-29.141c0-13.573 5.392-26.59 14.989-36.187l172.529-172.529c37.821-37.822 99.142-37.822 136.964 0z" fill="#eca0aa"/><path d="m168.079 71.316-153.09 153.09c-9.597 9.597-14.989 22.614-14.989 36.187v29.141c0 24.808 29.994 37.232 47.536 19.69l140.135-140.135c-21.18-21.557-25.698-55.891-19.592-97.973z" fill="#e16e7e"/><path d="m300.917 323.881h-89.834c-18.156 0-32.875 14.719-32.875 32.875v131.733h155.584v-131.733c0-18.156-14.719-32.875-32.875-32.875z" fill="#8daee1"/><path d="m196.929 327.078c-11.071 5.29-18.721 16.59-18.721 29.678v131.733h78.622c-34.457-35.773-51.926-97.155-59.901-161.411z" fill="#6a95d6"/><g><g><path d="m202.104 283.94c0 13.861-14.11 25.097-31.515 25.097s-31.515-11.236-31.515-25.097 14.11-25.097 31.515-25.097 31.515 11.236 31.515 25.097z" fill="#eda1ab"/><path d="m309.896 283.94c0 13.861 14.11 25.097 31.515 25.097s31.515-11.236 31.515-25.097-14.11-25.097-31.515-25.097-31.515 11.236-31.515 25.097z" fill="#eca0aa"/></g><g fill="#4e5660"><path d="m188.956 267.281c-4.142 0-7.5-3.358-7.5-7.5v-12.883c0-4.142 3.358-7.5 7.5-7.5s7.5 3.358 7.5 7.5v12.883c0 4.142-3.358 7.5-7.5 7.5z"/><path d="m323.044 267.281c-4.142 0-7.5-3.358-7.5-7.5v-12.883c0-4.142 3.358-7.5 7.5-7.5s7.5 3.358 7.5 7.5v12.883c0 4.142-3.358 7.5-7.5 7.5z"/><path d="m256 274.95c-8.942 0-17.445-3.873-23.33-10.625-2.721-3.123-2.396-7.86.727-10.582 3.123-2.721 7.86-2.396 10.582.726 3.035 3.483 7.417 5.481 12.021 5.481s8.986-1.998 12.022-5.481c2.722-3.123 7.459-3.448 10.582-.726s3.448 7.459.727 10.582c-5.886 6.752-14.389 10.625-23.331 10.625z"/></g></g><path d="m108.683 339.084h-56.956v79.822h56.956c9.327 0 16.887-7.561 16.887-16.887v-46.048c0-9.326-7.561-16.887-16.887-16.887z" fill="#7acdf9"/><path d="m403.317 339.084h56.956v79.822h-56.956c-9.327 0-16.887-7.561-16.887-16.887v-46.048c0-9.326 7.561-16.887 16.887-16.887z" fill="#7acdf9"/><ellipse cx="300.454" cy="418.906" fill="#fff" rx="7.619" ry="7.619" transform="matrix(.383 -.924 .924 .383 -201.544 536.181)"/></g></svg>