<svg id="Capa_1" enable-background="new 0 0 502 502" height="512" viewBox="0 0 502 502" width="512" xmlns="http://www.w3.org/2000/svg" xmlns:xlink="http://www.w3.org/1999/xlink"><linearGradient id="SVGID_1_" gradientUnits="userSpaceOnUse" x1="239.406" x2="239.406" y1="411.428" y2="0"><stop offset=".0005580357" stop-color="#5bd6fd"/><stop offset=".9777" stop-color="#a4e6ff"/></linearGradient><linearGradient id="SVGID_2_" gradientUnits="userSpaceOnUse" x1="205.157" x2="205.157" y1="411.428" y2="68.499"><stop offset=".0223" stop-color="#8b59c5"/><stop offset="1" stop-color="#a47cd1"/></linearGradient><linearGradient id="SVGID_3_" gradientUnits="userSpaceOnUse" x1="170.912" x2="170.912" y1="136.988" y2="411.428"><stop offset="0" stop-color="#ff889e"/><stop offset=".9788" stop-color="#f5385d"/></linearGradient><linearGradient id="SVGID_4_" gradientUnits="userSpaceOnUse" x1="136.668" x2="136.668" y1="411.428" y2="205.477"><stop offset="0" stop-color="#ff88ca"/><stop offset=".9788" stop-color="#ffb3dd"/></linearGradient><linearGradient id="SVGID_5_" gradientUnits="userSpaceOnUse" x1="102.423" x2="102.423" y1="273.966" y2="411.428"><stop offset=".0223" stop-color="#f9f2ab"/><stop offset=".9994" stop-color="#f6e66a"/></linearGradient><linearGradient id="SVGID_6_" gradientUnits="userSpaceOnUse" x1="296.875" x2="296.875" y1="502" y2="239.948"><stop offset="0" stop-color="#d0d7d7"/><stop offset="1" stop-color="#efefef"/></linearGradient><g><path d="m17.541 69.993v-68.741c10.65-.828 21.42-1.252 32.292-1.252 227.23 0 411.439 184.209 411.439 411.428h-68.499z" fill="url(#SVGID_1_)"/><path d="m17.541 138.855v-68.862c1.195-.199 16.065-1.494 32.291-1.494 91.605 0 177.718 35.673 242.502 100.437 64.764 64.774 100.437 150.898 100.437 242.492h-68.489z" fill="url(#SVGID_2_)"/><path d="m17.541 207.98v-69.125c8.581-1.067 20.727-1.867 32.291-1.867 73.304 0 142.227 28.546 194.071 80.38 51.834 51.844 80.38 120.757 80.38 194.06h-68.489z" fill="url(#SVGID_3_)"/><path d="m17.541 277.761v-69.781c8.534-1.424 20.613-2.503 32.291-2.503 55.013 0 106.736 21.43 145.629 60.323 38.903 38.903 60.333 90.626 60.333 145.629h-68.489z" fill="url(#SVGID_4_)"/><path d="m181.239 326.43c-.517-7.24-3.626-14.05-8.759-19.183-10.132-10.133-26.069-11.852-37.954-3.846-7.157 4.821-13.859 10.417-19.995 16.742-6.285 6.479-11.781 13.531-16.453 21.03l89.226 70.254z" fill="#ff88ca"/><path d="m187.305 411.428h-68.499c0-18.422-7.177-35.733-20.198-48.765-13.022-13.032-30.353-20.198-48.775-20.198-11.447 0-22.46 2.766-32.291 7.984v-72.688c10.447-2.503 21.268-3.795 32.291-3.795 36.723 0 71.235 14.303 97.207 40.266 25.962 25.972 40.265 60.484 40.265 97.196z" fill="url(#SVGID_5_)"/><path d="m187.305 411.428s0-.001 0-.002l-1.413-19.794c-4.189-29.2-17.619-56.157-38.853-77.4-3.921-3.919-8.04-7.568-12.329-10.947-7.225 4.849-13.991 10.482-20.179 16.859-10.182 10.495-18.307 22.488-24.183 35.464 7.927 5.776 14.537 13.131 19.431 21.696 5.877 10.285 9.026 21.958 9.026 34.125h68.5z" fill="#f0e02c"/><path d="m389.546 502c52.419 0 94.913-42.494 94.913-94.913 0-51.363-40.806-93.168-91.764-94.833-11.889-41.734-50.271-72.306-95.82-72.306s-83.931 30.572-95.82 72.306c-50.958 1.665-91.764 43.47-91.764 94.833 0 52.419 42.494 94.913 94.913 94.913z" fill="url(#SVGID_6_)"/><g><path d="m356.027 310.457c-3.073 0-6.104-1.411-8.064-4.077-1.967-2.675-4.167-5.198-6.541-7.5-3.964-3.846-4.06-10.177-.214-14.141 3.845-3.964 10.176-4.06 14.141-.214 3.168 3.073 6.104 6.44 8.727 10.007 3.272 4.449 2.317 10.709-2.132 13.98-1.785 1.313-3.86 1.945-5.917 1.945z" fill="#fff"/></g><g><path d="m322.056 284.709c-1.208 0-2.437-.22-3.63-.686-6.826-2.661-14.281-4.07-21.558-4.075-5.523-.004-9.997-4.484-9.994-10.006.003-5.521 4.48-9.994 10-9.994h.007c9.872.006 19.565 1.837 28.81 5.441 5.146 2.006 7.69 7.804 5.684 12.949-1.54 3.953-5.318 6.371-9.319 6.371z" fill="#fff"/></g><g><ellipse cx="194.655" cy="417.247" fill="#fd9bae" rx="17.373" ry="13.961"/><ellipse cx="399.094" cy="417.247" fill="#fd9bae" rx="17.372" ry="13.961"/><circle cx="224.438" cy="382.799" fill="#fff" r="34.448"/><circle cx="369.311" cy="382.799" fill="#fff" r="34.448"/><g fill="#383842"><g><circle cx="224.438" cy="382.799" r="20.531"/><circle cx="369.311" cy="382.799" r="20.531"/></g><path d="m296.874 417.522c-5.906 0-11.813-2.234-16.631-6.702-2.025-1.877-2.145-5.041-.267-7.066 1.876-2.025 5.042-2.144 7.065-.267 5.788 5.367 13.875 5.369 19.665 0 2.024-1.876 5.189-1.759 7.065.267 1.878 2.025 1.759 5.188-.267 7.066-4.816 4.468-10.723 6.702-16.63 6.702z"/></g></g></g></svg>