<svg height="511pt" viewBox="-90 1 511 511.99998" width="511pt" xmlns="http://www.w3.org/2000/svg"><path d="m233.714844 87.324219c22.035156-22.035157 30.050781-49.746094 17.902344-61.890625-12.148438-12.148438-39.859376-4.132813-61.894532 17.902344-22.035156 22.035156-30.050781 49.746093-17.902344 61.890624 12.148438 12.148438 39.859376 4.132813 61.894532-17.902343zm0 0" fill="#c8efb9"/><path d="m233.714844 87.328125c3.996094-3.996094 7.527344-8.175781 10.566406-12.417969-12.515625-19.929687-29.457031-32.339844-44.984375-40.019531-3.265625 2.527344-6.472656 5.34375-9.570313 8.445313-22.039062 22.035156-30.050781 49.746093-17.90625 61.894531 12.148438 12.148437 39.859376 4.132812 61.894532-17.902344zm0 0" fill="#b2e59c"/><path d="m166.152344 130.664062c-12.628906 0-22.960938-10.332031-22.960938-22.957031v-84.746093c0-12.628907 10.332032-22.960938 22.960938-22.960938 12.625 0 22.957031 10.332031 22.957031 22.960938v84.746093c0 12.625-10.332031 22.957031-22.957031 22.957031zm0 0" fill="#eab9a4"/><path d="m241.441406 153.183594s.707032-77.425782-75.289062-77.425782c-76 0-75.289063 77.425782-75.289063 77.425782 0 41.121094-16.378906 80.296875-44.726562 110.085937-28.277344 29.714844-45.636719 69.917969-45.636719 114.175781 0 91.484376 74.164062 134.554688 165.652344 134.554688 91.484375 0 165.648437-43.070312 165.648437-134.554688 0-44.257812-17.355469-84.460937-45.632812-114.175781-28.351563-29.789062-44.726563-68.964843-44.726563-110.085937zm0 0" fill="#9ad880"/><path d="m198.675781 81.726562c-8.871093-3.722656-19.585937-5.96875-32.527343-5.96875-75.996094 0-75.289063 77.425782-75.289063 77.425782 0 41.121094-16.375 80.296875-44.722656 110.085937-28.28125 29.714844-45.636719 69.917969-45.636719 114.175781 0 63.363282 35.585938 103.507813 87.855469 122.195313-15.105469-103.574219 72.167969-195.261719 68.859375-315.570313-1.753906-63.972656 25.40625-91.632812 41.460937-102.34375zm0 0" fill="#8dc971"/><path d="m166.148438 417.371094c-15.988282 0-28.945313-12.960938-28.945313-28.949219v-21.042969c0-4.367187 3.535156-7.90625 7.902344-7.90625h42.089843c4.367188 0 7.902344 3.539063 7.902344 7.90625v21.042969c0 15.988281-12.957031 28.949219-28.949218 28.949219zm0 0" fill="#57565c"/><path d="m100.195312 388.421875c0-13.578125-13.824218-24.589844-30.878906-24.589844-17.050781 0-30.875 11.011719-30.875 24.589844 0 13.582031 13.824219 24.589844 30.875 24.589844 17.054688 0 30.878906-11.007813 30.878906-24.589844zm0 0" fill="#ffd7e2"/><path d="m293.863281 388.421875c0-13.578125-13.824219-24.589844-30.878906-24.589844s-30.878906 11.011719-30.878906 24.589844c0 13.582031 13.824219 24.589844 30.878906 24.589844s30.878906-11.007813 30.878906-24.589844zm0 0" fill="#ffd7e2"/><g fill="#57565c"><path d="m249.242188 374.925781c-4.269532 0-7.726563-3.460937-7.726563-7.726562v-12.828125c0-4.265625 3.457031-7.726563 7.726563-7.726563 4.269531 0 7.726562 3.460938 7.726562 7.726563v12.828125c0 4.265625-3.460938 7.726562-7.726562 7.726562zm0 0"/><path d="m83.058594 374.925781c-4.265625 0-7.726563-3.460937-7.726563-7.726562v-12.828125c0-4.265625 3.460938-7.726563 7.726563-7.726563 4.269531 0 7.726562 3.460938 7.726562 7.726563v12.828125c0 4.265625-3.457031 7.726562-7.726562 7.726562zm0 0"/></g></svg>