<?xml version="1.0" encoding="iso-8859-1"?>
<!-- Generator: Adobe Illustrator 19.0.0, SVG Export Plug-In . SVG Version: 6.00 Build 0)  -->
<svg version="1.1" id="Capa_1" xmlns="http://www.w3.org/2000/svg" xmlns:xlink="http://www.w3.org/1999/xlink" x="0px" y="0px"
	 viewBox="0 0 512.001 512.001" style="enable-background:new 0 0 512.001 512.001;" xml:space="preserve">
<path style="fill:#7397DA;" d="M251.845,392.525h-28.526V291.946h64.558v64.548C287.876,376.393,271.744,392.525,251.845,392.525z"
	/>
<rect x="223.32" y="291.941" style="opacity:0.15;fill:#003A63;enable-background:new    ;" width="64.56" height="46.701"/>
<path style="fill:#E68392;" d="M194.886,480.907h19.449c22.933,0,38.163-23.744,28.6-44.588l0,0
	c-8.731-19.032-13.251-39.724-13.251-60.663v-60.567H125.469v47.222c0,29.732,6.418,59.114,18.816,86.138l0,0
	C153.359,468.228,173.125,480.907,194.886,480.907z"/>
<path style="fill:#7397DA;" d="M22.658,265.025h41.094V130.322H22.658C10.144,130.322,0,140.466,0,152.98v89.388
	C0,254.881,10.144,265.025,22.658,265.025z"/>
<g style="opacity:0.15;">
	<path style="fill:#003A63;" d="M63.752,182.246H39.297c-4.143,0-7.5-3.357-7.5-7.5s3.357-7.5,7.5-7.5h24.455
		c4.143,0,7.5,3.357,7.5,7.5S67.895,182.246,63.752,182.246z"/>
	<path style="fill:#003A63;" d="M63.752,228.102H39.297c-4.143,0-7.5-3.357-7.5-7.5s3.357-7.5,7.5-7.5h24.455
		c4.143,0,7.5,3.357,7.5,7.5C71.252,224.744,67.895,228.102,63.752,228.102z"/>
</g>
<path style="fill:#DDEFF5;" d="M464.147,363.101l-77.673-34.559c-19.935-8.87-41.511-13.453-63.331-13.453H98.721
	c-19.313,0-34.968-15.656-34.968-34.969V117.052c0-19.313,15.656-34.968,34.968-34.968h224.423c21.819,0,43.395-4.583,63.331-13.453
	l77.673-34.559C486.647,24.06,512,40.529,512,65.156v266.862C512,356.644,486.647,373.113,464.147,363.101z"/>
<rect x="125.47" y="315.091" style="opacity:0.15;fill:#8D4330;enable-background:new    ;" width="104.22" height="33.17"/>
<g>
	<ellipse style="fill:#F8B8BD;" cx="163.06" cy="167.381" rx="28.4" ry="22.617"/>
	<ellipse style="fill:#F8B8BD;" cx="317" cy="167.381" rx="28.4" ry="22.617"/>
</g>
<g>
	<path style="fill:#495059;" d="M179.607,152.317c-4.143,0-7.5-3.357-7.5-7.5v-10.029c0-4.143,3.357-7.5,7.5-7.5s7.5,3.357,7.5,7.5
		v10.029C187.107,148.96,183.75,152.317,179.607,152.317z"/>
	<path style="fill:#495059;" d="M300.444,152.317c-4.143,0-7.5-3.357-7.5-7.5v-10.029c0-4.143,3.357-7.5,7.5-7.5s7.5,3.357,7.5,7.5
		v10.029C307.944,148.96,304.587,152.317,300.444,152.317z"/>
	<path style="fill:#495059;" d="M240.025,160.019c-8.273,0-16.14-3.583-21.583-9.829c-2.722-3.123-2.395-7.86,0.727-10.582
		c3.121-2.721,7.859-2.396,10.582,0.727c2.594,2.977,6.339,4.685,10.274,4.685c3.936,0,7.682-1.707,10.275-4.685
		c2.722-3.123,7.458-3.448,10.582-0.727c3.122,2.722,3.448,7.459,0.727,10.582C256.166,156.436,248.299,160.019,240.025,160.019z"/>
	<path style="fill:#495059;" d="M217.398,237.81h-64.166c-4.143,0-7.5-3.357-7.5-7.5s3.357-7.5,7.5-7.5h64.166
		c4.142,0,7.5,3.357,7.5,7.5C224.898,234.452,221.54,237.81,217.398,237.81z"/>
	<path style="fill:#495059;" d="M217.398,271.722h-64.166c-4.143,0-7.5-3.357-7.5-7.5s3.357-7.5,7.5-7.5h64.166
		c4.142,0,7.5,3.357,7.5,7.5S221.54,271.722,217.398,271.722z"/>
</g>
<circle style="fill:#7397DA;" cx="300.72" cy="247.671" r="26.1"/>
<path style="opacity:0.15;fill:#003A63;enable-background:new    ;" d="M511.862,334.968
	C483.141,308.41,430,282.973,333.736,268.957c-184.247-26.828-192.419-124.36-166.679-186.873H98.721
	c-19.313,0-34.969,15.656-34.969,34.968v163.069c0,19.313,15.656,34.968,34.969,34.968h224.423c21.819,0,43.396,4.583,63.331,13.453
	l77.673,34.559C485.734,372.706,509.933,357.931,511.862,334.968z"/>
<path style="fill:#E68392;" d="M464.147,34.071L416.3,55.36v286.452l47.848,21.289c22.5,10.011,47.853-6.458,47.853-31.084V65.155
	C512,40.529,486.647,24.06,464.147,34.071z"/>
<path style="opacity:0.15;fill:#8D4330;enable-background:new    ;" d="M511.862,334.968c-19.147-17.705-49.17-34.906-95.562-48.563
	v55.408l47.848,21.289C485.734,372.706,509.933,357.931,511.862,334.968z"/>
<g>
</g>
<g>
</g>
<g>
</g>
<g>
</g>
<g>
</g>
<g>
</g>
<g>
</g>
<g>
</g>
<g>
</g>
<g>
</g>
<g>
</g>
<g>
</g>
<g>
</g>
<g>
</g>
<g>
</g>
</svg>
