<svg id="Layer_1" enable-background="new 0 0 512 512" height="512" viewBox="0 0 512 512" width="512" xmlns="http://www.w3.org/2000/svg"><path d="m23.437 420.41v-318.519c0-28.448 23.061-51.509 51.509-51.509h357.473c28.448 0 51.509 23.061 51.509 51.509v318.519z" fill="#988fc4"/><path d="m116.153 50.382h-41.207c-28.448 0-51.509 23.061-51.509 51.509v318.519h41.207v-318.519c0-28.447 23.061-51.509 51.509-51.509z" fill="#897bad"/><path d="m64.644 310.2v-209.345c0-5.117 4.148-9.265 9.265-9.265h359.545c5.117 0 9.265 4.148 9.265 9.265v209.345z" fill="#e3fbff"/><path d="m115.117 91.589h-41.207c-5.117 0-9.265 4.148-9.265 9.265v209.346h41.207v-209.345c-.001-5.117 4.148-9.266 9.265-9.266z" fill="#b5efff"/><path d="m312.586 91.589 130.134 202.37v-90.524l-71.922-111.846z" fill="#fff"/><path d="m392.458 309.091h37.762l-139.865-217.502h-37.761z" fill="#fff"/><ellipse cx="171.634" cy="163.64" fill="#ffa1ac" rx="30.274" ry="24.109"/><ellipse cx="335.731" cy="163.64" fill="#ffa1ac" rx="30.274" ry="24.109"/><g fill="#495560"><path d="m278.091 145.116c0-15.085-10.928-16.502-24.409-16.502-13.48 0-24.409 1.417-24.409 16.502s10.928 27.313 24.409 27.313 24.409-12.228 24.409-27.313z"/><path d="m176.694 142.357c-4.143 0-7.5-3.358-7.5-7.5v-12.362c0-4.142 3.357-7.5 7.5-7.5s7.5 3.358 7.5 7.5v12.362c0 4.142-3.357 7.5-7.5 7.5z"/><path d="m330.67 142.357c-4.143 0-7.5-3.358-7.5-7.5v-12.362c0-4.142 3.357-7.5 7.5-7.5s7.5 3.358 7.5 7.5v12.362c0 4.142-3.357 7.5-7.5 7.5z"/></g><path d="m433.455 337.996h-359.545c-5.117 0-9.265-4.148-9.265-9.265v-46.327h378.075v46.327c0 5.117-4.148 9.265-9.265 9.265z" fill="#897bad"/><path d="m105.851 328.731v-46.327h-41.207v46.327c0 5.117 4.148 9.266 9.265 9.266h41.207c-5.116-.001-9.265-4.149-9.265-9.266z" fill="#806e9c"/><path d="m491.396 461.618h-470.792c-11.379 0-20.604-9.225-20.604-20.604v-41.207c0-11.379 9.225-20.604 20.604-20.604h470.793c11.379 0 20.604 9.225 20.604 20.604v41.207c-.001 11.379-9.226 20.604-20.605 20.604z" fill="#897bad"/><path d="m41.207 441.014v-41.207c0-11.379 9.225-20.604 20.604-20.604h-41.207c-11.379 0-20.604 9.225-20.604 20.604v41.207c0 11.379 9.225 20.604 20.604 20.604h41.207c-11.379 0-20.604-9.225-20.604-20.604z" fill="#806e9c"/><path d="m343.169 427.911h-174.338c-4.143 0-7.5-3.358-7.5-7.5s3.357-7.5 7.5-7.5h174.338c4.143 0 7.5 3.358 7.5 7.5s-3.357 7.5-7.5 7.5z" fill="#806e9c"/></svg>