<svg id="Capa_1" enable-background="new 0 0 512 512" height="512" viewBox="0 0 512 512" width="512" xmlns="http://www.w3.org/2000/svg"><circle cx="256" cy="256" fill="#96e8ff" r="256"/><path d="m338.414 429.586c-141.385 0-256-114.615-256-256 0-49.582 14.111-95.862 38.514-135.071-72.596 45.181-120.928 125.683-120.928 217.485 0 141.385 114.615 256 256 256 91.802 0 172.303-48.332 217.486-120.929-39.209 24.403-85.489 38.515-135.072 38.515z" fill="#80dbff"/><path d="m484.273 140.017-31.563 31.563c-7.633 7.633-7.633 20.009 0 27.643l15.024 15.024c3.666 3.666 5.725 8.637 5.725 13.821 0 17.414-21.054 26.135-33.368 13.821l-46.666-46.666c-3.666-3.666-8.637-5.725-13.821-5.725h-93.874c-5.184 0-10.156 2.059-13.821 5.725l-55.029 55.029c-7.633 7.633-7.633 20.009 0 27.643l74.747 74.747c7.633 7.633 20.009 7.633 27.643 0l8.945-8.945c7.633-7.633 20.009-7.633 27.643 0l18.084 18.084c7.633 7.633 7.633 20.009 0 27.643l-48.342 48.342c-3.666 3.666-8.637 5.725-13.821 5.725h-76.409c-10.795 0-19.546 8.751-19.546 19.546v45.817c13.089 2.063 26.506 3.146 40.176 3.146 141.385 0 256-114.615 256-256 0-41.751-10-81.163-27.727-115.983z" fill="#06ccab"/><path d="m338.414 429.586c-1.531 0-3.054-.031-4.578-.058l-8.237 8.237c-3.666 3.666-8.637 5.725-13.821 5.725h-76.409c-10.795 0-19.546 8.751-19.546 19.546v45.817c13.09 2.064 26.507 3.147 40.177 3.147 91.802 0 172.304-48.332 217.486-120.929-39.209 24.403-85.489 38.515-135.072 38.515z" fill="#00bd9d"/><ellipse cx="169.913" cy="121.747" fill="#f2f6fc" rx="31.765" ry="25.296"/><ellipse cx="342.087" cy="121.747" fill="#f2f6fc" rx="31.765" ry="25.296"/><g fill="#555a66"><path d="m188.425 104.585c-4.142 0-7.5-3.358-7.5-7.5v-12.362c0-4.142 3.358-7.5 7.5-7.5s7.5 3.358 7.5 7.5v12.362c0 4.142-3.358 7.5-7.5 7.5z"/><path d="m256 112.626c-8.996 0-17.55-3.896-23.47-10.688-2.721-3.123-2.396-7.86.727-10.582 3.124-2.721 7.86-2.396 10.582.727 3.07 3.523 7.503 5.544 12.162 5.544s9.092-2.021 12.161-5.543c2.72-3.125 7.459-3.449 10.581-.728 3.123 2.721 3.449 7.459.728 10.582-5.92 6.792-14.475 10.688-23.471 10.688z"/><path d="m340.287 104.24c-4.143 0-7.5-3.358-7.5-7.5 0-3.764-3.062-6.826-6.825-6.826s-6.826 3.062-6.826 6.826c0 4.142-3.357 7.5-7.5 7.5s-7.5-3.358-7.5-7.5c0-12.035 9.791-21.826 21.826-21.826 12.034 0 21.825 9.791 21.825 21.826 0 4.142-3.357 7.5-7.5 7.5z"/></g><path d="m77.505 206.801c-8.046-8.046-21.092-8.046-29.138 0l-48.356 48.357c-.001.281-.011.56-.011.842 0 99.108 56.324 185.055 138.704 227.597v-69.949c0-10.929-4.341-21.41-12.069-29.138l-22.106-22.106c-8.046-8.046-8.046-21.092 0-29.138l35.152-35.152c8.046-8.046 8.046-21.092 0-29.138z" fill="#06ccab"/><path d="m104.528 362.403c-8.046-8.046-8.046-21.092 0-29.138l19.599-19.599c-19.162-29.254-32.492-62.665-38.348-98.592l-8.274-8.274c-8.046-8.046-21.092-8.046-29.138 0l-48.356 48.358c-.001.281-.011.56-.011.842 0 99.108 56.324 185.055 138.704 227.597v-69.949c0-10.929-4.341-21.41-12.069-29.138z" fill="#00bd9d"/></svg>