<?xml version="1.0" encoding="iso-8859-1"?>
<!-- Generator: Adobe Illustrator 19.0.0, SVG Export Plug-In . SVG Version: 6.00 Build 0)  -->
<svg version="1.1" id="Capa_1" xmlns="http://www.w3.org/2000/svg" xmlns:xlink="http://www.w3.org/1999/xlink" x="0px" y="0px"
	 viewBox="0 0 512 512" style="enable-background:new 0 0 512 512;" xml:space="preserve">
<g>
	<path style="fill:#FFCE1C;" d="M36.384,316.049c-4.267,0-7.726-3.459-7.726-7.726v-54.851c0-4.267,3.459-7.726,7.726-7.726
		s7.726,3.459,7.726,7.726v54.851C44.111,312.59,40.651,316.049,36.384,316.049z"/>
	<path style="fill:#FFCE1C;" d="M475.613,316.049c-4.267,0-7.726-3.459-7.726-7.726v-54.851c0-4.267,3.459-7.726,7.726-7.726
		c4.267,0,7.726,3.459,7.726,7.726v54.851C483.34,312.59,479.88,316.049,475.613,316.049z"/>
</g>
<g>
	<polygon style="fill:#D4835F;" points="316.528,372.682 195.469,372.682 166.541,442.341 195.469,512 316.528,512 345.456,442.341 
			"/>
	<path style="fill:#D4835F;" d="M407.694,383.91c21.747,15.111,50.068,49.808,50.068,128.09h-83.374l15.436-116.546L407.694,383.91z
		"/>
	<path style="fill:#D4835F;" d="M104.303,383.91C82.555,399.021,54.234,433.719,54.234,512h83.374l-15.436-116.546L104.303,383.91z"
		/>
</g>
<path style="fill:#A36549;" d="M104.303,383.91C82.555,399.021,54.234,433.719,54.234,512H85.14
	c0-62.9,18.285-97.656,36.752-116.727L104.303,383.91z"/>
<polygon style="fill:#EFEDEE;" points="137.608,359.927 99.59,378.936 117.599,397.946 99.59,416.954 117.599,435.963 
	99.59,454.972 117.599,473.982 99.59,492.991 137.608,512 "/>
<g>
	<rect x="137.61" y="372.678" style="fill:#00A1E0;" width="57.855" height="139.322"/>
	<rect x="316.532" y="372.678" style="fill:#00A1E0;" width="57.855" height="139.322"/>
</g>
<polygon style="fill:#EFEDEE;" points="374.389,359.927 412.407,378.936 394.398,397.946 412.407,416.954 394.398,435.963 
	412.407,454.972 394.398,473.982 412.407,492.991 374.389,512 "/>
<path style="fill:#FFCE1C;" d="M255.998,471.505c-42.735,0-77.503-34.644-77.503-77.228c0-42.583,34.768-77.228,77.503-77.228
	s77.503,34.644,77.503,77.228S298.733,471.505,255.998,471.505z M255.998,341.784c-29.096,0-52.768,23.548-52.768,52.492
	c0,28.945,23.671,52.493,52.768,52.493s52.768-23.548,52.768-52.493C308.766,365.332,285.095,341.784,255.998,341.784z"/>
<g>
	<circle style="fill:#A36549;" cx="56.404" cy="227.165" r="45.069"/>
	<circle style="fill:#A36549;" cx="455.596" cy="227.165" r="45.069"/>
</g>
<path style="fill:#D4835F;" d="M69.277,160.324C97.814,89.052,170.644,38.395,255.998,38.395S414.183,89.052,442.72,160.323v73.591
	l-54.167,88.369l-125.838,46.659L128.394,322.99l-55.142-72.11L69.277,160.324z"/>
<g>
	<path style="fill:#3A484A;" d="M155.55,237.048c-4.267,0-7.726-3.459-7.726-7.726V209.79c0-4.267,3.459-7.726,7.726-7.726
		s7.726,3.459,7.726,7.726v19.531C163.276,233.588,159.817,237.048,155.55,237.048z"/>
	<path style="fill:#3A484A;" d="M356.447,237.048c-4.267,0-7.726-3.459-7.726-7.726V209.79c0-4.267,3.459-7.726,7.726-7.726
		s7.726,3.459,7.726,7.726v19.531C364.174,233.588,360.714,237.048,356.447,237.048z"/>
	<path style="fill:#3A484A;" d="M255.998,293.143c-9.231,0-17.9-3.86-23.784-10.59c-2.808-3.213-2.481-8.094,0.732-10.902
		s8.094-2.481,10.902,0.732c2.948,3.373,7.376,5.308,12.149,5.308c4.773,0,9.201-1.935,12.149-5.308
		c2.809-3.213,7.689-3.541,10.902-0.732s3.541,7.689,0.732,10.902C273.899,289.282,265.23,293.143,255.998,293.143z"/>
</g>
<path style="fill:#A36549;" d="M73.251,250.881l21.815,28.528c-5.044-16.593-7.756-34.119-7.756-52.246
	c0-23.531,4.549-46.066,12.873-66.839C126.981,93.395,192.84,44.648,271.45,38.955c-0.041-0.003-0.082-0.005-0.123-0.008
	c-2.505-0.179-5.023-0.317-7.552-0.41c-0.164-0.006-0.328-0.008-0.491-0.013c-21.843-0.741-43.799,1.85-64.827,7.832
	c-19.821,5.633-38.824,14.282-56.059,25.581c-23.851,15.643-44.367,36.477-59.27,60.822c-5.364,8.768-10.011,17.978-13.85,27.565
	L73.251,250.881z"/>
<path style="fill:#3A484A;" d="M442.72,160.324c-39.225,15.832-7.699,66.935-44.559,95.153
	c-52.65,42.821-89.861-42.821-142.162-42.821s-89.511,85.641-142.162,42.821c-36.861-28.218-5.334-79.321-44.559-95.153
	c-8.324,20.774-12.873,43.308-12.873,66.839c0,104.251,89.363,188.767,199.594,188.767s199.594-84.516,199.594-188.767
	C455.593,203.632,451.044,181.098,442.72,160.324z M255.998,332.099c-29.078,0-52.65-19-52.65-42.436s23.573-42.436,52.65-42.436
	c29.078,0,52.651,19,52.651,42.436S285.076,332.099,255.998,332.099z"/>
<path style="fill:#313D40;" d="M262.062,415.839c2.923-0.086,5.843-0.224,8.76-0.427c0.207-0.014,0.416-0.025,0.629-0.04
	C168.44,407.912,87.31,326.496,87.31,227.163c0-12.448,1.285-24.613,3.717-36.39c-2.083-13.145-6.725-24.385-21.748-30.449
	c-1.215,3.031-2.339,6.104-3.39,9.207c-6.27,18.504-9.484,38.095-9.484,57.631c0,37.651,12.225,74.935,34.088,105.541
	c20.919,29.283,50.32,52.421,83.366,66.552c25.865,11.06,54.025,16.676,82.14,16.676C258.02,415.93,260.041,415.898,262.062,415.839
	z"/>
<g>
	<path style="fill:#A36549;" d="M256.001,140.211c-19.837,0-38.866-2.657-55.027-7.683c-4.074-1.267-6.35-5.598-5.083-9.672
		c1.267-4.074,5.597-6.35,9.672-5.083c14.696,4.571,32.135,6.987,50.438,6.987c18.3,0,35.739-2.415,50.434-6.985
		c4.072-1.268,8.405,1.009,9.672,5.083c1.267,4.074-1.009,8.405-5.084,9.672C294.863,137.554,275.837,140.211,256.001,140.211z"/>
	<path style="fill:#A36549;" d="M256.003,173.805c-30.692,0-60.1-4.1-85.042-11.858c-4.074-1.267-6.35-5.598-5.083-9.672
		c1.267-4.075,5.602-6.349,9.672-5.083c23.476,7.302,51.296,11.161,80.453,11.161c29.153,0,56.971-3.859,80.446-11.159
		c4.073-1.267,8.405,1.009,9.672,5.084c1.267,4.074-1.009,8.405-5.084,9.672C316.096,169.705,286.692,173.805,256.003,173.805z"/>
</g>
<path style="fill:#3A484A;" d="M265.041,0h-18.086c-11.03,0-19.971,8.941-19.971,19.971v36.848c0,11.03,8.941,19.971,19.971,19.971
	h18.086c11.03,0,19.971-8.941,19.971-19.971V19.971C285.012,8.941,276.07,0,265.041,0z"/>
<g>
</g>
<g>
</g>
<g>
</g>
<g>
</g>
<g>
</g>
<g>
</g>
<g>
</g>
<g>
</g>
<g>
</g>
<g>
</g>
<g>
</g>
<g>
</g>
<g>
</g>
<g>
</g>
<g>
</g>
</svg>
