<?xml version="1.0" encoding="iso-8859-1"?>
<!-- Generator: Adobe Illustrator 19.0.0, SVG Export Plug-In . SVG Version: 6.00 Build 0)  -->
<svg version="1.1" id="Capa_1" xmlns="http://www.w3.org/2000/svg" xmlns:xlink="http://www.w3.org/1999/xlink" x="0px" y="0px"
	 viewBox="0 0 511.999 511.999" style="enable-background:new 0 0 511.999 511.999;" xml:space="preserve">
<g>
	<path style="fill:#F895C6;" d="M474.752,187.329c7.287,0,18.5,5.029,25.581,8.995c3.564,1.996,8.092,0.391,9.516-3.439
		c1.903-5.116,2.15-10.765,2.15-13.43s-0.247-8.313-2.15-13.43c-1.424-3.829-5.952-5.435-9.516-3.439
		c-7.081,3.966-18.295,8.995-25.581,8.995V187.329z"/>
	<path style="fill:#F895C6;" d="M137.719,224.673l-32.648-36.043c-14.208-15.449-35.603-20.329-54.34-14.243
		c-4.242,1.378-8.897,0.145-11.916-3.138l-8.128-8.638c-6.828-7.422-18.519-7.706-25.695-0.453c-6.722,6.794-6.56,17.82-0.09,24.855
		l9.812,10.468c2.752,2.993,3.592,7.214,2.404,11.102c-5.211,17.055-1.505,36.343,11.439,50.418l32.648,36.043
		c10.249,11.144,24.237,16.791,38.271,16.791c12.575,0,25.186-4.536,35.172-13.72C155.776,278.683,157.151,245.801,137.719,224.673z
		"/>
</g>
<path style="opacity:0.15;fill:#893529;enable-background:new    ;" d="M17.118,208.583c-5.211,17.055-1.505,36.343,11.439,50.418
	l32.648,36.043c10.249,11.143,24.237,16.791,38.271,16.791c12.575,0,25.186-4.536,35.172-13.72c0.519-0.478,1.017-0.97,1.513-1.463
	c-106.991-39.161-87.205-88.789-104.2-101.041c-14.129-10.186-20.177-25.748-21.465-37.221c-1.992,0.875-3.868,2.116-5.502,3.768
	c-6.722,6.794-6.56,17.82-0.09,24.855l9.812,10.469C17.466,200.473,18.306,204.695,17.118,208.583z"/>
<path style="fill:#F895C6;" d="M81.566,486.716c-6,0-12.101-1.046-18.057-3.254c-26.917-9.975-40.65-39.883-30.675-66.8
	l25.744-69.463c9.976-26.917,39.883-40.652,66.8-30.674c26.917,9.975,40.651,39.883,30.675,66.8l-25.743,69.463
	C122.542,473.749,102.684,486.716,81.566,486.716z"/>
<path style="opacity:0.15;fill:#893529;enable-background:new    ;" d="M125.379,316.525c-26.918-9.977-56.824,3.757-66.8,30.674
	l-25.744,69.463c-9.975,26.917,3.758,56.825,30.675,66.8c5.956,2.207,12.056,3.254,18.057,3.254
	c13.961,0,27.368-5.671,37.098-15.568c-58.826,4.967-62.932-49.947-39.748-97.514c2.609-5.354,9.239-7.476,14.372-4.454
	c7.722,4.546,16.721,7.154,26.33,7.154h38.476C163.559,351.414,149.982,325.643,125.379,316.525z"/>
<path style="fill:#F895C6;" d="M325.029,486.716c-21.119,0-40.975-12.965-48.743-33.928l-25.744-69.463
	c-9.975-26.917,3.758-56.825,30.675-66.8c26.917-9.981,56.825,3.756,66.8,30.674l25.743,69.463
	c9.976,26.917-3.757,56.825-30.674,66.8C337.132,485.67,331.028,486.716,325.029,486.716z"/>
<path style="opacity:0.15;fill:#893529;enable-background:new    ;" d="M325.029,486.716c5.998,0,12.103-1.046,18.057-3.254
	c12.189-4.517,21.662-13.128,27.466-23.692c-58.674,1.218-75.667-89.453-75.868-146.284c-4.502,0.403-9.025,1.391-13.467,3.038
	c-26.917,9.975-40.651,39.883-30.675,66.8l25.744,69.463C284.055,473.751,303.91,486.716,325.029,486.716z"/>
<path style="fill:#F895C6;" d="M310.525,308.713c-9.852,0-19.81-2.795-28.64-8.64c-23.937-15.844-30.498-48.095-14.655-72.032
	l12.826-19.378c15.844-23.937,48.092-30.499,72.032-14.654c23.937,15.844,30.499,48.095,14.655,72.032l-12.826,19.378
	C343.917,300.525,327.379,308.713,310.525,308.713z"/>
<path style="opacity:0.15;fill:#893529;enable-background:new    ;" d="M352.088,194.009c-23.94-15.844-56.188-9.283-72.032,14.654
	l-12.826,19.378c-15.844,23.937-9.283,56.188,14.655,72.032c8.824,5.84,18.772,8.635,28.617,8.64
	c-17.384-19.218-11.746-51.01-2.954-69.317c1.936-4.031,7.036-5.443,10.741-2.939c15.725,10.625,42.045,15.393,55.713,12.821
	C378.85,228.692,370.752,206.363,352.088,194.009z"/>
<path style="fill:#D76976;" d="M274.706,358.192H131.89c-28.706,0-51.977-23.271-51.977-51.977s23.271-51.977,51.977-51.977h142.816
	c28.706,0,51.977,23.271,51.977,51.977S303.412,358.192,274.706,358.192z"/>
<path style="fill:#F895C6;" d="M357.043,192.46c-22.236,0-42.813-14.381-49.674-36.747l-19.386-63.197
	c-8.419-27.444,7.005-56.517,34.448-64.935c27.444-8.417,56.517,7.005,64.935,34.448l19.386,63.197
	c8.419,27.445-7.005,56.517-34.448,64.936C367.227,191.719,362.091,192.46,357.043,192.46z"/>
<path style="opacity:0.15;fill:#893529;enable-background:new    ;" d="M307.369,155.713c6.861,22.366,27.438,36.747,49.674,36.747
	c5.047,0,10.184-0.742,15.261-2.299c10.197-3.128,18.729-9.111,25.001-16.799c-56.668-4.973-96.277-93.627-79.578-144.084
	c-24.465,10.135-37.668,37.404-29.744,63.237L307.369,155.713z"/>
<path style="fill:#D76976;" d="M437.51,231.433h-75.527c-28.706,0-51.977-23.271-51.977-51.977s23.271-51.977,51.977-51.977h75.527
	c28.706,0,51.977,23.271,51.977,51.977S466.216,231.433,437.51,231.433z"/>
<path style="opacity:0.2;fill:#893529;enable-background:new    ;" d="M361.983,231.433h75.527c10.146,0,19.605-2.917,27.606-7.944
	c-112.493,4.349-132.522-69.316-108.252-95.757c-26.302,2.572-46.857,24.746-46.857,51.724
	C310.006,208.162,333.277,231.433,361.983,231.433z"/>
<path style="fill:#495059;" d="M428.583,181.083c-4.143,0-7.5-3.357-7.5-7.5c0-3.815-3.103-6.919-6.918-6.919
	s-6.919,3.104-6.919,6.919c0,4.143-3.357,7.5-7.5,7.5s-7.5-3.357-7.5-7.5c0-12.086,9.833-21.919,21.919-21.919
	s21.918,9.833,21.918,21.919C436.083,177.726,432.726,181.083,428.583,181.083z"/>
<path style="opacity:0.2;fill:#893529;enable-background:new    ;" d="M220.096,358.192
	c-59.957-17.879-86.126-80.224-75.161-103.954H131.89c-28.706,0-51.977,23.271-51.977,51.977s23.271,51.977,51.977,51.977
	L220.096,358.192L220.096,358.192z"/>
<g>
</g>
<g>
</g>
<g>
</g>
<g>
</g>
<g>
</g>
<g>
</g>
<g>
</g>
<g>
</g>
<g>
</g>
<g>
</g>
<g>
</g>
<g>
</g>
<g>
</g>
<g>
</g>
<g>
</g>
</svg>
