<?xml version="1.0" encoding="iso-8859-1"?>
<!-- Generator: Adobe Illustrator 19.0.0, SVG Export Plug-In . SVG Version: 6.00 Build 0)  -->
<svg version="1.1" id="Capa_1" xmlns="http://www.w3.org/2000/svg" xmlns:xlink="http://www.w3.org/1999/xlink" x="0px" y="0px"
	 viewBox="0 0 512 512" style="enable-background:new 0 0 512 512;" xml:space="preserve">
<path style="fill:#9E9E9E;" d="M166.296,121.738C50.994,96.023,7.726,135.856,37.945,159.894s39.147,58.667,39.147,58.667
	L166.296,121.738z"/>
<path style="fill:#D2D2D2;" d="M492.163,262.29c0-50.572-30.373-98.535-70.073-128.031C376.318,100.25,316.874,91.45,261.282,97.238
	c-87.146,9.075-171.623,51.917-216.677,129.302c-11.186,19.213-20.806,40.539-25.203,62.469h472.761L492.163,262.29L492.163,262.29z
	"/>
<path style="fill:#B8B8B8;" d="M302.489,97.238c3.446-0.359,6.906-0.66,10.377-0.904c-17.221-1.263-34.582-0.865-51.584,0.904
	c-87.146,9.075-171.623,51.917-216.677,129.302c-11.186,19.213-20.806,40.54-25.203,62.469h41.207
	c4.397-21.93,14.017-43.256,25.203-62.469C130.866,149.155,215.343,106.312,302.489,97.238z"/>
<ellipse style="fill:#EFEDEE;" cx="328.113" cy="278.705" rx="123.797" ry="83.785"/>
<g>
	<path style="fill:#3A484A;" d="M233.97,202.343c-4.267,0-7.726-3.459-7.726-7.726v-17.038c0-4.267,3.459-7.726,7.726-7.726
		s7.726,3.459,7.726,7.726v17.038C241.696,198.883,238.237,202.343,233.97,202.343z"/>
	<path style="fill:#3A484A;" d="M422.256,202.343c-4.267,0-7.726-3.459-7.726-7.726v-17.038c0-4.267,3.459-7.726,7.726-7.726
		s7.726,3.459,7.726,7.726v17.038C429.982,198.883,426.523,202.343,422.256,202.343z"/>
	<path style="fill:#3A484A;" d="M328.113,234.811c-9.738,0-18.88-4.069-25.083-11.165c-2.808-3.213-2.481-8.094,0.732-10.902
		c3.213-2.808,8.093-2.481,10.902,0.732c3.267,3.739,8.169,5.882,13.448,5.882c5.279,0,10.179-2.144,13.447-5.881
		c2.808-3.213,7.689-3.54,10.902-0.732c3.213,2.808,3.541,7.689,0.732,10.902C346.993,230.742,337.85,234.811,328.113,234.811z"/>
	<path style="fill:#3A484A;" d="M158.224,236.734c-1.622,0.01-3.258-0.475-4.642-1.516c-10.918-8.222-15.028-19.345-16.508-25.244
		c-1.037-4.139,1.477-8.335,5.616-9.374c4.137-1.037,8.335,1.476,9.374,5.616c1.2,4.787,4.051,11.564,10.815,16.657
		c3.409,2.567,4.091,7.411,1.525,10.82C162.934,235.642,160.596,236.719,158.224,236.734z"/>
	<path style="fill:#3A484A;" d="M134.279,250.328c-1.618,0-3.249-0.506-4.642-1.555c-10.917-8.221-15.028-19.344-16.508-25.244
		c-1.037-4.139,1.476-8.336,5.616-9.374c4.137-1.037,8.335,1.475,9.374,5.614c1.201,4.788,4.052,11.565,10.815,16.658
		c3.409,2.567,4.091,7.411,1.524,10.82C138.938,249.265,136.623,250.328,134.279,250.328z"/>
</g>
<path style="fill:#B3F0FF;" d="M512,317.679v-49.365c-23.34-10.078-49.803-10.078-73.143,0l0,0
	c-23.34,10.078-49.803,10.078-73.143,0l0,0c-23.34-10.078-49.803-10.078-73.143,0l0,0c-23.34,10.078-49.803,10.078-73.143,0l0,0
	c-23.34-10.078-49.803-10.078-73.143,0l0,0c-23.34,10.078-49.803,10.078-73.143,0l0,0c-23.34-10.078-49.803-10.078-73.143,0v49.365
	l19.215,19.215h461.365L512,317.679z"/>
<polygon style="fill:#57D0E6;" points="0,416.409 0,367.044 19.215,336.894 480.579,336.894 512,367.044 512,416.409 "/>
<path style="fill:#85E7FF;" d="M0,367.044c23.34-10.078,49.803-10.078,73.143,0l0,0c23.34,10.078,49.803,10.078,73.143,0l0,0
	c23.34-10.078,49.803-10.078,73.143,0l0,0c23.34,10.078,49.803,10.078,73.143,0l0,0c23.34-10.078,49.803-10.078,73.143,0l0,0
	c23.34,10.078,49.803,10.078,73.143,0l0,0c23.34-10.078,49.803-10.078,73.143,0v-49.365c-23.34-10.078-49.803-10.078-73.143,0l0,0
	c-23.34,10.078-49.803,10.078-73.143,0l0,0c-23.34-10.078-49.803-10.078-73.143,0l0,0c-23.34,10.078-49.803,10.078-73.143,0l0,0
	c-23.34-10.078-49.803-10.078-73.143,0l0,0c-23.34,10.078-49.803,10.078-73.143,0l0,0C49.803,307.6,23.34,307.6,0,317.679V367.044z"
	/>
<g>
</g>
<g>
</g>
<g>
</g>
<g>
</g>
<g>
</g>
<g>
</g>
<g>
</g>
<g>
</g>
<g>
</g>
<g>
</g>
<g>
</g>
<g>
</g>
<g>
</g>
<g>
</g>
<g>
</g>
</svg>
