<svg height="512pt" viewBox="0 -50 512.00051 512" width="512pt" xmlns="http://www.w3.org/2000/svg"><path d="m256 412.234375c473.855469-248.367187 178.105469-532.679687 0-358.617187-178.105469-174.0625-473.855469 110.25 0 358.617187zm0 0" fill="#eb6da8"/><path d="m256.007812 368.242188c-178.679687-98.535157-227.277343-197.707032-212.207031-258.929688 9.621094-39.070312 45.78125-65.316406 89.984375-65.316406 23.070313 0 58.003906 7.265625 93.421875 41.878906l28.804688 28.148438 28.800781-28.148438c35.417969-34.613281 70.351562-41.878906 93.421875-41.878906 44.191406 0 80.347656 26.246094 89.964844 65.3125 15.070312 61.230468-33.519531 160.40625-212.191407 258.933594zm0 0" fill="#ff98c9"/><g fill="#3a484a"><path d="m163.261719 197.152344c-4.265625 0-7.726563-3.457032-7.726563-7.726563v-16.78125c0-4.269531 3.460938-7.726562 7.726563-7.726562 4.269531 0 7.726562 3.457031 7.726562 7.726562v16.78125c0 4.269531-3.457031 7.726563-7.726562 7.726563zm0 0"/><path d="m348.734375 197.152344c-4.265625 0-7.722656-3.457032-7.722656-7.726563v-16.78125c0-4.269531 3.457031-7.726562 7.722656-7.726562 4.269531 0 7.726563 3.457031 7.726563 7.726562v16.78125c0 4.269531-3.457032 7.726563-7.726563 7.726563zm0 0"/><path d="m256 206.113281c-11.148438 0-21.613281-4.65625-28.703125-12.769531-2.8125-3.214844-2.480469-8.09375.730469-10.902344 3.210937-2.808594 8.09375-2.480468 10.902344.730469 4.160156 4.757813 10.378906 7.488281 17.070312 7.488281s12.914062-2.730468 17.070312-7.488281c2.808594-3.210937 7.691407-3.539063 10.902344-.730469 3.214844 2.808594 3.542969 7.6875.734375 10.902344-7.09375 8.113281-17.558593 12.769531-28.707031 12.769531zm0 0"/></g></svg>