<svg id="Capa_1" enable-background="new 0 0 497 497" height="512" viewBox="0 0 497 497" width="512" xmlns="http://www.w3.org/2000/svg"><g><path d="m65.522 11.394c25.509-18.987 61.579-13.7 80.566 11.809 60.994 81.945 52.775 167.335 52.775 167.335s-84.156-16.633-145.15-98.578c-18.987-25.509-13.7-61.58 11.809-80.566z" fill="#ff9dd3"/><path d="m91.211 71.232c.869-5.927 3.994-11.161 8.799-14.738 2.113-1.572 4.433-2.747 6.896-3.491 9.016-2.724 18.857.527 24.486 8.091 24.566 33.005 36.171 66.903 41.582 93.427-23.856-12.796-52.997-33.64-77.564-66.645-3.576-4.806-5.067-10.717-4.199-16.644z" fill="#e2e2e2"/><path d="m431.478 11.394c-25.509-18.987-61.579-13.7-80.566 11.809-60.994 81.945-52.775 167.335-52.775 167.335s84.156-16.633 145.15-98.578c18.987-25.509 13.7-61.58-11.809-80.566z" fill="#ff9dd3"/><path d="m405.789 71.232c-.869-5.927-3.994-11.161-8.799-14.738-2.113-1.572-4.433-2.747-6.896-3.491-9.016-2.724-18.857.527-24.486 8.091-24.566 33.005-36.171 66.903-41.582 93.427 23.856-12.796 52.997-33.64 77.564-66.645 3.576-4.806 5.067-10.717 4.199-16.644z" fill="#e2e2e2"/><path d="m97.454 421.643c34.494 45.768 89.31 75.357 151.046 75.357s116.552-29.589 151.046-75.357v-48.655h-302.092z" fill="#80d8e6"/><path d="m81.325 324.991c0-156.574 58.991-246.32 167.175-246.32s167.175 89.746 167.175 246.32l-16.129 47.997h-302.092z" fill="#b08bd7"/><path d="m164.208 372.987h-66.754v48.655c34.494 45.769 89.31 75.358 151.046 75.358.187 0 .371-.008.558-.008-37.933-30.601-67.715-73.652-84.85-124.005z" fill="#3ccadd"/><path d="m433.478 347.047c-5.787 27.543-17.573 52.89-33.932 74.595-18.055 8.476-39.389 7.292-56.541-3.521-9.629-6.068-20.562-9.097-31.495-9.097-10.943 0-21.886 3.029-31.505 9.097s-20.562 9.097-31.505 9.097-21.886-3.029-31.505-9.097-20.562-9.097-31.505-9.097c-10.933 0-21.866 3.029-31.495 9.097s-20.562 9.097-31.505 9.097c-8.556 0-17.112-1.856-25.036-5.577-16.359-21.705-28.145-47.052-33.932-74.595-2.548-12.137 7.041-22.057 17.804-22.057 3.21 0 6.53.883 9.659 2.859 9.629 6.068 20.562 9.097 31.505 9.097s21.876-3.029 31.505-9.097 20.562-9.097 31.495-9.097c10.943 0 21.886 3.029 31.505 9.097s20.562 9.097 31.505 9.097 21.886-3.029 31.505-9.097 20.562-9.097 31.505-9.097c10.933 0 21.866 3.029 31.495 9.097 19.248 12.137 43.762 12.137 63.01 0 13.611-8.584 30.773 3.442 27.463 19.199z" fill="#ffc8e5"/><path d="m147.981 273.676c0-75.001 26.34-142.923 68.955-192.21-88.036 16.233-135.611 102.929-135.611 243.525l16.129 47.997h66.754c-10.472-30.775-16.227-64.27-16.227-99.312z" fill="#a47cd1"/><path d="m152.791 328.579c-19.083 11.404-42.966 11.144-61.806-.729-13.566-8.567-30.781 3.393-27.463 19.198 5.787 27.543 17.573 52.89 33.932 74.595 18.011 8.458 39.364 7.304 56.541-3.521 7.831-4.935 16.523-7.859 25.377-8.78-12.366-24.739-21.454-51.922-26.581-80.763z" fill="#ff9dd3"/><path d="m356.009 213.28c-5.455-17.417-12.409-32.497-20.797-44.962-20.161-29.95-48.516-44.514-86.712-44.514s-66.551 14.564-86.712 44.514c-8.388 12.465-15.342 27.545-20.797 44.962-5.315 16.969.992 35.428 15.646 45.502 19.983 13.735 45.166 17.536 68.313 10.31 15.335-4.787 31.765-4.787 47.099 0 23.147 7.226 48.33 3.425 68.313-10.31 14.655-10.074 20.962-28.533 15.647-45.502z" fill="#e2e2e2"/><g fill="#423e4f"><path d="m181.145 188.308c-4.143 0-7.5 3.358-7.5 7.5v12.926c0 4.142 3.357 7.5 7.5 7.5s7.5-3.358 7.5-7.5v-12.926c0-4.142-3.358-7.5-7.5-7.5z"/><path d="m315.683 188.308c-4.143 0-7.5 3.358-7.5 7.5v12.926c0 4.142 3.357 7.5 7.5 7.5s7.5-3.358 7.5-7.5v-12.926c0-4.142-3.358-7.5-7.5-7.5z"/><path d="m279.752 208.941c-4.143 0-7.5 3.358-7.5 7.5 0 4.451-3.621 8.072-8.071 8.072s-8.071-3.621-8.071-8.072c0-4.142-3.357-7.5-7.5-7.5s-7.5 3.358-7.5 7.5c0 4.451-3.621 8.072-8.071 8.072s-8.071-3.621-8.071-8.072c0-4.142-3.357-7.5-7.5-7.5s-7.5 3.358-7.5 7.5c0 12.722 10.35 23.072 23.071 23.072 5.996 0 11.464-2.301 15.571-6.064 4.107 3.763 9.575 6.064 15.571 6.064 12.722 0 23.071-10.35 23.071-23.072 0-4.142-3.357-7.5-7.5-7.5z"/></g></g></svg>