<?xml version="1.0" encoding="iso-8859-1"?>
<!-- Generator: Adobe Illustrator 19.0.0, SVG Export Plug-In . SVG Version: 6.00 Build 0)  -->
<svg version="1.1" id="Capa_1" xmlns="http://www.w3.org/2000/svg" xmlns:xlink="http://www.w3.org/1999/xlink" x="0px" y="0px"
	 viewBox="0 0 512.001 512.001" style="enable-background:new 0 0 512.001 512.001;" xml:space="preserve">
<path style="fill:#394049;" d="M418.967,169.823H385.85v-46.926c0-4.126-3.358-7.484-7.484-7.484H133.641
	c-4.126,0-7.484,3.358-7.484,7.484v46.926H93.04v-46.926c0-22.387,18.214-40.601,40.601-40.601h244.724
	c22.387,0,40.601,18.214,40.601,40.601V169.823z"/>
<path style="fill:#76C9D2;" d="M488.039,169.823H23.96c-13.232,0-23.96,10.728-23.96,23.96v211.961
	c0,13.234,10.728,23.961,23.961,23.961H488.04c13.234,0,23.961-10.728,23.961-23.961V193.783
	C512,180.551,501.272,169.823,488.039,169.823z"/>
<path style="opacity:0.15;enable-background:new    ;" d="M0,397.011v8.733c0,13.234,10.728,23.961,23.961,23.961H488.04
	c13.232,0,23.961-10.728,23.961-23.961v-8.733H0z"/>
<circle style="fill:#0081C6;" cx="104.959" cy="292.037" r="83.344"/>
<circle style="fill:#394049;" cx="104.959" cy="292.037" r="61.09"/>
<circle style="fill:#0081C6;" cx="407.04" cy="292.037" r="83.344"/>
<g>
	<circle style="fill:#394049;" cx="407.04" cy="292.037" r="61.09"/>
	<path style="fill:#394049;" d="M194.532,212.821c-4.573,0-8.279-3.706-8.279-8.279v-2.884c0-4.573,3.706-8.279,8.279-8.279
		s8.279,3.706,8.279,8.279v2.884C202.811,209.115,199.105,212.821,194.532,212.821z"/>
	<path style="fill:#394049;" d="M317.474,212.821c-4.573,0-8.279-3.706-8.279-8.279v-2.884c0-4.573,3.706-8.279,8.279-8.279
		s8.279,3.706,8.279,8.279v2.884C325.754,209.115,322.048,212.821,317.474,212.821z"/>
	<path style="fill:#394049;" d="M266.325,227.641c-3.815,0-7.367-1.155-10.323-3.134c-2.955,1.979-6.507,3.134-10.323,3.134
		c-10.256,0-18.601-8.345-18.601-18.602c0-4.573,3.706-8.279,8.279-8.279c4.572,0,8.279,3.706,8.279,8.279
		c0,1.126,0.916,2.043,2.042,2.043c1.127,0,2.043-0.916,2.043-2.043c0-4.573,3.706-8.279,8.279-8.279
		c4.573,0,8.279,3.706,8.279,8.279c0,1.126,0.916,2.043,2.043,2.043c1.126,0,2.044-0.916,2.044-2.043
		c0-4.573,3.706-8.279,8.279-8.279s8.279,3.706,8.279,8.279C284.928,219.296,276.583,227.641,266.325,227.641z"/>
</g>
<g>
	<path style="fill:#E6595A;" d="M203.329,233.532h-17.594c-4.573,0-8.279-3.706-8.279-8.279s3.706-8.279,8.279-8.279h17.594
		c4.573,0,8.279,3.706,8.279,8.279S207.902,233.532,203.329,233.532z"/>
	<path style="fill:#E6595A;" d="M326.27,233.532h-17.593c-4.573,0-8.279-3.706-8.279-8.279s3.706-8.279,8.279-8.279h17.593
		c4.573,0,8.279,3.706,8.279,8.279S330.843,233.532,326.27,233.532z"/>
</g>
<path style="opacity:0.15;enable-background:new    ;" d="M287.03,299.76h-62.055c-4.535,0-8.212,3.677-8.212,8.212v20.505
	c0,4.535,3.677,8.212,8.212,8.212h62.055c4.536,0,8.212-3.677,8.212-8.212v-20.505C295.242,303.437,291.566,299.76,287.03,299.76z"
	/>
<path style="fill:#394049;" d="M231.069,397.011h-20.755c-2.307,0-4.178-1.871-4.178-4.178v-16.577c0-2.308,1.871-4.178,4.178-4.178
	h20.755V397.011z"/>
<rect x="231.068" y="372.08" style="fill:#E6595A;" width="24.934" height="24.934"/>
<rect x="256.005" y="372.08" style="fill:#394049;" width="24.934" height="24.934"/>
<g>
	<path style="fill:#FFFFFF;" d="M301.693,397.011h-20.755v-24.934h20.755c2.307,0,4.178,1.871,4.178,4.178v16.577
		C305.871,395.141,304,397.011,301.693,397.011z"/>
	<path style="fill:#FFFFFF;" d="M295.242,277.502h-78.485c-4.573,0-8.279-3.706-8.279-8.279s3.706-8.279,8.279-8.279h78.485
		c4.573,0,8.279,3.706,8.279,8.279S299.815,277.502,295.242,277.502z"/>
</g>
<rect x="174.041" y="82.296" style="fill:#76C9D2;" width="163.918" height="33.117"/>
<g>
</g>
<g>
</g>
<g>
</g>
<g>
</g>
<g>
</g>
<g>
</g>
<g>
</g>
<g>
</g>
<g>
</g>
<g>
</g>
<g>
</g>
<g>
</g>
<g>
</g>
<g>
</g>
<g>
</g>
</svg>
