<?xml version="1.0" encoding="iso-8859-1"?>
<!-- Generator: Adobe Illustrator 19.0.0, SVG Export Plug-In . SVG Version: 6.00 Build 0)  -->
<svg version="1.1" id="Capa_1" xmlns="http://www.w3.org/2000/svg" xmlns:xlink="http://www.w3.org/1999/xlink" x="0px" y="0px"
	 viewBox="0 0 512 512" style="enable-background:new 0 0 512 512;" xml:space="preserve">
<g>
	<path style="fill:#E5E5E5;" d="M337.988,442.306H83.109c-30.803,0-57.119-22.207-62.299-52.571L0.25,269.223
		c-1.796-10.525,6.313-20.134,16.99-20.134h477.824c13.328,0,21.416,14.701,14.283,25.959l-70.995,112.039
		C416.565,421.469,378.693,442.306,337.988,442.306z"/>
	<path style="fill:#E5E5E5;" d="M378.664,160.527H77.058c-10.407,0-18.843,8.436-18.843,18.843v69.718h339.291V179.37
		C397.507,168.964,389.07,160.527,378.664,160.527z"/>
</g>
<path style="fill:#D77458;" d="M0.25,269.223l7.467,43.771h477.584l24.046-37.947c7.134-11.258-0.955-25.959-14.283-25.959H17.24
	C6.563,249.088-1.546,258.697,0.25,269.223z"/>
<path style="fill:#445258;" d="M191.748,69.694h-57.867c-5.513,0-9.983,4.469-9.983,9.983v80.851h77.832V79.676
	C201.731,74.163,197.261,69.694,191.748,69.694z"/>
<path style="fill:#D77458;" d="M191.748,69.694h-57.867c-5.513,0-9.983,4.469-9.983,9.983v22.979h77.832v-22.98
	C201.731,74.163,197.261,69.694,191.748,69.694z"/>
<path style="opacity:0.1;enable-background:new    ;" d="M191.748,69.694h-15.485c5.513,0,9.983,4.469,9.983,9.983v60.75h-62.347
	v20.101h77.832V79.676C201.731,74.163,197.261,69.694,191.748,69.694z"/>
<path style="fill:#445258;" d="M321.841,69.694h-57.867c-5.513,0-9.983,4.469-9.983,9.983v80.851h77.832V79.676
	C331.823,74.163,327.354,69.694,321.841,69.694z"/>
<path style="fill:#D77458;" d="M321.841,69.694h-57.867c-5.513,0-9.983,4.469-9.983,9.983v22.979h77.832v-22.98
	C331.823,74.163,327.354,69.694,321.841,69.694z"/>
<path style="opacity:0.1;enable-background:new    ;" d="M321.841,69.694h-15.485c5.513,0,9.983,4.469,9.983,9.983v60.75h-62.347
	v20.101h77.832V79.676C331.823,74.163,327.354,69.694,321.841,69.694z"/>
<g>
	<path style="fill:#445258;" d="M349.263,405.112c-10.749,0-21.138-4.493-28.502-12.328c-2.837-3.018-2.69-7.765,0.328-10.602
		c3.018-2.836,7.765-2.689,10.602,0.328c4.607,4.902,10.849,7.602,17.573,7.602s12.965-2.7,17.573-7.602
		c2.836-3.018,7.583-3.166,10.602-0.328c3.018,2.837,3.165,7.584,0.327,10.602C370.4,400.619,360.011,405.112,349.263,405.112z"/>
	<path style="fill:#445258;" d="M349.263,405.112c-4.142,0-7.5-3.357-7.5-7.5V338.56c0-4.143,3.358-7.5,7.5-7.5s7.5,3.357,7.5,7.5
		v59.052C356.763,401.755,353.405,405.112,349.263,405.112z"/>
	<path style="fill:#445258;" d="M366.731,363.271h-34.938c-4.142,0-7.5-3.357-7.5-7.5s3.358-7.5,7.5-7.5h34.938
		c4.142,0,7.5,3.357,7.5,7.5S370.874,363.271,366.731,363.271z"/>
</g>
<g>
	<circle style="fill:#97D68F;" cx="82.42" cy="360.86" r="20.295"/>
	<circle style="fill:#97D68F;" cx="163.81" cy="360.86" r="20.295"/>
	<circle style="fill:#97D68F;" cx="245.21" cy="360.86" r="20.295"/>
</g>
<g>
	<path style="fill:#445258;" d="M82.422,388.651c-15.326,0-27.795-12.469-27.795-27.795c0-15.326,12.469-27.795,27.795-27.795
		s27.795,12.469,27.795,27.795C110.217,376.183,97.748,388.651,82.422,388.651z M82.422,348.061c-7.055,0-12.795,5.74-12.795,12.795
		c0,7.055,5.74,12.795,12.795,12.795s12.795-5.74,12.795-12.795C95.217,353.802,89.477,348.061,82.422,348.061z"/>
	<path style="fill:#445258;" d="M163.815,388.651c-15.326,0-27.795-12.469-27.795-27.795c0-15.326,12.469-27.795,27.795-27.795
		s27.794,12.469,27.794,27.795C191.61,376.183,179.141,388.651,163.815,388.651z M163.815,348.061
		c-7.055,0-12.795,5.74-12.795,12.795c0,7.055,5.74,12.795,12.795,12.795s12.794-5.74,12.794-12.795
		C176.61,353.802,170.87,348.061,163.815,348.061z"/>
	<path style="fill:#445258;" d="M245.209,388.651c-15.326,0-27.795-12.469-27.795-27.795c0-15.326,12.469-27.795,27.795-27.795
		s27.795,12.469,27.795,27.795C273.003,376.183,260.535,388.651,245.209,388.651z M245.209,348.061
		c-7.055,0-12.795,5.74-12.795,12.795c0,7.055,5.74,12.795,12.795,12.795s12.795-5.74,12.795-12.795
		C258.003,353.802,252.264,348.061,245.209,348.061z"/>
	<path style="fill:#445258;" d="M166.882,209.538c-4.142,0-7.5-3.357-7.5-7.5v-10.122c0-4.143,3.358-7.5,7.5-7.5s7.5,3.357,7.5,7.5
		v10.122C174.382,206.181,171.024,209.538,166.882,209.538z"/>
	<path style="fill:#445258;" d="M288.84,209.538c-4.142,0-7.5-3.357-7.5-7.5v-10.122c0-4.143,3.358-7.5,7.5-7.5s7.5,3.357,7.5,7.5
		v10.122C296.34,206.181,292.982,209.538,288.84,209.538z"/>
	<path style="fill:#445258;" d="M227.861,217.312c-8.329,0-16.25-3.607-21.731-9.898c-2.721-3.123-2.396-7.86,0.727-10.581
		c3.123-2.722,7.861-2.395,10.582,0.728c2.632,3.02,6.431,4.752,10.423,4.752s7.791-1.732,10.423-4.752
		c2.72-3.124,7.458-3.448,10.581-0.728c3.123,2.721,3.448,7.458,0.727,10.581C244.111,213.704,236.19,217.312,227.861,217.312z"/>
</g>
<path style="opacity:0.1;enable-background:new    ;" d="M378.664,160.527H349.89c10.407,0,18.843,8.436,18.843,18.843v50.805
	H58.215v18.913h339.291V179.37C397.507,168.964,389.07,160.527,378.664,160.527z"/>
<path style="opacity:0.1;enable-background:new    ;" d="M495.064,249.088h-39.091c13.328,0,21.416,14.701,14.282,25.959
	L399.26,387.086c-21.787,34.383-59.659,55.22-100.364,55.22h39.092c40.705,0,78.576-20.837,100.364-55.22l70.995-112.039
	C516.48,263.789,508.392,249.088,495.064,249.088z"/>
<g>
</g>
<g>
</g>
<g>
</g>
<g>
</g>
<g>
</g>
<g>
</g>
<g>
</g>
<g>
</g>
<g>
</g>
<g>
</g>
<g>
</g>
<g>
</g>
<g>
</g>
<g>
</g>
<g>
</g>
</svg>
