<svg id="Capa_1" enable-background="new 0 0 497 497" height="512" viewBox="0 0 497 497" width="512" xmlns="http://www.w3.org/2000/svg"><g><path d="m336.575 478.366c5.41 14.735 21.742 22.295 36.477 16.884 14.735-5.41 22.295-21.742 16.884-36.477l-12.54-34.153-53.513 19.182z" fill="#423e4f"/><path d="m215.79 478.366c-5.41 14.735-21.742 22.295-36.477 16.884-14.735-5.41-22.295-21.742-16.884-36.477l12.54-34.153 53.513 19.182z" fill="#423e4f"/><path d="m147.614 94.294-18.2 33.406-39.642-3.15c-4.959-9.416-7.629-15.65-8.081-16.704-7.007-16.604.773-35.737 17.377-42.744 16.574-6.997 35.687.753 42.714 17.317.13.281 2.098 4.788 5.832 11.875z" fill="#da9d81"/><path d="m198.65 313.777s-2.481 49.351-64.169 102.682c0 0 44.139 46.314 96.971 44.209 0 0 25.74-54.466 38.238-88.939 2.198-6.064 10.787-6.064 12.986 0 12.498 34.473 38.238 88.939 38.238 88.939 52.832 2.105 96.971-44.209 96.971-44.209-61.688-53.331-64.169-102.682-64.169-102.682l-77.533-20.767z" fill="#5c586f"/><path d="m198.65 313.777s-2.481 49.352-64.169 102.682c0 0 8.13 8.526 21.579 18.094 48.587-35.338 63.988-107.205 67.448-127.435z" fill="#423e4f"/><g><path d="m353.716 313.777h-155.066c-11.324-28.6-13.381-52.652-13.381-66.355 0-7.81.673-12.257.673-12.257-50.604-32.886-82.306-84.254-96.169-110.615l57.842-30.256c9.828 18.632 31.903 55.132 64.98 80.007l153.831 60.864c-.002 0 5.058 33.699-12.71 78.612z" fill="#a47cd1"/></g><path d="m326.025 201.024s-7.352 56.817-46.157 83.279c-38.805-26.462-46.157-83.279-46.157-83.279z" fill="#da9d81"/><path d="m330.432 6.588c-62.992-21.663-131.625 11.845-153.288 74.837l228.125 78.451c21.662-62.992-11.845-131.625-74.837-153.288z" fill="#5c586f"/><path d="m204.144 81.426c15.636-45.47 55.746-75.579 100.542-80.664-1.715-.194-3.428-.342-5.14-.462-.006 0-.013 0-.019-.001-53.039-3.696-104.215 28.288-122.383 81.125 0 0-.001.001-.001.002z" fill="#423e4f"/><path d="m302.823 86.869c-73.385-76.924-125.68-5.444-125.68-5.444-21.666 63.002 11.845 131.625 74.837 153.288s131.622-11.835 153.288-74.837c.001 0 2.73-88.525-102.445-73.007z" fill="#da9d81"/><path d="m301.597 241c1.047-.091 2.092-.194 3.134-.313-8.6-.975-17.226-2.888-25.75-5.819-62.992-21.663-96.503-90.286-74.837-153.288 3.47-10.091 8.151-19.42 13.815-27.892-25.57 7.07-40.815 27.892-40.815 27.892-28.455 82.74 38.127 167.209 124.453 159.42z" fill="#c7856a"/><g><g><g><path d="m360.348 164.04c-12.638-4.169-25.575.609-28.895 10.673s4.233 21.603 16.871 25.772 25.575-.609 28.895-10.674c3.32-10.063-4.233-21.602-16.871-25.771z" fill="#e6e6e6"/></g></g></g><path d="m211.863 109.408c-12.638-4.169-25.575.609-28.895 10.674s4.233 21.603 16.871 25.772 25.575-.609 28.895-10.673c3.32-10.065-4.233-21.604-16.871-25.773z" fill="#e6e6e6"/><g><g><path d="m223.323 123.436c-3.917-1.347-6-5.614-4.653-9.531l3.955-11.5c1.346-3.917 5.612-6 9.531-4.654 3.917 1.347 6 5.614 4.653 9.531l-3.955 11.5c-1.337 3.89-5.587 6.009-9.531 4.654z" fill="#423e4f"/></g><g><path d="m345.458 165.008c-5.129 0-8.77-5.063-7.093-9.941l3.955-11.5c1.347-3.917 5.612-6 9.531-4.654 3.917 1.347 6 5.614 4.653 9.531l-3.955 11.5c-1.068 3.11-3.978 5.064-7.091 5.064z" fill="#423e4f"/></g><g><path d="m263 133.977c-1.558-3.838.29-8.212 4.128-9.77 3.836-1.558 8.212.29 9.771 4.128 3.34 8.226 13.15 11.62 20.864 7.175 3.589-2.068 8.175-.835 10.243 2.754s.835 8.175-2.754 10.243c-15.593 8.983-35.491 2.125-42.252-14.53z" fill="#423e4f"/></g></g><path d="m354.589 201.074 17.94 41.384-45.356 17.823-12.91-5.973c-16.353-7.569-23.48-26.964-15.911-43.316 7.569-16.353 26.964-23.47 43.316-15.901z" fill="#f3ae8e"/><path d="m414.86 264.909c-5.511 11.916-17.306 18.933-29.634 18.933-4.578 0-9.236-.974-13.673-3.022l-44.38-20.539 27.415-59.207 44.36 20.529c16.354 7.569 23.482 26.953 15.912 43.306z" fill="#bc9bdd"/></g></svg>