<?xml version="1.0"?>
<svg xmlns="http://www.w3.org/2000/svg" xmlns:xlink="http://www.w3.org/1999/xlink" xmlns:svgjs="http://svgjs.com/svgjs" version="1.1" width="512" height="512" x="0" y="0" viewBox="0 0 497 497" style="enable-background:new 0 0 512 512" xml:space="preserve" class=""><g><path xmlns="http://www.w3.org/2000/svg" d="m233.617 25.677h29.765v168.197h-29.765z" fill="#dadada" data-original="#dadada" style=""/><g xmlns="http://www.w3.org/2000/svg" fill="#5c576e"><path d="m364.818 231.972c-4.291 0-8.548-1.846-11.491-5.415-5.229-6.342-4.327-15.722 2.014-20.951l34.212-28.21c15.9-13.109 37.93-15.33 56.124-5.657l15.357 8.165c7.258 3.858 10.014 12.87 6.155 20.128-3.857 7.259-12.872 10.013-20.127 6.155l-15.357-8.165c-7.527-4.001-16.639-3.082-23.216 2.34l-34.211 28.21c-2.774 2.286-6.127 3.4-9.46 3.4z" fill="#5c576e" data-original="#5c576e" style=""/><path d="m385.835 289.742c-4.144-1.116-7.774-4.005-9.689-8.216-3.401-7.483-.091-16.306 7.392-19.707l40.369-18.346c18.761-8.524 40.611-4.942 55.665 9.128l12.707 11.876c6.006 5.613 6.324 15.031.71 21.035-5.612 6.006-15.033 6.323-21.035.711l-12.707-11.876c-6.228-5.82-15.266-7.302-23.027-3.776l-40.368 18.346c-3.271 1.487-6.798 1.691-10.017.825z" fill="#5c576e" data-original="#5c576e" style=""/><path d="m389.116 342.824c-3.034-3.034-4.739-7.349-4.297-11.955.787-8.182 8.057-14.177 16.239-13.39l44.139 4.244c20.512 1.974 37.66 15.98 43.686 35.686l5.086 16.633c2.404 7.861-2.019 16.181-9.88 18.584-7.86 2.405-16.183-2.022-18.584-9.88l-5.086-16.633c-2.493-8.151-9.586-13.945-18.071-14.762l-44.138-4.243c-3.578-.344-6.737-1.927-9.094-4.284z" fill="#5c576e" data-original="#5c576e" style=""/><path d="m363.129 398.534c-2.141-3.719-2.665-8.329-1.041-12.661 2.887-7.696 11.466-11.595 19.162-8.708l41.518 15.573c19.294 7.239 32.211 25.221 32.906 45.816l.587 17.383c.278 8.215-6.157 15.1-14.372 15.377-8.215.279-15.101-6.159-15.376-14.371l-.587-17.383c-.288-8.519-5.631-15.958-13.612-18.952l-41.517-15.572c-3.366-1.263-6.005-3.613-7.668-6.502z" fill="#5c576e" data-original="#5c576e" style=""/><path d="m132.182 231.972c4.291 0 8.548-1.846 11.491-5.415 5.229-6.342 4.327-15.722-2.014-20.951l-34.212-28.21c-15.9-13.109-37.93-15.33-56.124-5.657l-15.357 8.165c-7.258 3.858-10.014 12.87-6.155 20.128 3.857 7.259 12.872 10.013 20.127 6.155l15.357-8.165c7.527-4.001 16.639-3.082 23.216 2.34l34.211 28.21c2.774 2.286 6.127 3.4 9.46 3.4z" fill="#5c576e" data-original="#5c576e" style=""/><path d="m111.165 289.742c4.144-1.116 7.774-4.005 9.689-8.216 3.401-7.483.091-16.306-7.392-19.707l-40.369-18.346c-18.761-8.524-40.611-4.942-55.665 9.128l-12.707 11.876c-6.006 5.613-6.324 15.031-.71 21.035 5.612 6.006 15.033 6.323 21.035.711l12.707-11.876c6.228-5.82 15.266-7.302 23.027-3.776l40.368 18.346c3.271 1.487 6.798 1.691 10.017.825z" fill="#5c576e" data-original="#5c576e" style=""/><path d="m107.884 342.824c3.034-3.034 4.739-7.349 4.297-11.955-.787-8.182-8.057-14.177-16.239-13.39l-44.139 4.244c-20.512 1.974-37.66 15.98-43.686 35.686l-5.086 16.633c-2.404 7.861 2.019 16.181 9.88 18.584 7.86 2.405 16.183-2.022 18.584-9.88l5.086-16.633c2.493-8.151 9.586-13.945 18.071-14.762l44.138-4.243c3.578-.344 6.737-1.927 9.094-4.284z" fill="#5c576e" data-original="#5c576e" style=""/><path d="m133.871 398.534c2.141-3.719 2.666-8.329 1.041-12.661-2.887-7.696-11.466-11.595-19.162-8.708l-41.518 15.573c-19.294 7.239-32.211 25.221-32.906 45.816l-.587 17.383c-.278 8.215 6.157 15.1 14.372 15.377 8.215.279 15.101-6.159 15.376-14.371l.587-17.383c.288-8.519 5.631-15.958 13.612-18.952l41.517-15.572c3.366-1.263 6.005-3.613 7.668-6.502z" fill="#5c576e" data-original="#5c576e" style=""/></g><path xmlns="http://www.w3.org/2000/svg" d="m141.659 205.606-34.212-28.209c-3.366-2.775-7.008-5.056-10.828-6.846-7.657 7.692-14.628 16.066-20.827 25.014 4.553.137 9.034 1.759 12.72 4.797l34.211 28.21c2.773 2.286 6.126 3.4 9.46 3.4 4.291 0 8.548-1.846 11.491-5.415 5.229-6.342 4.327-15.721-2.015-20.951z" fill="#4f4c5e" data-original="#4f4c5e" style=""/><path xmlns="http://www.w3.org/2000/svg" d="m113.462 261.819-40.369-18.346c-6.261-2.845-12.867-4.334-19.449-4.542-3.472 9.881-6.115 20.146-7.848 30.716 4.833-1.522 10.155-1.269 14.983.924l40.368 18.346c3.272 1.487 6.8 1.691 10.018.824 4.144-1.115 7.774-4.004 9.689-8.216 3.4-7.483.091-16.306-7.392-19.706z" fill="#4f4c5e" data-original="#4f4c5e" style=""/><path xmlns="http://www.w3.org/2000/svg" d="m95.942 317.479-44.139 4.244c-2.352.227-4.656.618-6.908 1.151 1.293 9.983 3.403 19.713 6.247 29.127 1.137-.308 2.308-.534 3.51-.65l44.138-4.244c3.577-.344 6.737-1.928 9.093-4.285 3.034-3.034 4.739-7.349 4.297-11.954-.786-8.181-8.056-14.175-16.238-13.389z" fill="#4f4c5e" data-original="#4f4c5e" style=""/><path xmlns="http://www.w3.org/2000/svg" d="m115.751 377.166-41.518 15.573c-1.38.518-2.724 1.097-4.037 1.722 5.376 8.766 11.469 17.045 18.2 24.756l37.808-14.181c3.365-1.262 6.004-3.612 7.667-6.501 2.141-3.719 2.665-8.329 1.041-12.661-2.886-7.697-11.465-11.595-19.161-8.708z" fill="#4f4c5e" data-original="#4f4c5e" style=""/><path xmlns="http://www.w3.org/2000/svg" d="m355.34 205.606 34.212-28.209c3.366-2.775 7.008-5.056 10.828-6.846 7.657 7.692 14.628 16.066 20.827 25.014-4.553.137-9.034 1.759-12.72 4.797l-34.211 28.21c-2.773 2.286-6.126 3.4-9.46 3.4-4.291 0-8.548-1.846-11.491-5.415-5.229-6.342-4.327-15.721 2.015-20.951z" fill="#4f4c5e" data-original="#4f4c5e" style=""/><path xmlns="http://www.w3.org/2000/svg" d="m383.537 261.819 40.369-18.346c6.261-2.845 12.867-4.334 19.449-4.542 3.472 9.881 6.115 20.146 7.848 30.716-4.833-1.522-10.155-1.269-14.983.924l-40.368 18.346c-3.272 1.487-6.8 1.691-10.018.824-4.144-1.115-7.774-4.004-9.689-8.216-3.4-7.483-.091-16.306 7.392-19.706z" fill="#4f4c5e" data-original="#4f4c5e" style=""/><path xmlns="http://www.w3.org/2000/svg" d="m401.058 317.479 44.139 4.244c2.352.227 4.656.618 6.908 1.151-1.293 9.983-3.403 19.713-6.247 29.127-1.137-.308-2.308-.534-3.51-.65l-44.138-4.244c-3.577-.344-6.737-1.928-9.093-4.285-3.034-3.034-4.739-7.349-4.297-11.954.785-8.181 8.056-14.175 16.238-13.389z" fill="#4f4c5e" data-original="#4f4c5e" style=""/><path xmlns="http://www.w3.org/2000/svg" d="m381.248 377.166 41.518 15.573c1.38.518 2.724 1.097 4.037 1.722-5.376 8.766-11.469 17.045-18.2 24.756l-37.808-14.181c-3.365-1.262-6.004-3.612-7.667-6.501-2.141-3.719-2.665-8.329-1.041-12.661 2.887-7.697 11.465-11.595 19.161-8.708z" fill="#4f4c5e" data-original="#4f4c5e" style=""/><path xmlns="http://www.w3.org/2000/svg" d="m233.617 116.712h29.765v77.163h-29.765z" fill="#b7b5bd" data-original="#b7b5bd" style=""/><path xmlns="http://www.w3.org/2000/svg" d="m271.041 146.712h-45.082c-84.269 0-152.583 68.314-152.583 152.583 0 84.269 68.314 152.583 152.583 152.583h45.082c84.27 0 152.583-68.314 152.583-152.583 0-84.269-68.314-152.583-152.583-152.583z" fill="#8952c5" data-original="#996acc" style="" class=""/><path xmlns="http://www.w3.org/2000/svg" d="m103.376 299.296c0-84.27 68.314-152.584 152.583-152.584h-30c-84.269 0-152.583 68.314-152.583 152.584 0 84.269 68.314 152.583 152.583 152.583h30c-84.269 0-152.583-68.314-152.583-152.583z" fill="#6d36ab" data-original="#6d36ab" style="" class=""/><ellipse xmlns="http://www.w3.org/2000/svg" cx="158.846" cy="360.55" fill="#ffa1ac" rx="33.081" ry="26.344" data-original="#ffa1ac" style=""/><ellipse xmlns="http://www.w3.org/2000/svg" cx="338.154" cy="360.55" fill="#ffa1ac" rx="33.081" ry="26.344" data-original="#ffa1ac" style=""/><path xmlns="http://www.w3.org/2000/svg" d="m192.456 297.61-23.437-4.132c-4.078-.721-7.969 2.004-8.688 6.083s2.005 7.969 6.084 8.688l23.437 4.133c.44.078.878.115 1.311.115 3.571 0 6.736-2.561 7.377-6.199.719-4.079-2.005-7.969-6.084-8.688z" fill="#423e4f" data-original="#423e4f" style=""/><path xmlns="http://www.w3.org/2000/svg" d="m336.67 299.561c-.719-4.079-4.608-6.801-8.688-6.083l-23.437 4.132c-4.079.72-6.803 4.609-6.084 8.688.642 3.639 3.806 6.199 7.377 6.199.432 0 .871-.038 1.311-.115l23.437-4.133c4.079-.719 6.803-4.609 6.084-8.688z" fill="#423e4f" data-original="#423e4f" style=""/><path xmlns="http://www.w3.org/2000/svg" d="m280.576 329.656c-4.142 0-7.5 3.358-7.5 7.5 0 4.708-3.83 8.538-8.538 8.538s-8.538-3.83-8.538-8.538c0-4.142-3.358-7.5-7.5-7.5s-7.5 3.358-7.5 7.5c0 4.708-3.83 8.538-8.538 8.538s-8.538-3.83-8.538-8.538c0-4.142-3.358-7.5-7.5-7.5s-7.5 3.358-7.5 7.5c0 12.979 10.559 23.538 23.538 23.538 6.193 0 11.831-2.408 16.038-6.332 4.207 3.924 9.845 6.332 16.038 6.332 12.979 0 23.538-10.559 23.538-23.538 0-4.142-3.358-7.5-7.5-7.5z" fill="#423e4f" data-original="#423e4f" style=""/><path xmlns="http://www.w3.org/2000/svg" d="m178.126 314.272c-4.142 0-7.5 3.358-7.5 7.5v13.314c0 4.142 3.358 7.5 7.5 7.5s7.5-3.358 7.5-7.5v-13.314c0-4.142-3.358-7.5-7.5-7.5z" fill="#423e4f" data-original="#423e4f" style=""/><path xmlns="http://www.w3.org/2000/svg" d="m318.875 314.272c-4.142 0-7.5 3.358-7.5 7.5v13.314c0 4.142 3.358 7.5 7.5 7.5s7.5-3.358 7.5-7.5v-13.314c0-4.142-3.358-7.5-7.5-7.5z" fill="#423e4f" data-original="#423e4f" style=""/></g></svg>
